<mxfile host="Electron" agent="Mozilla/5.0 (Windows NT 10.0; Win64; x64) AppleWebKit/537.36 (KHTML, like Gecko) draw.io/26.0.4 Chrome/128.0.6613.186 Electron/32.2.5 Safari/537.36" version="26.0.4">
  <diagram name="第1頁" id="kQSdU84cXpSbEZ6_uS6j">
    <mxGraphModel dx="1434" dy="836" grid="1" gridSize="10" guides="1" tooltips="1" connect="1" arrows="1" fold="1" page="1" pageScale="1" pageWidth="827" pageHeight="1169" math="0" shadow="0">
      <root>
        <mxCell id="0" />
        <mxCell id="1" parent="0" />
        <mxCell id="WDh5IYlVzA6w8aevfNZZ-90" value="" style="rounded=0;whiteSpace=wrap;html=1;strokeWidth=2;fillColor=#ffcccc;strokeColor=#36393d;" vertex="1" parent="1">
          <mxGeometry x="240" y="837" width="810" height="53" as="geometry" />
        </mxCell>
        <mxCell id="WDh5IYlVzA6w8aevfNZZ-85" value="" style="rounded=0;whiteSpace=wrap;html=1;dashed=1;strokeWidth=2;" vertex="1" parent="1">
          <mxGeometry x="880" y="921" width="170" height="350" as="geometry" />
        </mxCell>
        <mxCell id="WDh5IYlVzA6w8aevfNZZ-75" value="" style="rounded=0;whiteSpace=wrap;html=1;dashed=1;strokeWidth=2;" vertex="1" parent="1">
          <mxGeometry x="556" y="921" width="308" height="210" as="geometry" />
        </mxCell>
        <mxCell id="WDh5IYlVzA6w8aevfNZZ-62" value="" style="rounded=0;whiteSpace=wrap;html=1;dashed=1;strokeWidth=2;" vertex="1" parent="1">
          <mxGeometry x="240" y="921" width="300" height="207" as="geometry" />
        </mxCell>
        <mxCell id="WDh5IYlVzA6w8aevfNZZ-43" value="" style="rounded=0;whiteSpace=wrap;html=1;dashed=1;strokeWidth=2;" vertex="1" parent="1">
          <mxGeometry x="240" y="610" width="850" height="200" as="geometry" />
        </mxCell>
        <mxCell id="WDh5IYlVzA6w8aevfNZZ-51" value="" style="rounded=0;whiteSpace=wrap;html=1;fillColor=#dae8fc;strokeColor=#6c8ebf;" vertex="1" parent="1">
          <mxGeometry x="730" y="620" width="190" height="65" as="geometry" />
        </mxCell>
        <mxCell id="WDh5IYlVzA6w8aevfNZZ-10" value="" style="rounded=0;whiteSpace=wrap;html=1;dashed=1;" vertex="1" parent="1">
          <mxGeometry x="228" y="410" width="220" height="90" as="geometry" />
        </mxCell>
        <mxCell id="WDh5IYlVzA6w8aevfNZZ-1" value="&lt;b&gt;數位雙生（Digital Twin）&lt;/b&gt;" style="text;html=1;align=center;verticalAlign=middle;resizable=0;points=[];autosize=1;strokeColor=none;fillColor=none;" vertex="1" parent="1">
          <mxGeometry x="410" y="354" width="160" height="30" as="geometry" />
        </mxCell>
        <mxCell id="WDh5IYlVzA6w8aevfNZZ-2" value="&lt;font style=&quot;font-size: 10px;&quot;&gt;基於實體系統所建立的動態虛擬模型&lt;/font&gt;" style="text;html=1;align=center;verticalAlign=middle;resizable=0;points=[];autosize=1;strokeColor=none;fillColor=none;fontStyle=2" vertex="1" parent="1">
          <mxGeometry x="550" y="354" width="180" height="30" as="geometry" />
        </mxCell>
        <mxCell id="WDh5IYlVzA6w8aevfNZZ-3" value="即時監測" style="text;html=1;align=center;verticalAlign=middle;resizable=0;points=[];autosize=1;strokeColor=none;fillColor=none;fontStyle=0" vertex="1" parent="1">
          <mxGeometry x="230" y="470" width="70" height="30" as="geometry" />
        </mxCell>
        <mxCell id="WDh5IYlVzA6w8aevfNZZ-4" value="預測控制" style="text;html=1;align=center;verticalAlign=middle;resizable=0;points=[];autosize=1;strokeColor=none;fillColor=none;fontStyle=0" vertex="1" parent="1">
          <mxGeometry x="300" y="470" width="70" height="30" as="geometry" />
        </mxCell>
        <mxCell id="WDh5IYlVzA6w8aevfNZZ-5" value="策略優化" style="text;html=1;align=center;verticalAlign=middle;resizable=0;points=[];autosize=1;strokeColor=none;fillColor=none;fontStyle=0" vertex="1" parent="1">
          <mxGeometry x="370" y="470" width="70" height="30" as="geometry" />
        </mxCell>
        <mxCell id="WDh5IYlVzA6w8aevfNZZ-6" value="" style="shape=image;verticalLabelPosition=bottom;labelBackgroundColor=default;verticalAlign=top;aspect=fixed;imageAspect=0;image=data:image/png,iVBORw0KGgoAAAANSUhEUgAAAIAAAACACAYAAADDPmHLAAAACXBIWXMAACdeAAAnXgHPwViOAAAAGXRFWHRTb2Z0d2FyZQB3d3cuaW5rc2NhcGUub3Jnm+48GgAAEH5JREFUeJztnWtwVMeVx/99ZzQzGo1Gz9H7hZAQGMmSZWODASNABmMjiHlk47h27dhZUuBNtipxVT5spSpV3g+7qVrvbpIF1o/YSTZblAOYIB722kZg/MCAAdkSCISE3hpp0EgavUbSzO39MKCg6ZaYO29p+lfFB07f2300939vn9vd9zTBDGyp2VNAgR0AniLAQkpICijVzHS8IIwgZAKU9gC0CcAHKll98Mj63zRxD3U3bPt0V/qkU/0agBcBqALrqSBIOAH6jhPkFyfW7jXfWzBNAFU1u5cD5DCA9KC6JwgW3RIlz/5l3X99ddcwJYCtp155TCa0BkB0SFwTBIsxKssVx9bvPw/cEcCdx/7XEHd+ZEDQRRxR5Ucr/7NHDQATsvqfyQwXP9NgQqmpEIm6WKikuR0S2B0TeO/6J6CgTJlEJCxNzkdhfBZiNfoQeOc/nLITfXYbai2N6Bq+zR5AkSFLk68B2EXuRPsNcAv4JCJhe2EFlmcUg7Cx4pykpu1rVDd/xtgTdUa8VFyFDENyCLwKHBQUX3bV4XDjachUdi92yE5apAahO0EJc2tvL6zAioyS4HgaJK5YbjC2aLUWu0u3ISk6LgQeBRYCgsfvXMODN065F6tVEtkhUZCn3EsyDSYszygOgovBY3hyDB1DFsZekV0+Ly/+vazIKOY+3SihmyRQLHAveNBUMG8e+3exjg1y+/4yU2EIvAkuBASl3L+TLFCDkFTQ6T9Mks7oVwdGJ+1oG+pBos6IFH2CX+v2FNvEKNee6MXfSkHRO2KFdXwIE85JX13zmNgoPZKj42HUxig+N1HHecoRkq7mDe/6M9pv7G/Hu/XHMeYYBwFBZe4ybFqwwm/1e4qTOrl2JX/rhHMSNe2XcK67DoPjw/5yTREEBNnGVFTmLENxcr7H56kliTVSquFY/UfPSB/eqT+GMce4qz1QfNR6Hr2jA4FsNiB0j/ThVxf+Bx+2nAvZxQdcv2GbzYzf1VXj9/UnfH4CBUwAI5NjeKuuGnbHBFPWbx8MVLMBwWq3Yd+VQ7DabaF2ZRq1lka8W3+M94rnMQERgFN24t36E+gbYy90tFqLbGNaIJoNCBQUf6g/geHJsVC7wqXB2oYzHZe9Pj8gAjjUWIOmgQ7GTkCwY9E66NXaQDQbEOosTWgb6gm1G7PySesFr7sCtZ99wZmOyzjXXc8t25D3KB5KWeTvJgPKpd7rXPvO3I3YnLkGCZrgjCHIVEbLSBfebPwz6gdvTisbdYzjmrUVpaYCxfX69QnQYG1DddNZblmJqQAb8h7zZ3NBoW2ol7GtTnkYf7tgS9AuPuAams83ZOGfSn4Eg5qdq2izmTlneVCvr47dpXe0H3+8egIyZQdbMg0peH7xxjk5uDQ0McLYyhIWh8ATFwa1HoXGXMZu4/jpCX4RwOikHW99e3Tqde9eYjUxeLmkChqV33uboKBTsavgzHbODFuQoKDoGetj7NFexlU+C0CmMt6tP47bY+y7fZSkxsvFmxGvNTBlLbZu/OnaB/jfax+ixdbtqxsBI0WfyNiqO07jhq0l6L5QUBxoOYmuMbZb8naE1efb8lDjadycIeL/3uJK5HBe+RqsrXi7rhpO2TU6d9nSiJ889F1kx6b46o7fWZq8AM2DndNsduc4fn7531BozEOSJj4ofsiQ0Trcxb34BAQPJHk+KngvPgngTMdlfNn1LbfMFfEXMfaekT784erJqYsPuMYNLpivhqUAHs8oQU37JQy7zSU4qYyGweYQeTWdR9IWI1EX69W5XncBs0X8D84Q8Y9O2u+MDrKxgjpMVxtpVRpsL6wI2wA2TmvAM/mrvD7fKwHcL+L/Pifid8UKx7ijg1GSOqwXn5SaCvGdgicgkYBOnSgmTmvA35dshdGHJWyKuwBvI35XrNDJ2O/GCqbo4PSl3rI6qwzphmQcuXmGv84uiBAQlKcWoWrhap8uPqBQAN5G/J92XFEcK4QjBfFZ+NnD30erzYzr/W3otw9h3MlOdgWKWI0eJn08liYt9LrPd0eRAA7PGvE/yY34b/S34+gMsUJZSuGcGx0khCAvLh15cfNjBb3HnZpltB9fdtVxy2Yb469uOsudrsyOTcH3ip4M2+AqUvBYAH32Ie6aulLT7HdxH2fu36iNwUvFVdCoojxtXhAgPBZAjjGVGW7Mjk3Bc4tnv4uLEnKm/d8VK2xBHCdWEAQfj2MAvVqLl0uqcLjxNKz2ISxOzMGOwnX3vYt3LloPGcANaxtM+nhsK6wIywGfSEVREJgfl4lXH3leUQP6KB1+sPQZRecIgkd4jWwIgo4QQIQjBBDhCAFEOEIAEY4QQIQjBBDhCAFEOEIAEY4QQIQjBBDhCAFEOEIAEY4QQIQzNz/Ym6PYxkfwf61fwWq3oSgxF6szyyCR0C6JEwIIEpOyA3trD07lR2qwtsI2PoKqhd5/1OEPRBcQJFptPUxyrAvmqyHy5q8IAQSJkUk2T2E45B0SAohwhAAiHCGACEcIIMIRAohwxDiAH2ke7MLhxhrcHhvEksRc7Fi0DjFRnu/B1TzYicONp9E3ZnN9eKPwfG8QAvATvaMDeOObI1MZO2strmSOL3j4UczopB1vf1s9lXeh1nITQxNj2FO2LaCJKUQX4AccshN/vHqSSdfaYG3zuI62oR4m6UbzYCc+aj3vFx9nQgjAD5w3X0XnMJu9K1nBVjRJOiP3I9tP2i4GND29EICPyFTGJ20XGTsBweb8lR7XY9IncPdpcshO1LR/7ZOPsyEE4CM3+jvQz9lHYFVWKYoS2ZSus7F14RNI5uRKumi+5tOeALMhBOAj160tjE2jUuPJ3EcV1+U6bxljH3WMoz1AKeuFAHzkFifNbVFiHgxevr6VmhZxcyY2D3Z5Vd/9EALwEds4m6V7gZFNIBUTxaZz44lEo1Ijw2DyqB1/IATgIyOcKV0DJ3dfrjEVJreEzsvSHuDWydu7OFBTx2IgyEc0qihMyo5ptnHORllRkhr/ULYdH7VewO2xASxJzMPKzAe5dY5zknDq1Gzaen8gBOAjcdoY5ilgGevnHhuricG2wopZ66OgsHDS6Ro1yjeL9ATRBfhIMmdHzvq+W9yUep7QMWThDvwoGVRSghCAjyxJYrZeRt/YIL6xNHlV36m2C4xNIgRFiXle1Xc/hAB8ZGnSAu5kzdGms8weA/ej7nYzVzgL47MCttWeEICPGDR6PJzKbiLVb7fhrbpq7lsCj5sDnfjTtQ+5XcearHKf/ZwJIQA/8FTeY4iS2Hi6zWbG618fQN3tmXcWmXA68GHLV9hfe5ibebwgPgsPJOX5091piLcAP5CgM+Lp/Mfxl5ufMmX9dht+V1eNtJgkLE3KR4o+AdFqLYYmRtBiM6O+rxmjk3ZuvTq1BtsXrQ2o70IAfmJN1kPoGbHiXDc/o7p5pA/mEXa7t5kgIHh+yUakcnYt8ydCAH5ke2EFnNSJC+ZrPtUTJanxN0XrsdTLncCUIATgR1SSCs8t3oD0mGQcv/XFtJ3RPCVBZ8QLD2zibr4RCIQAAkBFdjlKTQX4uO0iznXVeTQopFFFYW12OdblPMINKAOFEECASNAZsXPROlTmPIL6vlu42tcMy9ggbOMjmJQdiFZrYdQakBObguKkfBQl5oVke10hgACToDNiVWYpVmWWTtkcsjNs9kkU4wAhIFwuPiAEEPEIAUQ4QgARjhBAhMN9CzjTfhlXehuD7UtACeTXNXMZrgBaOEudBfMT0QVEOEIAEY4QQITDjQEWGxcgSZvAK5qz9I33o8F2K9RuhB1cAWzNXoeVpsCtQwsFn1suoaH+7VC7EXaILiDCkUAIsxLR4cVCBsHcRAJgdjea7Z6vXRPMbSRQykRGX1guef1pk2BuIQH0pLvx1nAnPuj6LBT+CIKMpJLVBwEwnf4bjX/Gya6z4kkwz1EfWf+bpqqa3e8A5If3FjipE/tuHMDJrrNYaSpHqi4JUWG0kkUp120tfqmnd3QA/fZBZMemQh+lm/E4mVK02lzhVa4xbdatYUYn7Wgb6kWizogUPZskypv2PUUNAE6QX6gIngZFhvsBLcOdaBnu9Lmh+cDJW1/i49YLoKDQq7V4qaQK+XGZzHHjzgnsvXII7UOu3IE5xjTsLn0WWhWb5KF5oBNv17kyhBIQVOYuw6YFK3xqXwkSAJxYu9dMnfKzAEK/hUWY0js6MPXjA67MXe83sp+CAcCnHVemLj7g+kbwbEct99jDN09PZQiloPi49QIsYwPMcUraV8LUQNCx9fvPE0leCaDd51rnIT0jt5l4qHvkNvdY3idgMx9rnfZ/CgrzMHuskvaVMG0k8Oia/ZedwKOU4k0AjhnOiUhkTjA8U/JGmfKO5QfTvDq4bSloXwnMUPCJtXvNx9bt3SU7aRGh+DmAGhDSxhsxFMx9Zvww5HjlvmYAv7rzz+9U1bzyQ4C+6W6XiITXSn+MkvhFfm3vc8sl/KuYDGIIyWTQ5jM/KgTov/PKnst7xu8XXzAzQRdARc2LOklWvQfA4F5WHF+InTkbgu1SRBN0AcTS6NcpUOZuN0YZ8OqSHwR0dwwBS1B/7S2n9mwDIbvd7QQEPyl6HonawOTCE8xM0ASwqebHWZTgDV7Zlqy1eDSZnzZVEFiCIoCKml+q1XAcAJDkXlYQm4O/y98aDDcEHIIigFj0/hIgzP4pOpUWP1vyYlAzYgim4/Uvv+virqjuYVUlpWQjAfIowM1mTAACirWc/ZAQrdJhf+N73rqgiIEJdlsXJRg1zEsL4rSsDQCMWvaniOPYAFcC6aGJEbdj2XqVtK8ErwSw+dQrT3cP0f8AUHj3us482TlzYf/EIPon2MzY4UiuMQ05xjS02f66gm71PVk/7mV5ejHOddVNpZGPktRYns5uCAUAT2SV4njzF1P/zzGmISeWTRClpH0lKJ7g33xq908J8A4Ikn1uPQzYmLfco+MIIShPKYJWHYVEnRGVucuwIqOEe2ysRo/i5IVQSRJyjWnYuWgd0mKY8AcAkB+XiVR9EnRqDcpSCrGjcC03g4iS9nn0jFpRa2E/+J31xnWn6tQr3wWhB5SeF868XvGPoXYhKNRaGvH7+hOM3eMgcGfNHgMI/TXm0cUXKIgBxkBfICCpTAWSGmUJi5GknX0pU6ix2Ptwycpm8HTKTqjm8FI3T3HInKljQiY8FoAEVLnPSOtUWvzLQz9FviHLR/cCT8NgM1cAVruN2cxpPtLHWWUESrs97gIoUOBu25D++Jy4+ACQHm3i7s17hRMYzTcopdwAEECzgoEgwqStztIHJ5+tP4jTxGJhbDZjr2m/hNu8u2Me8XnXN+jmLFOjhJxUMhLI3D5zLRpclfIwY7M7xrGv9n3u7t9zHUopPuusxZGbZ3jFDuqQD/k0BntzuB0GyyVfqggqsWo9JCIxa+n67Ta8fvEAipPzURCfxR3Jm0s4ZBlW+yCu9N7g3vkAQIC3jlfua/b4Jq6q2dMPILxDfYGndKon5PL3N+7vFasvIg2CUQLpO+9v3N8LKJsNDMzuxYJg0kmotObo2t9evGtQIAD2K2LBnMEB4L/VE3L5vRcfUDASqHM4X7WrVFpIZCsojH53UeA/XN9wmEFpEyXkJCHkYPWa33IzZP0/tmSvw1rmRJgAAAAASUVORK5CYII=;" vertex="1" parent="1">
          <mxGeometry x="240" y="420" width="50" height="50" as="geometry" />
        </mxCell>
        <mxCell id="WDh5IYlVzA6w8aevfNZZ-7" value="" style="shape=image;verticalLabelPosition=bottom;labelBackgroundColor=default;verticalAlign=top;aspect=fixed;imageAspect=0;image=https://cdn-icons-png.flaticon.com/128/4515/4515012.png;" vertex="1" parent="1">
          <mxGeometry x="307.5" y="420" width="55" height="55" as="geometry" />
        </mxCell>
        <mxCell id="WDh5IYlVzA6w8aevfNZZ-9" value="" style="shape=image;verticalLabelPosition=bottom;labelBackgroundColor=default;verticalAlign=top;aspect=fixed;imageAspect=0;image=data:image/png,iVBORw0KGgoAAAANSUhEUgAAAIAAAACACAYAAADDPmHLAAAACXBIWXMAAAOwAAADsAEnxA+tAAAAGXRFWHRTb2Z0d2FyZQB3d3cuaW5rc2NhcGUub3Jnm+48GgAAF8ZJREFUeJztnXl4VOW5wH9nJiFASCAGEsKehE2hbEE2RQkqtlKuGwrWtha1t4r2Wlstt2ptpYu3VqttrbZqtVovFWzhIlURLaJsYtlU9jUkhBCybzOZ9dw/vpyTM5Mzy5k5M5OQ+T3PeZ6cM+d882be93zL+73f+0GSJEm6L1KiBfAjHbgf6AO0AE3AMeAQUAK4EyZZkrjwGCAHOBqBfwLfB4YlSsAkseUFAhuA9vAAG4FFgDUhkp4ndLYfbwFQBDBzQSHTZk8kZ3AWyNDcaEP2ysp9EpAPLAQWI2qHzxMhcFcnJdECBGLM1IFcedVlKN0UZ6uLfTtPsmfLYXZs3I+t2aHcOhp4FfgOcDdJQzBEp60BJhUPY3jBMCySENGaYiVvWDZTLh3DvIXTyRnUj/KTVbQ0tSrPDgXuBGzAJwmQvUvSqQ1gyPA8Uiw9OtyUkmplxJg8rrzhYi7IyeTovjKcDjeI/2ceMAVYBzjjJ3rXxJJoAYLhlh1BP7emWJh7bRFPrLiH6XMv0n60ANFJHBBD8c4LYmkAKcAM4NvAk8Aa4H3g34i3c1CoApyelrC+KDMrne/+/CZu+/5XSElVK7WLgY+A/oYl70aY3QnMQPTMFwKz284D8Z/AT4MV5vDYkGUvkhSenV61cBqD8wfwm2Vv0GpzAlwIvAPMBZrDKqSbYVYNMBr4M3AWeBm4huDKB+H1C4ose2n1NBkS5KKifJY98w3SeqUqly4GXqPzeT07BdHWAEOAXyHG4j7GZE1JZfCYKeSNnszAgnFkDhhC+eFdbHzl54a+oMVVR6+UvoaeGTV+CPf9chFPPbgCj9sLcD3wX8BvDRXUDYjUACwIn/1PEX57ACTJQuHUYibMvZnComLS0jN9HmqsOm34i5weG06PjR7W3oaemzC9kK/dO4+/PrNeufQEsAE4aFiI85hIDGAg8DpwhXLBkpLKpKtuYeaNS8nKG2GWbCpNziqyew03/NzVN0/n4J4Sdn50CKAH8AeE3HLQB7sRRg2gCDEhM1C5UFg0l6vv+jkXDCowVTAtDk8LrZ5GelozQ9/sx5IH5nNgVwm25laAYkQH9U2TReyyGOkEXgF8SJvyU3v25qv3Pc0ty1fEVPkK9a1n8crGZ4P7Zvdh4beLtZceIdkhVAnXAC5HvPkZAFl5I1jy1NtMmndLzATzxyu7qWstR5aN197F1xXRf6DakZyAcBQlITwDmAisBXoC5OaPY8lTb5Mz4sKYCqaHw9NCg+Os4edSU63M/9os7aVvmyZU52EoUBDk0B1KhTKALOD/lIdz88fx9cf/Qe++2SbJbBybu44m5znDz13y5Yla38CXgVwz5Uowa4BS4HiQox64z//BYAYgIZw6IwAy++ex+LHX6ZXRz0zBI6LJWU19a4Wh5qB3nzSKZo9VTlOA/4iFbAlAQhh0ONzmfyGYAXwNuA6EU+emR/5CRnaecfFihM1dR21rqaGO4ZRLx2hPiwPd18WQgbuA7cAuzbEPcPndW+L/cCADyEQ4TgC4/BvLyBs10QRZzcXhaeGc7QR2d0NY94+fVoDU3v+fG+XXpwKTEP6FRPMqMAuY2nbcgmi+U/3u6zAfEsgAfkTbbN3Awi8x84a7TZPUbJTRQbW9JOTsYZ/MXuQMylJOc4GcCL82EzHdvAfYDCS+XWxnFGK4PrjtvC7YzXoGkAUsVU7mfednSJbOFjfSEafHRrX9FFW2k9hcdciyR/e+YaMGak/H6t4UnHTEdPalbefTEMZwQQRlmY2/8s8By4I9oGcAdyMsnIIpcxg2boaZAsYcl9dOvaOCipYjVNtP0uQ8h93dgFt24JXdZOf6eBONerDSEdPLl/ldnwx8QGKNQE/5c4FTwR7ydwVLwBLlZOaNS0kUJfurcbu8ppdbWVWhPTUyzZgJrAdmtp07gV8DP0D4SCYD7wFXIYZc8cRf+ZWITu5BzTVd/A1gJjAShLcvf+Jsc8U0wKZVh+PxNX1C3wK0V/ta5S9C+Eg+pt1RNhXRHFwJ1JoqaWD03vwrCHPW078JUMfG4+fcgLbLHCeMzxdHR1UY9/hX+1rlg5hivhZQwpPj2RwEqvb3a+45TfvsZ5l/Af41gDo2Hj39atOkNMCvEWsC4xHMeRrh6ApGKOUrKEag1ASKEcSyJghH+QAHEAExo4Hn/AvRGkA6IpyatN4ZDCwcb7K8YWEHnkrEF+sQrvIV4mkE4SpfYW2ggrRNwGjaDCJv1MQuMfSLIUaVrxCP5sCo8oOiNQB1TJw9ZGSkwp0PRKp8hVgaganKB18DGKL8kTWw266+jlb5CrEwAtOVD759ADWMO6238dCr8PCZvZtHm8MpRtQDTyNC1cNBT/k3E6T9DIGZfYKYKB98DUAdE/foFTJk3zCy18PmN57RXprQdsSSYYiJkVCYrXwFM4wgZsoH3yZAdZ57vfp+9EiRvR7+tLSY2vITppYbBlmhb4mZ8hWiaQ5iqnzwrQHUqUKXw25W+eD18sK9c6kuO6JeysodROH4qeZ9h4bmhloO7dyinoa4PdbKV4ikJoi58sHXAFT/dUtdOA6y0Ig3fw7VZUfVa/0HDWPW/EWmlK9Hxckj2tNgPvneiMWqWvfuTcBbsZGMDQiHzBpCzx0E8+2birYJUOvnuoqS6EtW3/z4KR/A1tyoPT0e5NbFxE/5CusRRqA0B1MRRqiNJ4ib8sG3BlBfnarS6CZiZK+HF+4ppqq0/W2Mh/IBGqortafB/pE9iGwiIDqKsVa+gmIESk2gGMFVCBe4EeXfjAj0TDPw/WXAvUA5+BrAcURevozKE/txtdpI7WlsPR4kptrXUu873ftZkFv3IEKpIX4zdwp6RvAvRJSSkTf/DxjPf1DUVuZD4NsEuIEtAF6Pm9L9xtPsKG9+opRva2qguUGNgFLCpINRS/yVr7Ae39HBFIxP6YY7nR3wOf/ZwI3AVwAObX2bwqLw4yYT/eYDVJQc1Z7+K25fHDn+owOIoLefkZLCx5f66so7ZBByers/54MTx/nv99f7P9ohHuBN2tx1h7a9jdvZ2uEBPRL95iucPnZAe7oqrl8eORsQ4fd1wElgDgaHehZJYkTvdJ9jeGZfhvfLUo8BvfWde/4GcAoR5Yq9qZ59m1aH/navlxfuvSIhHT4ttZXl2g5gJWKc3VV4DxGhXEic8xfoBYU+r/zxyernkYN4BWWvhz8uvZyqU4fUa4lQPsDRvTu0py9hXmLp64Bqwkthqxw1iGGlEdwkIG+BngG8CRwFqC47yt4Nf9N/su3NT3S1D1Bz9jSVpWp/rwVzU8HcAxhdDHkBIiVNp0fPADzAL5WTTX/9FfYm37UFnenN93o9fLHVp7b/A+HF+oWLuvInIyWFfqmp7UePNPr17KkemWlpus91ZgJlCHkVkcZtZkt9Feuff4jrfyhahs7Q29dydM8nNNaq+j4DGMtCZYB/XVLMqPT2kZc3ZwDe3PbFRWWNDUx5/vex+vqYEGhpmIyo+lwA+z9aw+53X+t0yq86XcKRPdu1l+5HOLOS+NEjxSfET02hG2x18B7gYeXkvT8+zLN3TO80ym9uqGXXxnXaJeKv0nWGfnFn9rARXDY8n/TU1FPAK8r1UAkinkSkhsHjdtFwrj1sP5HKtzU1sP3tVTgdqp9iP6LGShKA9B49+MfiWym5ZckSNH6GUAYgI2LidmsvZmbnJEz5jbVVbF33N+wtak1fDsxH9P6TGCScHEE2hLtSTd3dVFfN8S92xkyoQJw9dYwt61ZolV+DcF0HXQCZJDDh5gk8jdii5S1gquz1sv+TD6mtLGfCrCtJC+BmNAuP28X+HZsoObBXe7kUkRqlq2X+HIZYgxEuMrAXYexRcaapkbUHvshHTDkDxhJFViDSxb2OmMqk4uQRqstPMaboEvIvmoxkMT/7fPnxgxzY8ZH2rQeRcv4G4r+WMFrGIjrXPUPd6McZhNFE3Mydqq9j9ssvYHe5XkKEyq0C45lCbYhMmz9AbPHWy+V0sG/7Ro5/sZOCcVMYNnYCqT2MxCd0xOv1cOb4IY59/m/tGB/E2/A74Id0zd1ApmJc+SCytRQSxX5In1eexe5ygUgBcCkRGgCAF7GIcy3C5z4bwN7cyP4dmzi8exu5QwvIHT6S3KH5pKaF9/+6nA5qz56mouQoFSVHcTk6zEQqPf2PIpC5s6Autx6V3odxme3pCWRJQs70zbC/vayUqpaWDs9GQqCEatGkiz+CmLpchEhDMhHA7XJSfuIQ5ScOYbGmMGXONQwqaM/OVXeugoaaStxOB06HA1tjPc0NtTTVVQdK+1aGSEn/Ah2zXnVZvpybx/Kx7Qtw5ZQUPBf6ZDHj5lUr+PBkbEPpo90vwAv8DXgD0Ru/HxHGZAURWXRi366SQQWjz4BUWF99Nnvz2tfD+U4Z2IpYvv2/dM3qvktg1pYxMiK+/h3EzNl8xNAxt7ay/IG3XnxSiS+bjciooUcjonrfiGheTpokW5IgxGLjyBrEFi2v6Xy2GbgRGIfo0TYikhceQVT1yTz+cSYRO4eubjtiySzEvkVG/r89wMrYiNN56bRbx0ZBFiIgNJLhVi0iRr/b0Kk3joyQHCJTPrQlxu5OnI81gEpheh/uzR/lc807MAes7XPj7x47wgfHj8VbtE7DeW0AuWk9+dawET7X3GNHQ2p7DuXypsZubQDnYxOQxABJA+jmJA0gCiLZwKqz0e0MQPKYl/7GYqIBmCmXKC+8RNvdzgBodYS+JxFlyTI4TZzycIQnW7czAEuTeVHjUksLmFmjmCibpTG8srqdAUgNjea9abKMpTrqSC0VS3UtklnNSmsrUhgGFSsDmAAsR+TYPwzsBHYAfwZux9hGDeYiy1hPlyOZNO8knatCspuUVc3pxHK2MvR9YWItrwB38DWyZhvAFMR072fAj4GvImLZihB769yOMIJSxK5kGfrFxBapxYbl1Gkkb/Q7kkiAtaTUNCOQqmuwVJ4zZ3Njl4uUklJwBY6jMdMAHka85eFsM5IJPIjY326yiTKEjdTYiPXYCaQwO0tBcbuxHj+Jpcqc5sByrgrLiRIIsycfFLudlGMnkJr1Uyaa5Qr+DSIaCIABmXDHXIlrpkiMHSyRMmgedU0utu+r5bX1ZWz4VA30HIXIS1QMfGqSLOHjcIg+gRnIMpYa8/oDUksLks0W+sZwcLuRavV3jzPDAO5Bo/wlxRJPf8tCX22CsYxUsjJSKRjUm1vnDWHzZzXc+thuys7ZQSRs/CcwA02uwiTxIdom4ELE+kEAfrxQ4uWlfsrXYfbEbHa9fDmjh6pLrQcAz0YpS5IIiNYAfkLb3PuNMySWLwq/uAH9evDOk9NJ76lOzX4FSMhGRd2ZaJqAfMQiEXqnwXN3GrelwsHpLPv6KB59Sc00ciciYZKpuGWZcrsdWWfoVx+kh+xPud1GapCd1Cpaw8uqBtDgclFiC77Qxxamk8kryyHLqnbqd3ajMYD5tIV/f/NyiZwIR/Z3Xz+C5a8cxu2RQdQCvRCbR5lCg8vFnK0fhvyBwuH6T7eaIJHgtbISXisrMaWsJrebyZs2RPRsNE3AFcof114c+ai1f98ezBinpvVPR/QrokEd75y223a/Xl7ysAHl67nOQqWcDylHiPLDJSayRVMDDFf+KCqIzm1RODidLZ+rGVsH45ePwCDliJVKc0vtth89cmDfXkSg6ByCL6/ai/7eQD9GJGM2skN4A225eP14B/gTYo1guHgQHlW9EdJSRLJoIzGQZWg63JEaQAaQB2C1QHaU/rz+fX0SahlNfqzHE22HwoNRlLUbsbGDGTiBu0wqC0RKvzejKcBIEzABkYLtAGKDg4EAqVawROm39OtXxX2/2u5MODXAhYgqQzdzdP9Y7vuVJOaEMoAHEHn3fBb8D8mG4QMkhmbD0quTL2xXJpABSIg9fFUXb0YvuO8aicWXSIwbGlOlXx5ErvOdXW2HliKgwGA5lYj1liH3TAz0Qz+KRvk3zZR49g5LxGN9g3yz7eiOeBEKV5IhzQC2EVm/yIuYnX0GzTYA/uh1Aq9AGAAAj9wosfL+2Cp/WK7xrWnOUyybfj9rm7x5QZO8eUHTuiembSTyTrEFsSnWSsSy+1y9m/wLT0H08keBmNJ96W4TQgZy54ElNeDHLreXl9aVcuqsSdOfXZSpY/uxsHiQz7VX3y3jYEn4/iOHy0vZOTsf7q6httEn9O0UIjeQT2ItfwO4DfgLQGEuHHjGSg+dRmLjPvjFai/lNTDoAnjoegtXBtsEtv8lkGrEj5IkWlxuLy+uK2XZcwdotqthYTuBS9BkXPE3gE+A6QBv3G9h0Szfj+1OGPldD2d0tlnKy4Ijv7XSp5eONH1GQYaR1HhJzGLv0QbmfHcbDc3qpNd9iExrgK8BDED0Gi3ZGXD2RSu+Caah320eGoLU0n16QtNfrR0/sPSAnGKQumvnPrGs2niGRY+qmV0rgCGITqJPJ/Ay5Xz+FKmD8u95yeuvfAdwjPZtz2huhduf04lj8zqhwdQtb5MY4KbiQUwcqXrs8mjfMdXHAJQ967hoSMeO5+sf+4wiziEmIEYhpm/LlQ9WbQsQbm0/DY0HSaYBij+SBNfOztNeUiejtAagDhPydDZdb/GNJ3jM7+Nlyh/2YGsuWk5AzQ5wNQSTN0kMKBzsM9RWhxraRllVsUMnSMavTsj3+1hNwxEkYEbgrIHqLZCSAWnZYEkDqdstUIo7rU0+PXe12dYagLok5YxOBHFOP7S9//sRCRz3Al9Cs7NI/3Cnht1N4kgSF/Ye9Ombqb4A7aun5knZfqRjO/3cHT69QisirZobkcBYNaTf3q4zCkiSUFocsHqHj07VbXW1BrCFtnTkH+6TqfeLorp2Glw9qUP97qPtuV+SWDQreoGTmMtPVnqpbO927UATXaRVoAcxEXGhxwtpKVA83lfhX79Mosku8e9jMl6NQVkt8L1rLKy4L9mWdzaeWiez/O8+b/9taNLw+r/S0xHeQPr0hC9+Y2XEAP2CvyiFHUdhaiFMGmGmyEmixeOFjw7I/M8amfc/91H+7/Hb0VSvz/5PRMg3E0dIbPmZhT6Rpl0Mk9Jq4UA6ee788hFkZ0g8e4fEtJHmxk+8sVXmF6tlbI6Ov5fXC2frobXjSO4N4Bv47amsJ9lgRAdvAMCsMRKrH7SQG8Pp4EdXevnZ388v5StcN01izYPmNo35Sz2UhL85biPCb/M0Ol44PcnKgVtpmzHadljm4mUeVm6TA+46ES1BnUddHJuJaYQUwvi9mhCBJD8CRiJWb+tqL9DszPvAAkRW7/SyGlj8tJfH10gsmiVx9UQRExhtOHgA7qLr7wA6nsD7IpjNBX7nTgxsLhVsem4DIoDgFWASwGclMp+VyDy0QtyQngb/fb2FR240tY2zAfqL2bsOQZMOVNTB/Me97DkZuEq1WsSwe82DFt2YDA1R/VahGqe9wMXA99HZwaPFAb9ea0IWi27GWzvloMoH0ZN/Z3fo+6IlnN6JG9GBGIlYvPkEYuNBD4AzeA6iJDr4/WZ2xFusPdRWXm9exkyMdE+9wHra1t0hEj3hcEdvBC7f58+bncHC5JeIdlx7rI3Xl0czPqkEkeCyXCdEzAhn631OK6IrLYkRoonROoCIW+fjAzL5OZF3BPeW+LRzZVHI1OmwOeCEX+q/mqbw2/UzdR2fNyN5mEI0BvAeIu8fK7bI3DYnMgPYVypz+Ix6eoLzLFHUlkMyhfdGnk72lmdi28mOpglYj1glzIbPZLYdjqy3+tM3fZ5bE4U8nQkjuef0wqPCDZSIOrQq2gH8Y7StIho5EHY9YSVTLyw8ACu3ySx+WrVwO2J37dIoZeosPEDopFelwPfoqPACxGgrmAPeA7wI/CNSASF6A8hEzBsUAMwYLfHuQxb6pYd+8O3dMguf9GonLZYjso4liSNmuPCmIdyeaQBDs+HZOy0sKJJ04wMrG+Dx1V5+967P3MIHiI0eu9sQMOGY5cOdh2i/1dDTUXlwzWSJMYMlrBaobYZPjsi8t1f2n6r8FLgKY+1mkk7IVGA/YtYpnMMLPIdf8okkXZs0xLzBEQIr3oXwdBnJlJUkRsQq1YeEmEEsAgqBHggP33HE9vDJlSFJkiRJknD+HxtVycaE+y8fAAAAAElFTkSuQmCC;" vertex="1" parent="1">
          <mxGeometry x="375" y="420" width="55" height="55" as="geometry" />
        </mxCell>
        <mxCell id="WDh5IYlVzA6w8aevfNZZ-12" value="應用於工業領域" style="text;html=1;align=center;verticalAlign=middle;resizable=0;points=[];autosize=1;strokeColor=none;fillColor=none;fontStyle=0" vertex="1" parent="1">
          <mxGeometry x="280" y="384" width="110" height="30" as="geometry" />
        </mxCell>
        <mxCell id="WDh5IYlVzA6w8aevfNZZ-13" value="" style="rounded=0;whiteSpace=wrap;html=1;dashed=1;" vertex="1" parent="1">
          <mxGeometry x="460" y="410" width="430" height="90" as="geometry" />
        </mxCell>
        <mxCell id="WDh5IYlVzA6w8aevfNZZ-20" value="應用於永續教育" style="text;html=1;align=center;verticalAlign=middle;resizable=0;points=[];autosize=1;strokeColor=none;fillColor=none;fontStyle=0" vertex="1" parent="1">
          <mxGeometry x="620" y="384" width="110" height="30" as="geometry" />
        </mxCell>
        <mxCell id="WDh5IYlVzA6w8aevfNZZ-21" value="數位雙生" style="text;html=1;align=center;verticalAlign=middle;resizable=0;points=[];autosize=1;strokeColor=none;fillColor=none;fontStyle=0" vertex="1" parent="1">
          <mxGeometry x="460" y="470" width="70" height="30" as="geometry" />
        </mxCell>
        <mxCell id="WDh5IYlVzA6w8aevfNZZ-22" value="人工智慧" style="text;html=1;align=center;verticalAlign=middle;resizable=0;points=[];autosize=1;strokeColor=none;fillColor=none;fontStyle=0" vertex="1" parent="1">
          <mxGeometry x="540" y="470" width="70" height="30" as="geometry" />
        </mxCell>
        <mxCell id="WDh5IYlVzA6w8aevfNZZ-23" value="環境教育平台" style="text;html=1;align=center;verticalAlign=middle;resizable=0;points=[];autosize=1;strokeColor=none;fillColor=none;fontStyle=0" vertex="1" parent="1">
          <mxGeometry x="619.5" y="470" width="100" height="30" as="geometry" />
        </mxCell>
        <mxCell id="WDh5IYlVzA6w8aevfNZZ-24" value="對話式介面" style="text;html=1;align=center;verticalAlign=middle;resizable=0;points=[];autosize=1;strokeColor=none;fillColor=none;fontStyle=0" vertex="1" parent="1">
          <mxGeometry x="719.5" y="421" width="80" height="30" as="geometry" />
        </mxCell>
        <mxCell id="WDh5IYlVzA6w8aevfNZZ-25" value="使用者" style="text;html=1;align=center;verticalAlign=middle;resizable=0;points=[];autosize=1;strokeColor=none;fillColor=none;fontStyle=0" vertex="1" parent="1">
          <mxGeometry x="820" y="475" width="60" height="30" as="geometry" />
        </mxCell>
        <mxCell id="WDh5IYlVzA6w8aevfNZZ-26" value="" style="shape=image;verticalLabelPosition=bottom;labelBackgroundColor=default;verticalAlign=top;aspect=fixed;imageAspect=0;image=https://cdn-icons-png.flaticon.com/128/10223/10223796.png;" vertex="1" parent="1">
          <mxGeometry x="468" y="421" width="54" height="54" as="geometry" />
        </mxCell>
        <mxCell id="WDh5IYlVzA6w8aevfNZZ-27" value="" style="shape=image;verticalLabelPosition=bottom;labelBackgroundColor=default;verticalAlign=top;aspect=fixed;imageAspect=0;image=data:image/png,iVBORw0KGgoAAAANSUhEUgAAAIAAAACACAYAAADDPmHLAAAACXBIWXMAAA7DAAAOwwHHb6hkAAAAGXRFWHRTb2Z0d2FyZQB3d3cuaW5rc2NhcGUub3Jnm+48GgAAG4tJREFUeJztnXmUXNV17n/73qrqeZB60Iwk0IQGhoAYBBLIMrzYgSQCCwgLEwwiKNh+JnnJix1PsrOCHS+vxCROnhcmnrAdAsbGPBtCBJaEzDKThQENSCAkJKFWd6sH9VzDPfv9UVXd1VW3qmu4VdXN49M6q1pVdU+dc/Z39t5nnwnex/t4H///QspdgEKgqvLDXq4Q5WqFtQrzBZoAG6EX5Q3gRUv4xc2N7BIRzS5fhIFN64wj1whchLAMaCDaXj3Am6q8YKFP0LBih8hWU7xaFhdTkgAPq9pDPdwhyl8CS7N87A1VvnKkiR9uFXEVmOpWi959H1XRTwPLssz3sIh8lvqHHxIhK4JNJkw5Any3W1eJ8u/A6jyzeB6bW25rlEOJb+rpTYvU8CPgorxyFZ6XiHW7NP/n/jzLVRZMKQJ8p1OvQfgPoLbArE6rsvGOFtkOoL0f2aBGfgrUF5hvjwgbZdojOwvMp2SYMgT4Xrd+NmL4MmB5lGVQ4cOb2SQKv0So8CZbCYktX5LGh+/1Jr/iYkoQ4Ftt+pGIzcOqiC3g86jUgvbfITcYog5e4VAFE81YLK6T5kcf8yTfImLSE+Cf39SKwRrtdpTq+Hs+gXqfYHlQ+j9jU+GZqELQib7G37Jk2LJam2X2/UOF/0Dx4Ct3ASZCTyXf7Q+NCX/0/bAyu0IIFGoQshsZpoej0B8i2f8XqCLQfj9wS2E/UFxMag3wsKq9420dDit+t899AotrhIoCSPDnfCT/hyMG6QmCSUMiSyIsv6hKZGsk/x8pLsqiAe47qStt4WoVVqMsA5qJBnAEOA10AK+/2UakO4LfydBJB/uV8+vEM78gaxhFOoYhkiEGJOIzx3/3Haf9eltgFUgraANgAwPAUeCgKL9BeEZmPPpaaQqfUMRS/dDWvRpobOGPRPkrchhrjxjY26+cDKZnwewK4fyG/KrySb0+r+fk5BAMhNN/odaHtlSBnYt60n0CD2D5vi2tjwzkVbAcUXQCqKp84yR3I3wBaM03nz39yusD6UmwbrowpyL36nwqHwL0h5F3BtN+rDMqoaUy93zH0CUif8eMrn8V2VFU81FUAvxTmy5Q4d+BD3iR355+5bkedxJM88OmmRaSY43uMdfl9oACe/qiqskN86ug1aOQAuwWx7pJ5j36plcZJsOroEoKvt6uVznwulE+YDTqJxWaltcKcyuhN6Ip6fCw8sag5pxnzugMQY+BYVJTrd9L4QP8ntrmt9p23R94mWkiikKAr7Xph43hcQO1hmhsxKu0vinay09HUtOvezTn/NAc0+EQDJGasGBxTe75TZzq1OhjeuK6mwsQSVp4Pgq4t00/bFR/BgS8zhuiQ7/L64VftKV233cjitHU9zMix+9rexjcrPLSAGJpSjzAI/hU9Xt67I96Zd7Pn/AyY081wD8c17mi+gOFgPcdYSyd2yjMMEJ1cHxqVck5r9wLYLn2fplbUbwKR5Nfkf/Ud/8w2+nvrOAZAbaqWhFLf2CUJq9sfrpkARtmCdUhoSoYTdVBYV2r5O4D5JqWV6LDOpZGgHOqou50cQkASq061o9UN9leyc0zE+B7l3uMsN6r/CbCwunwx0vgUIeAwKJWpbUhZtdzQY4mQBb44epaOBAL/y4LILN9OedTAC7gaPhu4F+8yMyTYeBXD2lDsELfBqZ7kV8p8fnIxnIXIR90SXVggRfBIk9MwFAFmw1M99rjL0WaomhiMLzZi4y8MQGqd5ZMAXqN0qluT6HoZuAbheZTsAb4/HE918DScvfkvDVA8R23YqUV+ua1K7ISUgYUrAEihqsm9ZzyRJiaCiAKSz4I7C0ki4IJYEQvLnRNRVkxRU0AgIFLgfsKyaNgAqhh6dRtQqa0BhCk4KBQ4QSAuYXmUV5MYQagBbd94SZAC16jX15MZflDXaEZFE6AKT2cLnxNaJlRcOm90AC9wIxC8ykbprATCPQWmkHeBNiqanUd5jpFU5ZsT1ZISJGwQUYM1ohBQoZjwTMJBEJUVA4TCATxVwTx+zOs9ZtcqNE3rvkISy/8ab47lPMawn/iiH4Io18DVubzfDFhBZVAR5hAZxjfqQi+zjD+9jB2VxgcgxpFNZaIvqIJ76kiVoTG6V00t3TQ1NJJU0snzS2dzJjVTkVlsNxVdMMeVP9aVjzxX7k+mBMB/uKYVgXD5qsgn8z12WJBIkpVW5jqYyGqDoWoOhJMFbQh4e+JCZD8+SgxxDBz9gnOWnyI+We+w8KzDlNRGSp3EyTiQRi6W1bsyHqSKGshbnlLW1X0KYHz8iubd7BCSuP+ERr3B6k6HkJCJrOgPSJAYgLF9oU5Y8FRzrvgdVadv4/KSaEddDcBfl8WP9mZzbezIsDmN3WuZek2sj80wXso1J4I07QvSOO+Eaygpgq1xARI/L/tC3P2yoNcsPo1lq04hGWVdXC0H5/vg7Ls8RMTfXFCAtx2WCv9jv4auMCTouUIy0DrayPM3D2C/7STWahlJEBiapx2mnUfeJ7L1u7G9jnlaDaA39Ffu0bWPDKc6UsTEuD2N53viMjHvCtX9qjsM5z9fwep7IpkJ9RJQoD4szNndnL7XY/Q3FLwaC1ffEfOefKOTF/ISIDbD+oHVXSbt2XKDlV9hnMe7cc/6KLqpwgBVJWaqkHu+csHaZ7VXY5mBPRDcu5TaUcHadcDXLldfQ76jWIv8HRdqOnA2U8O4R+e0kEaAAaGqrn//1xPeMAuz7oB+Ed9+QLX3dWQgQBzZ3OzgRXlWKQxa2+Qmu6y2U7P0X6qiZ3/tRozIqUngJGzsVtvSFe2DCuCdHNMO5Y2GZj3+pSJxGWNnS9ewPCJSkywNOvHk1iQdv2gKwFueUsXGbi8HL1/2okIlQNTen7JFaf7azl0ZB7BExWYEavUHLhCX/rgmW7lciWAE2aDUaQc9n/WwUl7mEbB2L3nbHCkHCQQxHbdoe1OAMyacvR+K6TMOPLeJcDrb51JMOgHB4InAjGfwCvbOVEya9zK5EoARc4th/2fdTiCnek8mCmOUNjPawcXRf9jhGBbCTUBlmsI35UABm02KKVOs95+7zl/yXj1wJIxoTilJIE2u5XHdT2A0dJv8bIcaOp47zl/yTh8fBbhiI3fFzN1BoInK6iYOYJVUdT6uxIgjQZAS23/p3cYrPfO0D8two6Pd07MHN87HQi2VRZbE7i2bjoN0AnM96LC2aKlzVvpW7Zw2Y2NrFhbgyrs3TnAzh934+R1LgzYPmHDrbM4b8N0VOGVp7vY9r3jRMK553fo+FwWzTs2/s24JphRNE3Q4fZmGidQO0rhlySm1pPeVvrymxq44EN1VNZaVNVZXHhNPetunpZ3fhtuncXaTTOom+6nvsnPFTfO5Krb5uSV15vvzHVvBAeCJysxwaJoguwJYFT2lnLs7wsp07q80wD+SmHV+tTV6uddVU+gKr/tkOdtSCXP713lalYnxLGOGYyEAulJ0FYMEojrFrJ0GmB7Ke1/Xa/xdHn24tXV+F3ODPRXCEsurskrz7rpqfMpbu9lA2Ms2rsy+NmG6Ogg6GGcwJjtbj/l3h0c+1cmOnNaEg1Qd9pD6QPL1qRfqLxi3eTYx9LRPS1zjzXipTlQLN3hVg5XAjx5rhwHecZTDZQh1fd5R4DaaTZzl6U/q++MlVXUN5f/kPRTPY0Tf8kIwfZKTKjgI9G3yZpfvev2SdqcHcx9JdMAfd45gEvXVCMZ2ksEzr68/Fqgo2dadqrbiY4OCjIHOGl3EKdtqrUr7ScM7CmFD9DgoQZYdmnVhN9ZeWXBW+oKRmfPBCYgMTkFmYPXuWz7k+nKkZYAW0UMam02Gh06F1UDDHqjAVrm+2maO7Fj1jw3wIyFnh7pmjO6Tud4P1XcHORGAgP655mus8toXLafKy848M2izgA60ZW/XmDZmol7fxwrriivFgg7PiKRHHu0kzMJ7pN125/LVI4JvQtRKoo5A+jLI5LmWk4Lllyc/TbFlevqsOzybm4KpYsFeEUCZEI1l5EAl74SudmBLcXUAF4RYN7yCqobUqsz6gclobrBZsE52WuMYmAk5M/HpoMjhDtiJMjUuI7erU9vuClTGdISYM2r2qrIPxfb/tsezQCnG/sf2zfCsX0jrp+tvKLQeyILQ14aQKMjGVVDpMeHhiZYaIr+iz6xtiVdGdISIKLmSwaaij0C8EID+CuEhee539Cxb9cg+3a53+6x5KLavEPDXmA4mPuB6tELMRzEim6ADffZaDgjCZoJ+L6YLj/X2p+/W+cbwx2liAF4YQDOurDSNfQbCSlvvTTEwRcGCbvcOeSvEJZeUsaYQK49H4gLH1HEjn7gDArqZHjWyJ361NXz3IrgSgALs0XBn495yjUFPbjua+ml7ur/rZeHCI0YwiPKoZfd729cVUYzUBUI5aT2EQexY8K3oh+IxEgwBBpJ+3wADW9xK4Ob12QZ5dZSRQGDBUZlaxpt5ixxV6X7fz2m+vfuct8yP39VddlCwwFfdgRIVPswXvhxAgiKhsyYWk1OyK2qqVsBUwhw/itcbGB2KSKABhgpUAMsuaTSNfQ71OdwdO+Y8/fO68MM9qZOOYvA8rXl0QKVWRxFk5Xw41OpCiak6Ugwl6c+sDo5/xTqO2rWuw2bioWRAsfiSy52H8pV19t86vtnZJXHOesb+M1PuwoqRz4Y1QBpMKr2rQS1L+7Cj9+VIoCJRFdEpfR3lSuBFxPfSuk7RmV1KWx/PIVtcPJ0xJvn+WiaU7j6bp4XYOaZBd3zlzP8dgTbSjjvQF12H+OARNdMj74m/i0GjXp50VcBE537RyMOamJH5Ywmc3FyOVwIoItLZf/jqbc6PwYsucS7QM7KK0trBqbX9U3g7ZuY2jcZ1X48zB+NDUQ1QHz3IXEyjeW9KLkcKS3vwJxS2f946qrL3QyIBYsv8q7XrryioaSh4daG7gzevol5+yYLtZ8kfAUViZLACJLsByQhhQCq1JRaA3TV5q4B5i0PUF3vXRCnpsFm4bn5LRfLBy0NPSnvRR2+pJ6fi/CJCV9BNUoCzLggUUrQI9UEQLjUGqAzDw2w5GLvbfaq9Q2e55kOLfW92at9xogAmdS+i/Ah8XdSGjrFg9Lo8uEFntZ2ApyqyZ0As5e6j/23PdDDvl2DGY+IWXllLR/+eOo91vNXlu7Q05b67tERgFjE1H0amz9KAhfhS5LwJUH4o87AKFIOK3LRANpZag3Q1mCNkjVbuH09ElIOvZzxUCwADjzvHhrOdPF0f1fqmL3vVH6HRFpimBnzAcapfcng8AmITtDzY68uPZ/YYCHlEmqXUYB1tNQ+wLAttDXmdhfigedTZ/he3TZIaCRVsMkIDRteeep06vPPpL4Xx+9+lWqzdz+dX+xgXlM7Ff5Q7jZf0gifLISvoJJKABcToM+qcH1eNSsAb7VYzM6hPV98PKrml1xShQjsf26IFx7rz/r5HT/sQlVZtb4eVXh1Wy87f5z+cM1nftCGqnLehuh6/lee7uLp77sutJ0Qi2YeG7P5YkBjwtcEmx/7Oyr3DD2fBJuvrmp/FJam3i+UovTOeDG4wnHsPXnVrAAs6jTc/uuRcbZaVSHJfk+1Y+JSnlPlrqse4ayZR1OHetb4aF+0x8derWhoSIgRQST6SpLwM0CMs1xuenZ/4nspJuDo6sA+hXddNEhR0+Emi0j5puZLBr8d4YzmE/kN9dSl50+g9hPSwWThg9tsoIiqkW+V2g8ICRxpeu8zYOGM4wT8IcZ5+2QhfAoSPmr0YbfyuLa4Lda/GRgs9WjgFQ/i+pMd581/A9ehXqLw3bx9zV/4KINWOOB62bQrAY6vkW6F75ZaC/xutk24zCt1i4mAL8w5C/anBnkm8vYLEz6KfFNu/e/st4cDRAL25xSOF2LXc03DfuG12bkNB6cSVp1xgMqKION6vluED++Ej9Juqfl6ujKlJUDPhXLawJZSa4EX5713zcDqRa+RovZHhV4U4auobpabd5xKV6aMXlfPZb5fKvxrKf2AA802PWVcqVssNFT3c2brO1GHDwVNEH5syjY6gxfz9nVM6GoEMYATm9jJsjHV8E25ZccvMpVrwpbuvcz+n6o8VCoN4AC/Ouu9pwXWL/8NtmVSbX6m8C5593xQfmoN9/2vico1cVcTMX3T7T81yhOl0gK7FgZo83Cqt9yY1djBpUt+m2rzk4WvCcLXQoQvj8lI301y128nXHSYXSuvkNDgSfsP1eiXVDHF3CuoCmGB+y+uYtA/9UcENRVD3LbuYXx2dM12is3PJHzI2ear8o8SPH1DNsKPliNHVO2KbFTlASj+YZKzepW7fjNE8+DUvDJmRn07f7r2IZrqut3DuwIp4V1iJBAYndLNDl2C3ia3Z7b5ycivi23X2oBlPg76WTy4wDgTqkPC/9gT4pLjw9SMTI1Lo+oqTrNu2XNcsuilaM8f3chRFOEPKTxg+f1/n26snwmF6dhndI7PF7kTuBGkaFfKBcLC3E6LxV0hVp4cZkF3EJzJRQDBYVHLW1y48CWWzjoQdfjiNt/SscUcicKPT97lJ/wDKjxsWfpv8rEdJ/NtW++M7LPBcyxjPwqpK0+9QEVYmNNlYRuoChsWdwY5q3OEWb0h7Eh5Lo70WWHmNhzh7Jn7WDFrL9VVA9HZvcStW54LXw9alnWD3LH9VS/a1VMvy94e+RZwl5d5JiIQGSNBHKLQMhBmXneQOZ1BZvcEkWJdHYuhteYEC6YdYuH0Q5wx7Qh+XyhaCEtHp3bHefuJwrdiDl8hPV+5z96y4x6v2tTTAbcFz2sRCRD2KSeaDLMTSKACHXV+Our8/HZ+LYGIMm0gzLT+MA2DYeoHwjT2hakbDCNZ3kVgi0N91SmaqjporOykqeoU06s6aanpIGAHY4KNr+SJCR8zPrafztuHsbV7miB8J/NijjhUZVceTZcWnhIgHLQf9wecIFC0E5jCttI23TCre7wmiCPkE9obA7Q3pi4atY3ijxj84ViKGB5o+xsCVoiAPUKFPYzPCuOz0o+gomP4+Bq+NMJPjO1rQs8noefnIXwgaFu6M4tmyhrehtx+X7rlmcgTwEZP801C2FZOTjPM7HEnQTo4luAEbEYCYxNOc/oPZ/38OOETVfNgUufzlTESJEf4JCHCl5vwAR6Su9LH9fOB5+E2dcy9omg8nl2sFLaV9kaDKbQGWUbXhHhPn0D4uEzsaNLEjokFeZzcInyWwzcLrG0KPCdA+OrAyxbW40LqPysEgW5DRZfBN4jLN3L7F/ZROAlyEb6bzU+e1VMX4TOB8Cv60Po2tO4k6htxL4PyE/nkjpcLqKkrijPrIvJxy+haEqKF1oji63ZGVZ017GBFLJwCY/4RGzoaDa29lmfnDSYiRe1ncvg07vUnqH0ZU/dqUtW+1p6CmoR7hSv7oGcOhBK2qSmnxNif8L52RdAAAMMb5F1LdUvcFFgRxdczJvzRHx8wiCncHEQs6GzIUxPk0vMT1b6b8HHp+Zqh56NQnbrfQBtOgkRi5VCjIlvknmfa86jdhCjalNvA1b5HLPi0KFh9JjrNl4TYaMoTnyBiwan6PEjgpc1PntjJJHwFiFU+GZaD1p0iVoS/8n1y+6M51iprFHXOtf9q+2sSMl+10t0C7o+qRK8cw4gFXXUmt21m2QpfE3q+xl9jPd/EBO6kWcyhQMRlMUfERkJpRsyV/eAb/jv7np3/lENtckbRJ937r/V/Ruq4Fyt1oGPqrdHhkVcpYkNXfQ4kyLbnp7P5kBrkIWk+P4O3r70zQJMKa2yjQw1b7Y+/8IUsa5E3SrLqouf6is/6quUiDTA2aVFjIT4pyhDRsaA7W02QKPxRYedp85OFH1/GlfQ7434zWAkDY9vSJVh9wh6YfqH/Y/u+VEibZwtP5wKyQeOjkY9KUL+idTKHIi8B9zkwbcDCSmOBAHa/cS2QIHw7Jnw7oecnnsnnNrED44M8JG3Rngj+EDqt/TjBmr/w3fnaTwqqdI4oOQHimPZLZwAo+pEcPgONGUiwe/+142P7omNDPSvB4YvP52cjfIVs9uoloN/+6x1lOauubAvvRGkvhvpPMQcCp2vSm4OsbL5ogn8wgdpX8lnAmfd8fqEo2/JbS+UAomeW4reMBX01hoZBy2XUlaXNj3v9brF9dVH7GcxOMgQOFlzJPFG+pbci/y0qlCoZEfqqNcXhzjrIkyj8dD0/x9j+6EhA9aliN3c6lI0AfuFnAuFSmIF4MgL9VUkkUBfhq44J3cTVf2ycH3MT4l7+6KYNt3F+dilsRfSxkjV8EspGgLY/kHdw9EelJECcBAOVCSRwE74k9HxiwjcJal+96flRwsj35HPPJt0kXTqUdfeFz7a+KNDjdTBoomQsGBwlQZLajzt8yeN8GCd0T4Sv2m1F9MtetmmuKCsBTlwrR8XInVKC9QNummCwUlNtvpLe2/dU+KjCZtm643gJmzwFZd9/1bZRHkVliyim1CRQwGclkoAEEhRX+KCf8n1u589K2NSuKDsBANo2yv2icpMoPaUmQXzMH5WJGV3ybWJOIBrdtIrq6Ks6URlm3BmUPnWryib78ztdT+woNSYFAQDevU4esWxZKaoPihJyFZZRwkGH4IiDEzbeECD2OjoaZGxgEO3x4zWAa8+v7YeZ7dDUA3YkXa8PofJ9W2WF74vFm97NFWULBWfCvJ/rbCvCnyi6TpUNjmNqIo4SDhtivhkAgYBNZUVhHH77tfVj/xEwmIQgT5wQsSBPchABYOapqODjMAKn66G/BglWDGrYflqQZ62Q+Q+5d1dbQYUtAiYlARLR8mDk22HH2Zzu87pqH5aVfzUOvbo+9U0x2QnfH4GlR+K2JBXd9d/2bXnjz/IuXAkwaUxAOnQO2Xfblrhf/Aeji2oKMQGpSRAjY4s5xh+5Ppb84fTCHwkM2iffuNvDpigKJj0BuEvCtshGtxuwRcC2LPIND9tKP8ppl+BMlASZhK/AUAWua9CMpXZf7UbZSqRo7eIRJj8BgI6P+rcFbOtvE5WwADUBH1bs7zzSCMgfq7IRJZhKAjILX4muPDk6g3HUVNCuuk/LJ/ZsK0pjeIxJ7wMkYsYPwp8Jqfn7gGVJlc/Gzt/29ypsevtGeRog/LdXrBflZ0B+N0ZUhGB2N9QPqnTXfca+e/8/5FuwUmNKEQBg4YO61PbzfSDlBqysoOw0Nre+fYMcHff2py8/08H+IXBpfiXT5+xq5y75wnMpJ3JPZkw5AgCgKosf4k+AzwFnZ/nUHhW+/NaN/GR0tic5WxDnf19xiwqfkSzzVdgnyFfsqh0/lq1ui98nN6YmARKw6Md6qSVco8oaiR5O0RT7qAs4iPA8wmMHb5KXss1TQSJ/c+VlGL1WhNXAcqLmwULoBPar8pIa6+f+r29/UUh1UN/H+3gf72Py4/8Bg0jmoFOSNKkAAAAASUVORK5CYII=;" vertex="1" parent="1">
          <mxGeometry x="546" y="417" width="58" height="58" as="geometry" />
        </mxCell>
        <mxCell id="WDh5IYlVzA6w8aevfNZZ-28" value="" style="shape=image;verticalLabelPosition=bottom;labelBackgroundColor=default;verticalAlign=top;aspect=fixed;imageAspect=0;image=data:image/png,iVBORw0KGgoAAAANSUhEUgAAAIAAAACACAYAAADDPmHLAAAABHNCSVQICAgIfAhkiAAAAAlwSFlzAAADdgAAA3YBfdWCzAAAABl0RVh0U29mdHdhcmUAd3d3Lmlua3NjYXBlLm9yZ5vuPBoAAA6LSURBVHic7Z15bBzXfcc/M7O73JPLQ5QoipFJHZZUOxY8gWwltRw7tVQ5NiyjgZUYQV0oqOJiWthtAzSIK/Qfx4bjNohhJZM6SQNXiKzChRG7keujjYnKPdzEmhg1LJGRJVGSSVHiioe45N67/WOXEpdckruzszN7zAcYLPU4895PfN995+/9RshkMtg0LqLVBthYi8NqA6xC0fAAgdzlz33GgancFQamVJmUZUaagFCvXYCi4QI2Apty1+bc5wagBZCKzCoCDAP9wEDu6gcGVJlLBpttOnUjAEXDDXwOuDt33QY4K1zsMNAHvAP0qTJnK1ye4dS0ABSNHuBhYBfwWaDJUoNgkKwgXgXeUGUS1pqzPDUnAEWjGXgIeATYAQjWWrQoIeAIcEiVed9qYxajZgSgaOwAFGAP4LHYnFI5CbwIvKDKTFpsSx5VLwBFYydwALjTalsMYBI4CDynylyx2hioYgEoGveTrfjbrbalAoSBHwLftXomUXUCUDS2AT8AtlltiwlEgGeBZ1SZqBUGVI0AFI024GlgP423QnkGeEyVed3sgi0XgKIhAPuA7wArLDXGel4DHldlzplVoKUCUDS6gcPUxwDPKGaAb6gyf29GYcKWHQecmLNqlsfa39txe+um9U8IothsZrm1Qnxquu/M0bf/LnplfGaJ2y6cOPbk6XLKEbbsOPAucEc5mdhYRgZ44MSxJ4/qzUDErvxaRgB+t5wMGm20XY+UtRRuC6DBsQXQ4NgCaHAKuoT1tEzw4s6jeMTr3lAJQeRs2ke6andf65u3f7uewx/cYni+BQXwp1uPs1KatzTtS9EWrKqdzIZi88rRggIQBMEeBDYyHbd+enc5z9sCqHHcrcFbFI1v633eFkB98NeKxsN6HrQFUD/8SNG4sdSHCg4Cxd7fZ6bteF5azL2CiHulTttsyiWWXPYYgx94WdHYXopzSUEBjHc8yCfbD+SltXoEuvx2g2EVU9NR4KnlbtsKPAf8SbH52jVafzyqaHy52JttAdQnBxWN1mJutAVQn3SQ9a9cFsNPB/cPRRgaTWRdFXI0ByUC/oY9iHwNlyTQ3eLEJZmynP51ReMfljuVZGitxBJpTp6J5FW+IIIrKBELJ40sqmYRgN52lxlFiYCamxWkl7rJMOLJTF7lA4iiYG8fzSGRNtUJdxtZN/tFsccA9c/fKNrip6ZtAdQ/XcDXFvulLYDG4JuKVtjt3xZAY3AD8IeFfmELoHH4lqItjItkC6Bx2ADcPz/RFkBj8UfzE2wBNBb35Y7hX8MWQGPhgvydQlsAjccjc/9hC6Dx2K5obJz9hy2AxuTe2R9sATQmX5j9wRZAY/J5RcvWve2lUSaTE9NcGin+yNywS+CCp/QN8kgsgS9YwMsrmiB8+nyp2bWkY9HdyDf+q6EC8LgkBBEyc9wPUmnIZKC8E2zVyf/8Vz9v//Kj7H/QBFra2hekpYZDXBzuKz0zgV/s+rf3/tJQATgkuO13AgyH4nl+Ib4mkeY6cwnLZDI8858DplW+4WQQM2S+aXitdLU56WozNeCYJcQTKWLRqo8Gvxyr6+traTF3bAjz6Ob/wEH8WlpM9HJRWE0mY+14O5p0cejXvQyO5n85bQEYyIG1B5FG5w0IV8RY46qCbkKCm3fexd6XHsxLtgVA1pt59Gq+17LTIeB1L34eL55Y6GgrxqcX3uiogsrP4SsQmNxwAfw6NMXLZ0NcisSXv7lEtrR4+drGVazyZN2qXz47yjsXJ5hJLur1nIffKbF7TSsPrM0fTb/zwVWikfw8WlY6cboWb7aTyfp4mZjhHdORM6MVqXyAkxMzvDk0DsDFmThHL4wVXfkA4USKVwZDjMfyv+3x+MJvqcPRGGtkhrcALS4HoQqOjltdWZP9TgmHIJAscRrWJIl4KlS5E5v/GDE+npcW6L0V0VEds6KxSSfZWNTXMVwA+zd18uYn41ycMbYVEAS4qcXLrjXZ1bCAU+LPb1pD38UJpotsBQJOiXu6WnBLlRHAlU1PkBby8/a1S4hV0pjMnB8DfpGXZrgAVntc7Nu4yuhsC3JLm49b2nymlFWv2LOAChKJJTl+KpK3Kup1iwQDjoovjQuCQIdPwu1cuvkxXAADkxFePR/iUsT4ccCWoJe9vSsI5sYBvxyeoG+khFmAQ2LXmhbuWBU03LZCnD8fITnPtvbVLq5OmLOCGAqL3Nq99Bv2DBfAi6dGGDK4/5/l3egkAafEV9Z1EIomOPTxpflnUZckRIKf/vYSW9v8BJzFvjpYP8lUgbUCc46GAxBLLv/XMXx4UmbgyiLyz/8sPYPqfdWoFRjeAuzbuIqfn7vCSAXWAm5u8XJvd9arub3Jyb4bO/n34fGiu4BAbiHIb8K3v1YwXAAbmz381ae7jc62IHd1Brmr05z+vF6pkhmqjVUY3gIMzcR465NxRgyeBQgCbA562d3diie3kPObK2GOjUyWtBD0hdUt3NTqNdS2WsZwAfxkYITTU5V5C+rJiRlEAfasbedqIsXzJ4ZJlbgU/OH4NM9vX1+x1cBaw/C/wtVEZXfJJuLZjZzpRKrkygeIp9NECkzPGhXDBfDV9Svp9FQmCtZNrV6+mJsFrPa62LO2HW8JGzsBp8RDPR3XNpRmaWpamEeywH5/PWJ4FyC3+5Hb/UZnW5Av9azgSz3lv2747q0BxsP5LZfkEPAWEMYs8Qq3dGZh7wUATU6RztbSGkOnsHz343KJxGP5LUkqkUFymrMU5VtCwLPYAqgg63v8CKkUwpyxiiQJBP2V3wwSBQh6ll/wsgVQQURRYF1HE9XsXFTFptmYQcEW4PU332fbbVuY68oyFU0jJCIIJe2/1S+JMpxCU5kMx0NhBsPlr5esC7iR2wOIOruUggL4zYeD7HnoyXLsqnsEQaCrZ72uZ//pzChvDY0vf2OR3P+pNvb2duh61u4CLGBgMlI1+dWtAERRwhdsobm1Hbe3uvwG7+lqwam3zZ6HSxS5p6tF9/N1OQtwNblp71yNKF6fBkVmphm7NMKCePYWcGdnkM+s8BviOd3lbSppNXQ+dSmA1o6VeZUP4PH68Ab8zExNWWRVPj6HxIbmpf31zKDuBCA5HDichfcimtzeqhDAeCzJG0NjDE7Fys5rXcDNvd2t1xxlS6XuBJBJp8k28wv72OzvrOfImcu8N2qMEPsnZ5hKpNi/qVPX83U3CEyn00RnZgr8JkNkOmy6PYWYiBu7kTS7Ra6HuhMAwPjoZWLR61OjTCbNxJVQXpqV/EFPO2t9i77FpSR6/G4evGFh7KBiqbsuACCdThG6OITD6UJySCRiMdJV0vxD1rXt25/psdoMICuAKOC22pBKkEzESdZ8GJ/K4gCeABQo/E6ZuTQFm9cIklgVrUYqniCTyu9LBVFEEPT1aqLTUdqJkTL2c09PRXnp9GXOGrAXsD7g5qvrV9Lj1/cddpw49uT3gO8Vc7OisR/4ka6SDObETw4zfmEoLy3gD+Jx6ftD9O7fi8Nb/Lw8k0rx8fd/pqusfz47yqmrxoxHBiYjvDIY4hs36zuLUerX5R+BT3SVZHMNn8PYk0nl5FdSc67KxBWNZ4HndZdow5fXdeB3Spw3oAvoCbi5r7tt+RsXQU9//mPgL4Be3aU2OCvdTtOCaCxHySMmVSYKPFYBW2wsQNeQWZU5CvyLwbbYWEA5U7rHgZ2A9VtaNUQ8mWF6nqu4QxRwlukq7pIEXW5hugWgygwqGk8Dtu9YkQyPJfjVR1N5AcadLoFgh7PswBqSKLC1y413ieCWhSh3L+BvgQ/KzKNhGArFF0SXd7olQ6KqpNIZJiKlbzKVtaqnysQUjb3AcSBQ6vOjH51kbODjvDTfinbcrQXejDGP+HRkwUpgMh4jpjMAzNiJU4hNxQd01LW1XIWxacpe1lVlTikajwIvlfLciPYB//vc9/ONcbrwBfTvbF0NF9oGLo7Qzy6UdH85XsHVhCHbwarMEUpcIh798MSCNEmqjpCqjYSR/gCPA/9nYH51R6GgjZm0cU6qTh0h6Azb2VNloorGA8B/A11G5VtPbP6Um2gixUz0+vhBlATaPVLZ00C3Q6TdV3p1Grq1q8qcUzR2A8cA/c7qdYpTEti20ZzYCcViuEuYKvMh8ABZR5OGIhxeuMVbTLROszh1bmxBWkWcO1SZdxWNrwCvAA0TlfFbT73GPTtuxD1nOplOZ7h0eZK0xXGJovEkH526vCC9Yt49qsxrisY+4KeFyvG0LdzCTKdrO+xKMpnmzb5+q80oCSFT4RcfKhr3AS8DecH50ukkxw/+mPDFkevGSBLtN/Ti9FXXWb6CZEC6Yv0hk3KpuAAAFI3twOuAfs+FKqMcl7BqwpRzAarMe8AdQGnLbTYVx7SDIarMSeCzZNcJbKoEU08GqTJDwOeBZ6mGc9plIIgSzmB1zel10G/KGKAQisYXgUOA/t0fi5kaOMvosV+RmqnJJY8RBP7MMgEAKBrdwGHgTsuMKJdUmuS0/l3IAkQSV6eeGvn5W4eNzHQ+o6740PsvfD1hqQAAFA0B2Ad8Byg/7mtt8xrwuCpzzqwCLRfALIpGG/A0sJ86PbW8BGeAx1SZ180uuGoEMIuisQ34AbDNaltMIEJ2QPxMzt3edKpOALMoGvcDB4DbrbalAoSBHwLfVeUC73Q3kaoVwCyKxk6yQqjdgeJ1JoGDwHOqzBWrjYEaEMAsisYOssfY91B7ZxFOAi8CL6gykxbbkkfNCGAWRaMZeAh4BNhBVfraAhACjgCHVJn3rTZmMWpOAHNRNHqAh4FdZJeZjQm8o59BoA94FXhDlan6+CQ1LYC5KBpu4HPA3bnrNoqIelImw2Qr/B2gT5U5W+HyDKduBDAfRcMFbAQ25a7Nuc8NZP0Vi/VUipCt6H5gIHf1AwNWj+CNoG4FsByKhofsaaYA4M99xoGp3BUGplSZ2nZTWoaGFYBNlkZbcrWZx/8DQoU/dYnnBVcAAAAASUVORK5CYII=;" vertex="1" parent="1">
          <mxGeometry x="642" y="417" width="58" height="58" as="geometry" />
        </mxCell>
        <mxCell id="WDh5IYlVzA6w8aevfNZZ-29" value="" style="shape=image;verticalLabelPosition=bottom;labelBackgroundColor=default;verticalAlign=top;aspect=fixed;imageAspect=0;image=data:image/png,iVBORw0KGgoAAAANSUhEUgAAAIAAAACACAYAAADDPmHLAAAABHNCSVQICAgIfAhkiAAAAAlwSFlzAAADsQAAA7EB9YPtSQAAABl0RVh0U29mdHdhcmUAd3d3Lmlua3NjYXBlLm9yZ5vuPBoAABnpSURBVHic7Z13eFRV2sB/d2YyqUM6kEYISAihJIHQBGmiSA2yCypiL+y6uKvrsquuBcXdb8WyigKKYENQQRERdSmCAlJDJyTEhCIkpJBk0pPJzNzvj5uZZJJJMplMC87vee6T3Ln3nPuee9576nveA246zGNnav/ubBmsReZsATo7j6fXDhThhcfSa+9wtizWIDhbgM7KIlGUlWTUThFE4V0gXIQaQRD/qRQ831sSJ5Q7Wz5LcZcAVqI+UzdIhnA3EA4ggBciM+t0taOcLFq7cJcAHeTxM5pHRMRlwJqcfsr7NgiCztkyuXEwj52p3fRImujnbDncOInH08QgZ8vgxo2bToYX4PRqw90IdAx+QAowERgCxAKe9dd0wEXgJLAL2AhcdoKMbuxAILAEqABECw8d8CUQ5wgB3SWAfRCAvwDPISkBAEovBQOGhxMa0YWgbj7IFTLUV6spyqvgzKFcSouqG8ehBVYDCwG7DSy5FcD2+AAfAHMMPwwcGcG0exNIGtsDLx8Ps4H0OpH0I1fY+UU6O7/IQKfVGy6dRqo+ztlDWLcC2JZAYDtSPU94TAAPPn8DyRN6tiuSS1nFrH5hD0d/+tXw01VgMpBqO1El5LaO8DeMHPgCGAOQeEMUL3wyk579QtodkX+QN2NvjUMQIO1gDkilygzgc6DMdiK7FcCWvAncCTB6Wh+eWjmlxeLeEgQBBo6MJCDEh9SdF0DqSYwB1iC1D2yCWwFswzBgJSD0HhDKM6un4eFpm1fbJ6Eb5epaMo/ngzTxVAnstUnkuNsAtuInYIzSS8GKXfMIjVDZNHKdVs8T09dzLq0QQA1cBxTZIm6FLSJxMWRAAjAOGAj0BYIB3/qjKWqkRtZJYBuwBahqx/Nupr7en35fgtWZn5NdwumDuei0evoO7k7vAaHGa3KFjHufHsVzd24CCAD+DvzDqgc14VoqAWKA+Uj1cGQH4ikCXq8/aiy4fz0w29NbwYeH78e3i2ebAZryySsH2LAsFVEvGn+bOKcfjy65EUHWkEVP/f5L0g7lAuQjpbHDbYFroQSIAP4NzKVJenw9PQhSeeGjVODlYT6pOr2e8uo6rqgr0Wh1IJUW/6qPbzaQ3sqzFcAtAIPHRpvN/JLCKn45kY/SU0GfhK7N7ln94h6+XnW8Wbgd69OJjgsh5cFE42+jp/UxKEA3YDjwcyuyWYTTFWBJ2pTuep02SS6ye2HCtsp2BBWAPyFlvrHcjQxW0T8yiOjQLvj7WP411un0ZOQUk5qdz9XyaoD+SC/4FuBQ/W0KpCHa7vXPDzc8e9hNMc3iXPf6QTa8nWoc1PHy9eDhF8YycU4/AN5fvNeY+T1jerF2/SZUKhW3TptEdlYmezZnmijA8Jt7sfL5nxClgmIMnV0B/n10cqhOqzsFQogWjgDJFgZVAR8DMw0/9A0PZGRsOKFdvK2SxUMuY2CPEOIjg/npzGWOnMsHaWBnC1KdOxOYhDSL14zrBnY1Od/2aRqfvXHI5LeayjreWriDmkoNBZfL2fTeMUDK/M3f/0BEZBQA48bfSHZWJvmXTLv8IeF+dAnyNgwZ97MqoU1wbgmgIB4Rw0jJ4EVp4/wW9f+xoo1QocB31CuLv48ntyT2pEeIbVrecpnAhAFRBKu82HbiouF5H7QVLqibafty22dnAAiPiOS9D9dSqlazYP79FBcXsfL53cb7mmZ+1i9n+erL9QD06Bvc7DnB3f0MChBhVQKb4FQF8PPmQGWVsBPEcSC+bUHm+yO11BMBencPYGpSDJ4eth/OSIgOpbCsmmPnCwDw9JDTNzyQqGAVXbyVyGUyDmXnkZlbgiAT8AswLRhyz5UAMD1lFiNGSnaiG7dsY9a0mykulnpw5jI/ZcpNxuvT70to/gKCjSWcTWwJnKoAf+7zfS1w47upQzzmJx+pa+N2OdI0aSLAgKgQJiVGIxPs15EZ1z8ST4UcL6WchOhQlApTRevaxYfM3BJEvUh1hQYfldJ4LaxnAL+cyOf7bzfz14VPEhLalYGDEti4ZRtzZ6fg7+/P5xu3NMv8vCu5AMxbOIIRk3o1k6lcbeyYtKer2iJObwQCWJD5AM8CN4JU39+SGI1gx8wHUMhk3NCv5ZLWR9nw+oryK/BRNZgG3ji7H7+cyOfXixdImTKRr7/bYVSCU2cvmMRjLvPnPDrU7DNLCoz5XmhVoprQWdYFDACeBghReTM5KcbumW8JQX4Nxf7lrBKTa5PvGshNt8cDkJF+hpQpE7laWNAsjvZkfkVpLSWFxo7S2Y6noPMowHLAQyYTmJ7cCw+5a4jdPdAXef1AzaHt502uCQIsePlGJt81EJCUYNqkCeTnXTHek52VaZL5dz7RcuYDHP7hPHqdcbCow11A6BwKMB64ASC5VzdCVNZ18+yBh1xGZJDU+zj8wwW0daZrQgQB/rB4LBNvk0qCXzIzmDV9EiePH2Pv7h+ZMXmiyZd/219aznyAA1uNNiEVwB5bpKEzKMBfAZQKGcOu6+5sWZrRv4fUVSsrrmbr2rRm1wWZwKNLTEuC8aOHkjJlosVfPsDFs0Uc3GZUgC+QZgU7jKtPB3dDKv5lg3qE0jc8sK37HU6IypuzuSVUa7RknSxg8rwBeChNX6sgQPL4aGqq6jh7LF8y/UQaGZy/eCwpDyW1+Zylf/uBnHNqgDrgdqDYFvI7pCVVeXD6NK1Os8//+q3tFfohpHl25t3Qj7BAc5N5zifzSglfH84G4PopvfnHiim01Ea9cqGUtIM5yD1kJI6OIrBr22nasT6dpX/bYTh9C/izTQTHUVWAKD6qkClvtyLkBJC6W66a+QCxYYHEdPUHYN932axferjFe8N6+jPxtnjGz4qzKPNPH8hh2ZM7Dac5wOKOS9yA3RWgav+024CbQXyp+uD05jMmrZMMEBFsWwOLltA1mo5tLzOSexFc30Bd+9oB3nt+d+MWu1Uc/uECL92/xTCZVAPMwkb9fwN2rQIqD06fjyj+FzA03bMQ9Hf4Dv/OEutWJVJDRzEiNowb4mwy9G2WsmoNm1OzuVJSSWSwiilJPds1k2igpKKGdT9nUFUrTdMnT+jJH/81rt1GIjVVdaxfepgvVxwxzPxpgXlIRqE2xS4KUHlw+kxEXgRxoJnLWmCbXC/7i9f1m7NaiSYSuAQwKSGaQdGhrdxqPdUaLev2ZlBc0WD74a1UMH1IL6JDu7Q7vtKqWr46lEVhmbTIQ+kpZ+q9CUy7d1CbilBVoeGnTZl89sYhSgqMjfwS4DYkc3ObY7cSoPLA1CEgvAGMbvSzKCK8KWiFV3xHb85tI4o46o0xpg/pRVyE7VdgV2u0bDiQSb5aGl4dOiCWw6czjddjwwIZ2z+SgHaWBhqtnh0nL5J22dRsr/eAUAaPi6ZbVBeCuvnioZRTlF9JcX4lp/Zd5tT+nKZjCYeQvvxfrEth29i1ChB3jVNUevutEaRuCyLiXX4jvv3EwuCDgBMAKUN7Extm2y5gUXk1mw5nG7/8O6dNYPXix1n/v9388cW3qKyWfpfLBGLDAxkYFUJUsAqZzPJX9v6uNIrKq9u+sTm/Is19rMHYabQPdu8Girtm+1V5V51C5Affkd8+2I6gdlEAURQ5dr6Q3emXqdNJljp3Tb+Rdxb9GYVc6r9nX7rCE0tW8v0e09a8UiEnKkRF1y7ehKi88fPywFupQOWtbDZTCLBmdzp56kqQRu1SgZuAeMw3vi8DO4ENwFak/r7dsftsoDB+Q0Xlganvi4L8a3s/qzW0Oj1pl4pIPZdv/OrlMhn/nH8HTz98u8nkUu+oMDa99TwHT2bw5ppNbPnpILWaOjRaHdl5arLz1CZxC4LA0N7dGBvfoi1qKfUjmkgN4t5I1kYeSHX8RWw0sNNeHDId7ONd97qQ8K1Nhi4NFJZVo9XpCVZ5mf36AMqrNVwqKudiYTnZ+WqqNQ1GtLE9I1n+7AJuGDKgxWcMHxTHuleepLi0nP/tTWX7vqMcPJnB+Zw89I26jKIocigrj/jIYEtM0qqRFny6BA5RAKF9xp6tIoqw6XAWWY2+Qh+lAh9PD+Ry6SvW1Okoq9aY7df3iY5gwZ0zuG/mzXgqLVu6FeSvYu7U8cydOh6Ayuoazl3Ko6C4hGPp2fzzzQ8BUFfVWm2T6CxcwiCkLUQgt6SCvJIq8kurTDIfoEqjpUrTsol8aKA/44YNYu7U8dwyemi7GnLm8PX2YmBsT6AnoUEBRgVIv1xEeZWG7oG+hAW47shlYzqFAmw/cdGk+Dbw78fuQ6fTc+VqMUXqMrSSXT++3l5Eh3clOqIbg2JjGBTrGAOSs7klnM2VDENU3kqXMFppC1dWgADDP40z30OhoE4rnU8cmURC3+Z2c87CQyGnrl4Jy6s1JpecIpAFuKo9gA/ScmsAorqHsvy5R7m442PWLrHJkji7sHbJk1zY/jHLnl1ATKSJ7cIwGobDXQpXVYA3qLf+nTF+JKe/fpcHZk2ie4jr+2MMCw3iwd/dwvEvlzN+mNGsOxBpraHL4YoK0B+4H2DC8EQ+e+0pvDyVbQRxPbw8lWxZ8SLjhxuV4CFstJrHlriiAtwDyOUyGUuf/iNymSuKaBkKuZw3nzSmQY6UNpfCFd/uJIBRSfH0ie74FLC63PohiJpaDTW1mrZvbIW+MZGMTDR++Ld0KDI74IoKEAOQFH9dhyK5lFdI8pwFdLvhNhJnPUL2pSttB2rEktUbCBk1h9DRc3h51foOyZLUz5iWnh2KyA64mgII1K++9fEyuwjXYl5cvpZTmRcASD/3K88u/cjisL9czOG5tz+mTqtFU6fl+WVryLxgvfdWX29jWnxwMaccrqYAIpL3C3690nwVTXsoKFa3et4ahSWliKLpWH9BcanVslzMzTf8m4edp3fbi6spANQ7Q9y+/6hxwMca7p81yTjkKwgCD/zO8uo3uX8siXG9jeeJcb0ZNrCvVXJo6rTs2H/McNqytaiTcMWRwC+BmQVFalau/44/zZ1hVSQpE0ayZ83r7D9+hmED+zJ8kOW+l5UeCnZ+8DKff/8TALdNHouyBRczbfHu+m8pLDGWHl9aFYkdcUUF+BzJGib26Tc/JCn+Oq5PjLcqouT+fUju38eqsL7eXtw/a5JVYQ38fOwMzzS0PTKQHEq5FK5YBdQhDZpoamo1TJ7/DMvWbe5QdeBoNHVa3l67mSl/eMbQjdQAD2JDD5+2whVLAIDdwAPA6ppajfKvS1byn9XruWnkYBNF0HfAjt9W6PVGr958sW0PX+/cz7Z9RylsaHRqgPuw0WpeW+OqCgDwCZJx5HtAbEGRmrVbdprcUFZhUyMjqygpbfBqs/5/u5tePov05dvMtautccUqoDG7kZxD3A18DeQCxk+uSO38DTqLy0xk0CPJuAnJnHsALpz54PoKAFKbYA2Sm7YIIIh6JTiTfdHiSErKKlj6ySbOnm99QCfzwmWWfrKJ4lLLlOtMttGnvx7JhiECuBVYiwvW+U3pDArQlFIgEyA1zfL1Ev9691MWvrqKMXc/wda95lembfv5CGPu/hsLX13F4nfWWRRvasNCkrPYcWsXe+HKbYDWOADE7TlyiqqaWny82l65MyopnmWfbkZdXsmMBYsYNrAvE4Yn0jXIn4LiUnYdOsHBkxkAyGQCo5La7npWVtew96jRwPeA9clxHq7uIKIl9MAdmjotA67rSf/rotsM0K9XD+Jioth54Dg1mjpyCorYezSNrT8fYe/RNHLyrwIQoPJl5QuPMXvSmDbj3Lhjb+OG37PYcQmXvXCpiYl2oERqbAVfnxjPrg+XWBzwqrqM5Z9+w+Zd+8k4d5k6rRaFXE5cryhmjB/BI3dMJzTQ36K4xt2zkP0n0kFyNx+Og1bz2JLOqgAgOYl+CuDbFYuZOLJtNytNEUURdXkl/n6+7TYV37o3lRkLFhlOX0IqATodnVkBgpC2UvPv16sHBz59w2GmY9W1Gkbc/hcyzl8CqVEag7TEq9PRWdsAIC2x0gM3XS0ppbK6hptHDXHIg//+2qrGC0efA35wyIPtQGdWAID9SH4Eow+fziS8a3Bj6xu7sHrjVhYtW2M4/RlplxLnj0lbSWdXABFptPBOwGfr3iP0jYkkvnfbvQJr2LB1Dw8//4bBWKQQmIKTVvXais6uACDVvT8Cd+hFUfnVjn2IwNhkc95prOfttZt5ZPFbhgmoKqTMP2XThziBa0EBQOoSHkQaLvbanXqKQ6fOMiopngBVx9zqX8zNZ94/lrDi8y0Gh01qpL18beKq1dm4ai+gK/AkMJT2LanyQtpTzxNAJpPRK7I7Xfx8rBKirKKKc5fzGk/51gJZWLabmIEqJDO3/8PGLt6uVUKQ3KWI19hxGWlHMpfCFecC/kb9fjiDk4eiUrXfVZsrUV5extHUwyCl6Qnq9z1wFVxRAQYDDEpMYvuP+50ti00YP3ooJ48fA8t3RXMYrjgd7AUQEOB6nsGtpVFaOrbaxQ64ogK4cSBuBfiN41aA3zhuBfiN41aA3ziu2A100wa6h557SoQXgB3yCNkMYdEiq62P3SVAJ0SEx5Fcz02uy9V1yAjCXQJ0IjTzn00Q9PJQ0BtnuOQIo+vmL/JUFHNA2LCo3f5sXFEB2r9XS+fB6rTpHnr2D6JeWNFoYRQAosirgqhH5y/+D5jc3nhdQQHCgJuRLHvGAfax5nANhgEXkOwXdiHtC5BnSUARYXSrNwjCSGsEcqYCDEGypr2Z31ZbJBrJXdw9SJ/zVuAZ4GhrgfSC7HW5qB8gQg+kJWiGqfxyoETao6n9OEsB/gq83Pj5nip/woeMojgrndLL51sO2Ynxj4wh6Lp+5KTuRVNRBpLiT0baSWQhkodUsyhXLjpKvfdU7UPPlQEqAFGUzfBYtehHa2VyhgI8DrwGIFd6MnD2A8TNmEu3+MEIcjkb7rrxmlUAv24RpCz/ClGnI+90KhnfrOP0Fx+g09QqgP8ilQhL24pHhEuCtPWMqJBrczoik6MVIAnpy8c7MIQZy74kLHGEg0VwPoJcTljCcMIShhM39Xa+/tPvqFEXAbyC1D442Vp4USbOFXSyBQjij8K7L3VoOZqjFWAR4CHIZKSs+Irug4Y5+PGuR1jSSFKWb2T9vPGIer0SaYDn1tbCKN9dfALJjU6HcWTjKwjJkpZ+KfOckvnvr3qHvjHh9I4MNXv0jQnn/VXvOFyusMQRxE2fazidhuRd3CE4UgFGUF/i9Jsxz4GPbeCbTRu5WliAWl1i9rhaWMA3mzY6Rbb4FOM7UQDDHfVcR1YBxv59UC/rnC52lP+8+gYfvb+Kmhrzmzl6eXlzz/3t2drQdgT1NvEk395Ntq3GkQrQYBfl7xxzr75x8fx7iUvu24BXgMlmGAEt3WdrHFkF+AMoPL2QK6/l0V7rkHsoUXgaTQYtc1BgAxyuAEq/zm3mbU+UvsbdxR32khypAF3ArQCtoVQZP/xrtwTwVDksbZ0OTycogCMbge4qoA0avZtmClB5YNpiYKKIsNxvxDdrml63FncJ4EK0VAJU7Z8yHGnGcISAuErcN9tmexA6XgH83ArQEo3ejclLkunFqzR4HS3mMh3byapx3LaKyAKkKqCTL/a0J0o/Yy/ARAG8Rn2frReESSAs1oviBGHOBp2tnumoNoAM8AN3FdAajXoBKqR3ZrT/Ug3/Ziew00ywDuGoEsCQIJS+7hKgJRpVAcYPxt44SgGMKfN0VwEt0uTdOORFOUoBjIlRuquAFmnSRXbIi3JUG8CYmDMbP+bXfS37VVT/muUQgZyB+tcsflj0pxavl+eZ7GVwbSrA+d3fO+iRrkdlYR6n1q+y9HaXV4BoJE9eU5E8Zbfmcs7oVauLn0+rO4KXV1aj1dmsl+NSKORyVL4tj+Ho9HrKKqoMpy6tABORNkG0tKFinOccPXgAn7/2dIsbMf7+8Zf4ZtcBMtLPcOLEMQICHDY1bhfUajUZ6WcAmDxmKF/895kW7827Wkz0xLsNpw5RAGv8BEYjWa0aMn8HcBxo7bMNBuYYwjx6ZwqvLjS1adx7NI1HFr/V5p4+nZ24mCiWP/eo2R1JqmpqCRzxO8PpPwDLN0KwEmsUYAXwh/r/7wE+tjBcELAdGOyhUPDL9+8TFipZwZRVVtFv6oNcVZdZIU7nIzTQn/Qtq8xWB37JMw17I/4LafzfrlhTBUyp/7sDyzMfJKfKjwG767Ratu8/yt0zJgJwPD3bmPlz7ryHHj17UZB3hdycy2g0tVaI6DoolZ6ER0TStXsYF8+fY8O6jygsKeVYRjZjhgxodr/K19uwY5nLtgEi6v+a33qrdQ4Z/jHs0QPgqfQw/p88/Hpm/v52K6J2fTZt+JQN66S9hL1b2Nyii5+PQxXAmoEgQ2vfmk/TGEara1jmnNC3F34+Ujvx41Ur0HWifYItRVtXx0erVgDSVz4o1rzhr7+fr/FfR8jlEqtyvTyVPDx7KgCnTx7nvjtmcuzIoU5f/ANoNLUcO3KIe2+fSdqpEwDMnzPVpNRrjH+DY2unDpkGAx8gebd2tpNl99Gxo7A+L03szltDQHJe4GzB3Ydtj52Y6fWZ6wb2B04DdI29noAo05ZqTVkBFYUXMeyeYA0KTx/8I/ohyMwPHmprKqgqyaGupgKxk48KCnI5Hl5++ARGoPCycIZXFEGwzVYO6kunKcjcZzgdAKQ1vm6uF9DbePf0hc0UwE3nQn3pNDtfMy427k0TBTDXCGxQPcEl2ohuOoJpHjYrVszlcEPZLurNXHbTqTDNw2b1trkqINvwz+ktr9I19no7SOXGUTSq/0Ha76hNBKQWo7Nbre7DtscOzFQBLc3hf4O0c1cUYN2WW25chULgcySXMs0cI/w/kkief6iejb0AAAAASUVORK5CYII=;" vertex="1" parent="1">
          <mxGeometry x="822" y="417" width="58" height="58" as="geometry" />
        </mxCell>
        <mxCell id="WDh5IYlVzA6w8aevfNZZ-30" value="" style="endArrow=classic;startArrow=classic;html=1;rounded=0;entryX=0;entryY=0.5;entryDx=0;entryDy=0;exitX=1;exitY=0.5;exitDx=0;exitDy=0;" edge="1" parent="1" source="WDh5IYlVzA6w8aevfNZZ-28" target="WDh5IYlVzA6w8aevfNZZ-29">
          <mxGeometry width="50" height="50" relative="1" as="geometry">
            <mxPoint x="590" y="415" as="sourcePoint" />
            <mxPoint x="640" y="365" as="targetPoint" />
          </mxGeometry>
        </mxCell>
        <mxCell id="WDh5IYlVzA6w8aevfNZZ-32" value="開放政府碳排資料&lt;div&gt;（e.g., 行政院能源局、IPCC）&lt;/div&gt;" style="text;html=1;align=center;verticalAlign=middle;resizable=0;points=[];autosize=1;strokeColor=none;fillColor=none;fontStyle=0" vertex="1" parent="1">
          <mxGeometry x="240" y="770" width="190" height="40" as="geometry" />
        </mxCell>
        <mxCell id="WDh5IYlVzA6w8aevfNZZ-33" value="IoT 碳排感測器&lt;div&gt;（API串接）&lt;/div&gt;" style="text;html=1;align=center;verticalAlign=middle;resizable=0;points=[];autosize=1;strokeColor=none;fillColor=none;fontStyle=0" vertex="1" parent="1">
          <mxGeometry x="386" y="660" width="100" height="40" as="geometry" />
        </mxCell>
        <mxCell id="WDh5IYlVzA6w8aevfNZZ-34" value="&lt;div&gt;使用者輸入參數&lt;/div&gt;&lt;div&gt;（預算、目標年限、選擇技術）&lt;/div&gt;" style="text;html=1;align=center;verticalAlign=middle;resizable=0;points=[];autosize=1;strokeColor=none;fillColor=none;fontStyle=0" vertex="1" parent="1">
          <mxGeometry x="638" y="760" width="190" height="40" as="geometry" />
        </mxCell>
        <mxCell id="WDh5IYlVzA6w8aevfNZZ-35" value="碳政策與技術文獻資料庫&lt;div&gt;（RAG用）&lt;br&gt;&lt;/div&gt;" style="text;html=1;align=center;verticalAlign=middle;resizable=0;points=[];autosize=1;strokeColor=none;fillColor=none;fontStyle=0" vertex="1" parent="1">
          <mxGeometry x="468" y="770" width="160" height="40" as="geometry" />
        </mxCell>
        <mxCell id="WDh5IYlVzA6w8aevfNZZ-36" value="" style="shape=image;verticalLabelPosition=bottom;labelBackgroundColor=default;verticalAlign=top;aspect=fixed;imageAspect=0;image=data:image/png,iVBORw0KGgoAAAANSUhEUgAAAIAAAACACAYAAADDPmHLAAAACXBIWXMAAAOwAAADsAEnxA+tAAAAGXRFWHRTb2Z0d2FyZQB3d3cuaW5rc2NhcGUub3Jnm+48GgAAHHJJREFUeJztnXl4FEXawH8zk2QScpKEEEIIARJIQCQICIZDRS5RcMVbDkGQXZD1WHVXxdXVb9fdddVdWS9AFJFTYQEvQBEUFLnvI0BCCISQm5xzT/f3Rycz05npZHJNApnf88zzTHdXV9VMvV311lvvWw1e2jSqlq5AC9IL6F71PQM404J18eIhooGXkBpcrPHJqLoW3WK189JsDACWASacG77mxwh8DoyibfeQVz3BwGzgCHU3utInDfgT0N7DdfcY16KE9wXmAFOQhMAJlUpFyo3DSBk8FIDDe37h8N6fEUVRKc9yYDnwPnC8yWvspdH4AfcB3wMCCk90UHCIOGnKLHHVDwfFvdlG2WfdzhPitLnPiiFh4XX1CvuRehZ/D//GZuFq7wFigKnAPCBWKVFCr2Qmz/gtD0ydSWBgEGZBRG+2YjAL1HzmTUYDW79ay8rFCzhz4khtZecBS4EPgfON+hUtyNUoACrgNqSn8G7Ax1UiXz8/xoy/i4enz2bYLaNcZiSIInqzgN4sYHXR/acdPcj6FUv4dt0KjAa9Un0EYBuwAPganGSqVXM1CUAo8ADwBNBHKVF0p848+Mgsps2cS0SHKLczN1klQTBanHuF8rISvvliOauX/JecC+dryyYd+KjqU+R24S3I1SAAA5Ce9slAoKsEarWa1BEjeXj6bMbeeTc+Pi47BbewCiJ6i4DebEWoIQmCILD/lx9Zv+Ijtm/agGC1KmVjBL4E3gF+aXBlPEBrFQAtMBGp4V3330BwSCgTJj3AzDlPkdAruWlrIILBKqAzWzFbnXv17KxzbFixhC9XL6WkuLC2nA4Ai5BmEbqmrWTjaW0C0AN4DJgJRCol6psygIenz+buB6YQENCuSQo+dvgAVquVlAE3Ol2rVWk0Gdn53desX/ERe3duq62IUmAN8B/gVJNUugloDQKgBkYiPe2TAI2rRH5aLaNvn8jMOU8xYHBqkxUuiiJ/nf8MH73/bwCeev4Vnn7+LwppwWCRegVLzfEBSDt2iPXLP2Lz+lXodZVKRVYrjYuA9YCl8b+i4bSkAIQBjwBPAt2UEsV3T+DBabN4cNos2odHNGkFRFHk1Ree4pMPF9jOdU/sxfZ9aXXeW5vSWFFeyvdffsGaJe9x7szJ2rLJARYjGZjy6/8LGk9LCEC1UjcVCHCVoFqpm/G7J7ht7J2oVE1fTVeNDzBt1lz+78333M6nrqnk4b2/sObj9/hx80asFsWH3QRsROoVtrpdeBPgKQHwB+4HngZSlBJFRnXkvoenM3XmHDp36dpslVFq/FtGjWPR8vVo/Rtg5KtSGvVmAZNVcLpcmJ/Lt2uX8/kn75N/+VJtOaUhGZeWABX1r0j9aG4B6Ak8iqTYhSslqlbq7nlwWsP+/HrQLI1fA6sgorMI6E1Wp+HBbDaxY8tXrF/xEft+3l7b+kMZsBp4FzjW6Eop0BwCoAHGIxlsblMqIzAomLvufYhps+aSfF2/ZqiGM55ofFl5gMGsrDRmZZzhqzWfsn7FEspLr9SW1QEkS+MqwNyUdWxKAYhGUurmAnFKibon9uL+yTN4ePpsQsM8u8r633/9lTf/9mfZuZFj72DhsnX4abXNWrZZENGZrRgsgpOxWFdRzpaNa/hi6Yekn6r1Yc8FPkVSGi80Rb2aQgAGIGnyDwK+rhI42uWH3nxbsyh17nDLgJ5kZpy1HXuq8R0RqiyNOrOAoLD+sHrJu3y38XMsFsWH3QpsQrI0/kAj1h8a2hIhSA0+D2n93SVR0Z2458FpTHvscWI6d2lgUU3Hc/Nm8vnyj4GWafyamKySIBgtzkpjcUE+X3+xjHXLFnI5u9aH/QzwMdJ0sri+daivAPRD6uIV7fIqlYpht4xi6sw53DZuQqPs8k2NxWxmw9qV+Pr4cuekB9BoXNqcPI5FEDEorD9YLRZ2bv2GtZ9+WJfSWAGsBN4DjrpbtrsC0AVJG52gdE9IaBj3T57B5Ed/R/eEnu6W78UBsXr9weRaabxw7izrli3k688/o7ysRDEbpIWo3wMX6yrTHQFIRVrndqmxXdfvBqbNmsvEex9qMru8FzBbHZTGGhj0OrZsWM26ZYtIO3ZIKYti4A5gd23l1CUAScBeavjWaf39ufM39zN11lz6DxxcRxZeGoPZKlJisLhUGAGOH9zD2mWL2PrVWkxGQ83LpcCN1BLzUJsAqJGkZ1D1CT+tltnznmHm3KcJj1BcrPPSxFgFkWK9shAAlBQXsnLRO6xc9A4mk9Hx0m6kXtzlzbUJwF3AhuqDdu0CWblxK/0HDalX5R2xWCz8unM7Z0+fxGhwktZWj1qtpt+AGxky9GaX19NPn2L71k1YzPW31Wj9/emZ1Ichw25xqTgbLAKlhroXDo8d2M28h8bXXI2cgDSMO1GbAHwB3Ft98Le3P2DKo7+rswJKHDm4jycfmyybh1+tLF65gTHj75Kdu5iVyajBfTAo+w66RffEXryzaDnX9x/odK1QZ8bqQjmsydpPP+SN+U86nlqDNG13ojYBuExVmFRIaBgHzuS6NWeuNn+ahWovasg4c4rJtw+lsqK8zvuvBoaOfoxx970kO3f8wDesWTi3SfIPCg7hyx/20KNnkux8hclKpUnRDc2GyWhgXEocFeWl1acuoeA1rVbIwwfoWH2Q0CvZvcYXoVhnpsxoQW+22pZJ//XKH6+Zxtf4+KMJHMH+/VdknzJ9bwKCmiassKK8jL+9/Jxz2Wr3Zu1+Wn/iE2XC0wkFRxslK40/Dr2Du44YlS4WPXSVFezeYV/i9vULpm/qH/EPdN9jtzUREp6ANsD5//DzD2Pkff+jpOAkolj7U6rTW6nQydOYDflkn/g3VrO0AvzTD1vQ6Spp185ub1N6Wl0RJm8zNVKbOrkpNamZzuxifCrKz5U5QnTqNpIuPSc0ZbGtBh/fdkTGOI/dNTGYRFRFJqfz5UWHKL4o6WoWs5n83MvEd09o8no6Uh+hqhsX+om1huu0WuPXpEVejahVrhU5tVr+39TiQdR0dWn2Ery0ahyHgHikxR4/agQ+5l3O4ZsNX9SZWaULG3Z+bk6jKymKApWlFzDoCjAby/DVhhISnoCff1ij8zboCtCVXcJouIKffyj+7aIIDFEMM5RRWnQGs7GEyJhBuGNVryy7iEFXSFC44gKqjB9/2EzaSbt/QLV52B0K8y7XPHU3UsCKCSlk/jxItfYDFgLT3cq5kcT3vo9+w+a7lbayLJuMo8u4fH4bBp1z8EVoRC/iev2GrkmT0Pi4v6xrMevIPLGK7PQtlBU7W0nbBXcmpvsoEvpORdvOtcUzK209h3e8Boh0TZpEyoiXay0z/+Iv7NnyJIJgITp+FJ36/s0pzcWj/6Qw639u/45G8jHwOw3wMpJDh0cI69CH6LgRtaYRBSun9i7g4Pb5XMk/hsXsOqDGqC8i/+IvZKd/S3jH6wkI7OgynSM5577n102Pk5v1I0a96/A9s6mc4rwjnD+1FrXGl/COzi5rp/a9S2WZtE5fVnSa+OR78PFVXgw7vONVKsslZ9CKkkyiE6ehUslnZmV5v6Ar9VjMSH/AqkbaSKHVYDHr2L15HmePLEUQ3DOp6spzOLLzr3WmO31wIfu2/lGx4V3V5cTutzmwfT6iIO96Q8MTbd9FUeDSue8V8zHqCinKta/atQvujErdKpThKT44BGUEhXalx/XTGpxbeaUVs0WuA1iMRVw+vcit+0VR4MD2F8nP/lV2XuOjJSo2ldDIJDQ+AVSWXaQ49xBlxem2NDWfpppknvyctP0f1Diron1UXyJjBqENCK968g9TlLMfQbBr4Nlnv8FPG0Lf1D/ZznXuMY6zR5baji9lbKL7dQ+5LDsn8wdE0b6sGx2vGO4oI2ngHLQBdS+6mUwCFXrnZWNX5GeswFhp8zDq4YOD9uIf2IH45HvcysgVeUVmjCZ5RQwV590WgHPHV5J7/kfZudiE8Vw35A8uxmKR3KwdZJ5YgyCY6TPkacV8y4rPcnzXG7JzoRE96Tf8ZdpHXeeUvrLsIkd/fl0miOeOryIyZhCd4kdK90cmEdy+O+VXzgFQnHcMXfkl2gV3dsov59x3suPobqPRu+HF17n7GILCFIOmbFToBYpL3Ostr1za4igAqlYzDTQbyzhzcLHsXM/+sxgw8nUFRUxFdNebuWn8+wy9czFhkb0V8z65d4HsiY6IvoFhE5e6bHyAwJAuDLn9PSeD1ck978jy6dx9jMNVkUsZW5zyMuqLnLr/0Igkp3QtRasRgOz0TZiMtsULomJTSR70eKPzrSzLJu/CTtuxrzaEQWPeqlVhA1Cp1KSMeJmQcLslrqI0i/zsXbbj2MQ7ZPdkp292yqdm99+5xxhaR0yuRKsRgMvn5aHVyYPm0RR/VG7Wj7LjHn2noPV3Lx5Brfal1w2/lefnMEQFhnQhNNK+L0FZ8RnKr2TI0tfs/mO6j3arbE/hA+ipCtIszjvG1tV3Njgzi1V0MgeLonvmzNIie0Ruu+DOhHVQ7tLTjy4j++zXTtNDldqXqNibuG7IM6jUklJYWiiP9K1vA3SMG4HGR4vVInnZlBTKp2mxPcZR6nDuUsYWkgZKy8JGfRFFlw/Kf1dkMiaze278u76dg1pd93KNIIgI7umAmA0Fjoc6H6Swo2EAgtVIZVm2ezk1IYLVhMlQZjsOClUMLKK08BQndr+teL2iJJPQyCTiek4EQF9pj7pWqdQEhtQvPkHjoyUgKIaKkkxAshw60rnHWE7ufcfWzWenbyJp4BxA5dz9dx+N1Ku5JwD6itx61bUB7FcDz9PCmxRIvu4Of0otuqk7tgFjjUZyRNWAYUUWySTKH7WAoGiZoaiy7CIlBVKP4Nz9j6EVYQFe8EHaxCgVySLYH2iHJKY2Q7tGo0HrlkOIs2QLgoDRaHSR2o7GR4uvNgSzUeoFKsuU3dnbR11Pz/6zuHjmKywWyf1KsJqwWuw+hn4OY7y/wwxCFAV05ZcIrKWHca6/GV253a7u366DU5rOCbfLNP3sjE0EBHeqof3HENahfvsYBQQE1CuMzvH/N5lMNVdiS5CeMh1wEHgN2F89wOxDchysJghpe1QA+vTpwxNPPFFnBYqKijCZ5OvcBQUFLFiwQOEOO6HhiRRePgBAZekFyorTZRq4I8mD5lUpiRKHfvoLF07b/Fdlc/GQiJ6Q/q3tOOf8NhL7Ta+zPtXkZ/+K1WL38wuJcA56iek+mmO7/mmzFl5K30xgcGeZ9TDG1v27z/z584mOdt/LqKCgAEvVEvLy5cs5ffq04+UuuNhvoNXMAqLjb5Udp+1/3637BKuJ3KzttmO1Wm6779T1Fln6jKPLMJvc23dBFAVO7/9Qdq5TjXoCaP3b0yHGHh9h0BVwuoZNI6Zb69L+q2k1AhCbMB4fX7v70+Xz28g4trzO+84e+QSTwW4/6BA7BI2PfTU7KCy+arlWwqgv5sC2593QJUSO//omJYX2PX7aBXWiY5dhLlN3ThgnO3ZcbwgIiqZ9lOLeli1KqxEAbUC4U9d8/Nc3ObbrDYUnViTz5OecPrBQdjbh+kecUvYZ/BQqB8Uy78LP7Pp6NhUl513WxagrZP/WP3Hu+ErZ+eQbf6/o0RQTf5viknTn7mNpTcYfR1pP6C6QmPIohZf3U3Bpj+3cueMryT77DdHxtxIWmYSPXzD6isvkZP4gm3+DNM668skL69CH5EHzOLnXrosU5R5i29p7iIpNrVoMisBsLKU47yi5WT/Jxn2ALj0nEJswXrHuPn6BRMUOdTJoVderteKWAGRnZ7Ns2bI60xmNRicfQEM9IoBUag0DR73B7k2/50q+PcLZZCzlwukNXDitfG9wWDdShv9Z8XpiygwMuiLOHV9hOycKVvIu7JSZil0RHTeClOEv1ZoGIDbhdicBaEz3v3HjRgICXG6k5hKDwYBQZRHKzXXPhuCWABQXF7Njxw63K9IY/LShDJuwmGO73iArbb3MkKJERKcB3Dj6LXy1IbWkUtE39TlCwntwfPdbWEyKGznaUKt9SUiZTtKAObIhRImOcSPw8Q3EYrbn3RDtv5p9+/Y16L76oLSILiK9KqXJd1BwxyNIpfYhuuvNRMffgtlUjr4i16XSFhrRkz6Dn6Jv6rNofNx7UsIik4lPugdEEX1lHhYX+oWffyixCeMZeNs/iOk2yu25uFrtg0qlsg1hWv/29L/5VXz9gmTprIJIhc5ZsJvZI+jvSP6AMmr7Za8DLzR1LerjE1iNYDVRUpiGoTIPi7kSbUAEwe170C44ppG1ESkrzkBXfgmjvgg//zACAjsSGpns1hOvRHHeESpLLxAVN8zlwpPJLJBb6CzQzewTGIwLO0BtQ8CLyz/6Nj0sIWqJq4tlRiuWqg0Rl7zzOj9t+cp27f0XlxMdKTVOdt5Fnvins2ZeH9QaP8I7Xt+oPFyjIiQ8QdHg1FDCO/Zz6UdYX/7zzCeE+0n/Y/6VHJ79cIbt2pjxd/HEH+U6T6nBYgseffvV5zi85+c6y6hVBxiaeluxOsb1tOeK3mLbETM0XO6wkdg1mbhoyZMlQOtyKyEvbpAQm0RH/3gAggPk+k37iEj6pgyQnSvSmW1u+UHBtelDdprdDqBWy4sQhRZdd2oVKO3zIIryYUGtbv5NrJrdDhAZFoVapUao0uZzs34iN+sn/AOdF1XaCnqDgK6iZnBoAaW59i5bo9YQGRbV7K+YaHYBCGoXzODrh/PrkZ8AyRS7Z4vHwhCuWoZcP5zAgCB0uibdGdaJ2oaAmwff3PW1p347lSvFjXv/0XOP/AWtX8ttyHi14e/nz3PTX/VIWUoCoALW5Bfk9l2/ZjkL3vi/RhXSp0c/Fr60mqhw73uZ66JjRCcWvbyG5G7uxQ82FqUhIBCHHUKyzmcoJHOfm/rdzHcfHmD7vs2cvZCG2eIcHw9gNQpYTZKWdPriMXaf+sl2bcz4u2TbpoiAzmHLlOUL/217k1fHiE5MvOX+BtfXVGG1OSl9u3ctBSWSaVWj0TD798/K0pqtom1GdD49jR3f2fdjGtZ/JMnd625MPx8tiXFJ3DJoLAFa982/jcWji0EB2gDGD7u71jSGMov05wNrd3wqE4CJ9z7EhEkP2I4FUaSg0j5Grlq8wCYAMR268Oy0Vxpc1/Jco83761D6HpsAqDUanv/LP2RpK01WKqoE8buNn8sEYNSQO3ho3AxaK61mOdhLy+AVgDZOiwhAUWkBX+1YS1ZO43WLq50KXTnf7PwfaZkt81Z6jzuEVOormPT0reQW5aD107Lure0kxrWeWDlPYhWsTH7xDtIyj6NWqVny6jpS+7nehbS58HgPcCLjMLlF0rYxRpORHQc8+pa0VkVO/kXbky+IAtv3OscWNjceFwBTjX10laaDbQFzjVfCmFrgv/AqgW0crwC0cbwC0Mbx+CygQ3v5HsGeXh+wCla27v6WLbs2kpEtbRGX2CWJsUMnctvg8ag9uGlKeGgEGrUGa1UIWVR43bucNTUeF4Be8X2Ye/+zrPthBQN738SdIxq+J1F9ycm/yB/emsWhNLm3bVrmcb7asZb+STfy9jOLiYnyzCvuwoLDmf/Y31m87h0SuyYz5Y7HPFKuIy0SGPLk5Bd5cvKLHi3zUNpe5v19KoUlyqHjh9L2cvcfbuW/zy8lOXKQYrqmZPL4WUweP8sjZbmiTegAa79fztT5E50a38fHx+ndgSXlxTz6yr18uWu1J6vYYrSq0LCmxipY+ecnL/Ppl/L9Af38/Lj//vsZOHAgpaWl7N+/n82bN2OuslGYLSZe+/RpMi6l8cTdytFG1wLXrABU6iuY/doD/HxIHqrVvn17Hn/8ceLj4wFJGIYMGUJMTAwrV66kvNz+ZpMVWxeSefksOqN74eRXIy0yBGTlZPDxhveclLGm5EzWSafGj4uL44UXXrA1PkgCEBERQXx8PHPmzCE2Vr5T+K4T20i/1Hz79+YX57L0yw/4+dD2uhM3Ax7vAUorrnDvc6MpqyhBrVKz5l/fcX3iDc1e7qBBg5gxYwZ+fs5xDj4+PkRGRqLRaJg5cyYbN27k8OHDzV4nq9XCQ8/fTnZeFgDvvrCM0UMavktbQ/B4D3Dq3DHKKqT33gqiwN5jdUevNAaVSsXEiROZPXu2y8Z3TBceHk5ISAiTJk1izJgxzf6a++z8C7bGB/j1iGcCcB3xeA9gqRE+brE2X6CIVqvlscceIyUlxe17QkNDsVgsDB8+nIiICNauXWtTDpuamqH0VsG9l0E0Jdf0NHDWrFn1avxqgoKkaN7evXszadKkpq5Wq+KanQVERETQv39/xetZWVl89tlnqFQqpkyZQteuXW3XHLfE69OnD8HBwbLZwbXENdsDhIXV/j6hVatWcf78eTIzM1m92tnoUx3TqFKpCAlxL9DyasTjAhDbMU6mXHWJjvd0FQAoKSmxfb9y5UqtaZtLGYwKj8bP197bdOnYtZbUzYPHh4D4mB68PPsN1m9bxcA+NzFu6F1133SNEtQumDf/sJCPN7xLQlxSi6wJtIgO8PD4mTw8fmZLFN3qGJs6kbGpE1us/GtWB/DiHl4BaON4BaCN0yICcPj0fl5fMp/vfv2q7sTXOOkXT/OPj19i3Q8rXG6339x4XAksvJLP9D/fhd6o59MvP2DZXzcyuO9wT1ejVWAyG3nkJbujikat4Te3PujROni8Bzhz4RR6o30f3iNnDni6Cq2GnIJsmZfS4dP7PV4HjwuAUOPtRjWP2xI1f3tLDAFeJbCN4xWANo7HBaCmXb25nS5aM63ht3tcAOJjuqPR2CcfbXVvAIDoiBgCA+w7ibfEf+HxaWDnqDj+/ewSNv64hkF9Url10Li6b7pGCfBvxwfzV/DZ14tJ7JrMg+Ome7wOLbIYNDZ1AmNTJ9SdsA0wuO/wFrWDeJXANo5XANo4XgFo43gFoI2jNBGVvTs4PCKS3n3l7tVmQbSZLjPPnKIgz/6C5RuSB+Pv509DECwi1e7x+SU5nM9Nt11L6t2XyCj7JgoiYLbazan7f/nRZl4NCAigW7duiuWcPXvW5u/v6+tLYmKi7LrjC6+zs7Ntx2q1mtQRI2VprYKIteq/KC7IJz3Nvudf99hEoiMa9m4jUQCrWcrXaNZzJMMeStcxOobEpN6y9GariFi1wfGZE0cpKS50vOzynUFuCYCXawKXAuAdAto4XgFo47hlCIqOG8HgcQvqTuil2TEYBfKL645VPLf3GUrz6g689fYAbRyvALRxqocALXAf0B9pBuDrmKi0+AxHdjbuvUFe7PhqQ4jreRdBYfFO1wTBTNap/1FWfBbbO2scsFhFDMa6vaj0Zek1Ty0AzEgzgUPAF4BRBXQAtgHX1etXeGkU2oBwRj+0CY2P/G1qJ/f8h7NHlnqiCseAkT7Am3gb3+MY9cVMGONHxxh5QOhrRy56qgp9gX8B5CL1Nd6PBz93/OY+8fwVQcwqEWWfT9Z8Lfr7B3iqHpdVOAw0fVMG8Pf/LMRL8xISGkbXbj0Ur5eXlZKVmeG2l7DRKlBpdG97mdeff5y0owdtxzI7QGBQsNMbqb14nuCQUK7r5/7OaXqLQJnBvb2WAgODZMfeaWAbxwdpCFAB5OfmsHLpopatkZd6YxZE9Gb3hgDHVVtAVAHpgPKA5OVa5qwaWNbStfDSYiwDyeq3GBBoBdMj78cjHwFYCPg6OoR0AVKAhrnyeLlaMACHAY9ZnLy0Yv4fcVvflNKeU1sAAAAASUVORK5CYII=;" vertex="1" parent="1">
          <mxGeometry x="305" y="710" width="60" height="60" as="geometry" />
        </mxCell>
        <mxCell id="WDh5IYlVzA6w8aevfNZZ-64" style="edgeStyle=orthogonalEdgeStyle;rounded=0;orthogonalLoop=1;jettySize=auto;html=1;entryX=0;entryY=0.5;entryDx=0;entryDy=0;strokeWidth=2;" edge="1" parent="1" source="WDh5IYlVzA6w8aevfNZZ-37" target="WDh5IYlVzA6w8aevfNZZ-62">
          <mxGeometry relative="1" as="geometry">
            <Array as="points">
              <mxPoint x="220" y="640" />
              <mxPoint x="220" y="1025" />
              <mxPoint x="240" y="1025" />
            </Array>
          </mxGeometry>
        </mxCell>
        <mxCell id="WDh5IYlVzA6w8aevfNZZ-37" value="" style="shape=image;verticalLabelPosition=bottom;labelBackgroundColor=default;verticalAlign=top;aspect=fixed;imageAspect=0;image=https://cdn-icons-png.flaticon.com/128/2540/2540167.png;" vertex="1" parent="1">
          <mxGeometry x="407" y="610" width="58" height="58" as="geometry" />
        </mxCell>
        <mxCell id="WDh5IYlVzA6w8aevfNZZ-38" value="" style="shape=image;verticalLabelPosition=bottom;labelBackgroundColor=default;verticalAlign=top;aspect=fixed;imageAspect=0;image=data:image/png,iVBORw0KGgoAAAANSUhEUgAAAIAAAACACAYAAADDPmHLAAAABHNCSVQICAgIfAhkiAAAAAlwSFlzAAADsQAAA7EB9YPtSQAAABl0RVh0U29mdHdhcmUAd3d3Lmlua3NjYXBlLm9yZ5vuPBoAABnpSURBVHic7Z13eFRV2sB/d2YyqUM6kEYISAihJIHQBGmiSA2yCypiL+y6uKvrsquuBcXdb8WyigKKYENQQRERdSmCAlJDJyTEhCIkpJBk0pPJzNzvj5uZZJJJMplMC87vee6T3Ln3nPuee9576nveA246zGNnav/ubBmsReZsATo7j6fXDhThhcfSa+9wtizWIDhbgM7KIlGUlWTUThFE4V0gXIQaQRD/qRQ831sSJ5Q7Wz5LcZcAVqI+UzdIhnA3EA4ggBciM+t0taOcLFq7cJcAHeTxM5pHRMRlwJqcfsr7NgiCztkyuXEwj52p3fRImujnbDncOInH08QgZ8vgxo2bToYX4PRqw90IdAx+QAowERgCxAKe9dd0wEXgJLAL2AhcdoKMbuxAILAEqABECw8d8CUQ5wgB3SWAfRCAvwDPISkBAEovBQOGhxMa0YWgbj7IFTLUV6spyqvgzKFcSouqG8ehBVYDCwG7DSy5FcD2+AAfAHMMPwwcGcG0exNIGtsDLx8Ps4H0OpH0I1fY+UU6O7/IQKfVGy6dRqo+ztlDWLcC2JZAYDtSPU94TAAPPn8DyRN6tiuSS1nFrH5hD0d/+tXw01VgMpBqO1El5LaO8DeMHPgCGAOQeEMUL3wyk579QtodkX+QN2NvjUMQIO1gDkilygzgc6DMdiK7FcCWvAncCTB6Wh+eWjmlxeLeEgQBBo6MJCDEh9SdF0DqSYwB1iC1D2yCWwFswzBgJSD0HhDKM6un4eFpm1fbJ6Eb5epaMo/ngzTxVAnstUnkuNsAtuInYIzSS8GKXfMIjVDZNHKdVs8T09dzLq0QQA1cBxTZIm6FLSJxMWRAAjAOGAj0BYIB3/qjKWqkRtZJYBuwBahqx/Nupr7en35fgtWZn5NdwumDuei0evoO7k7vAaHGa3KFjHufHsVzd24CCAD+DvzDqgc14VoqAWKA+Uj1cGQH4ikCXq8/aiy4fz0w29NbwYeH78e3i2ebAZryySsH2LAsFVEvGn+bOKcfjy65EUHWkEVP/f5L0g7lAuQjpbHDbYFroQSIAP4NzKVJenw9PQhSeeGjVODlYT6pOr2e8uo6rqgr0Wh1IJUW/6qPbzaQ3sqzFcAtAIPHRpvN/JLCKn45kY/SU0GfhK7N7ln94h6+XnW8Wbgd69OJjgsh5cFE42+jp/UxKEA3YDjwcyuyWYTTFWBJ2pTuep02SS6ye2HCtsp2BBWAPyFlvrHcjQxW0T8yiOjQLvj7WP411un0ZOQUk5qdz9XyaoD+SC/4FuBQ/W0KpCHa7vXPDzc8e9hNMc3iXPf6QTa8nWoc1PHy9eDhF8YycU4/AN5fvNeY+T1jerF2/SZUKhW3TptEdlYmezZnmijA8Jt7sfL5nxClgmIMnV0B/n10cqhOqzsFQogWjgDJFgZVAR8DMw0/9A0PZGRsOKFdvK2SxUMuY2CPEOIjg/npzGWOnMsHaWBnC1KdOxOYhDSL14zrBnY1Od/2aRqfvXHI5LeayjreWriDmkoNBZfL2fTeMUDK/M3f/0BEZBQA48bfSHZWJvmXTLv8IeF+dAnyNgwZ97MqoU1wbgmgIB4Rw0jJ4EVp4/wW9f+xoo1QocB31CuLv48ntyT2pEeIbVrecpnAhAFRBKu82HbiouF5H7QVLqibafty22dnAAiPiOS9D9dSqlazYP79FBcXsfL53cb7mmZ+1i9n+erL9QD06Bvc7DnB3f0MChBhVQKb4FQF8PPmQGWVsBPEcSC+bUHm+yO11BMBencPYGpSDJ4eth/OSIgOpbCsmmPnCwDw9JDTNzyQqGAVXbyVyGUyDmXnkZlbgiAT8AswLRhyz5UAMD1lFiNGSnaiG7dsY9a0mykulnpw5jI/ZcpNxuvT70to/gKCjSWcTWwJnKoAf+7zfS1w47upQzzmJx+pa+N2OdI0aSLAgKgQJiVGIxPs15EZ1z8ST4UcL6WchOhQlApTRevaxYfM3BJEvUh1hQYfldJ4LaxnAL+cyOf7bzfz14VPEhLalYGDEti4ZRtzZ6fg7+/P5xu3NMv8vCu5AMxbOIIRk3o1k6lcbeyYtKer2iJObwQCWJD5AM8CN4JU39+SGI1gx8wHUMhk3NCv5ZLWR9nw+oryK/BRNZgG3ji7H7+cyOfXixdImTKRr7/bYVSCU2cvmMRjLvPnPDrU7DNLCoz5XmhVoprQWdYFDACeBghReTM5KcbumW8JQX4Nxf7lrBKTa5PvGshNt8cDkJF+hpQpE7laWNAsjvZkfkVpLSWFxo7S2Y6noPMowHLAQyYTmJ7cCw+5a4jdPdAXef1AzaHt502uCQIsePlGJt81EJCUYNqkCeTnXTHek52VaZL5dz7RcuYDHP7hPHqdcbCow11A6BwKMB64ASC5VzdCVNZ18+yBh1xGZJDU+zj8wwW0daZrQgQB/rB4LBNvk0qCXzIzmDV9EiePH2Pv7h+ZMXmiyZd/219aznyAA1uNNiEVwB5bpKEzKMBfAZQKGcOu6+5sWZrRv4fUVSsrrmbr2rRm1wWZwKNLTEuC8aOHkjJlosVfPsDFs0Uc3GZUgC+QZgU7jKtPB3dDKv5lg3qE0jc8sK37HU6IypuzuSVUa7RknSxg8rwBeChNX6sgQPL4aGqq6jh7LF8y/UQaGZy/eCwpDyW1+Zylf/uBnHNqgDrgdqDYFvI7pCVVeXD6NK1Os8//+q3tFfohpHl25t3Qj7BAc5N5zifzSglfH84G4PopvfnHiim01Ea9cqGUtIM5yD1kJI6OIrBr22nasT6dpX/bYTh9C/izTQTHUVWAKD6qkClvtyLkBJC6W66a+QCxYYHEdPUHYN932axferjFe8N6+jPxtnjGz4qzKPNPH8hh2ZM7Dac5wOKOS9yA3RWgav+024CbQXyp+uD05jMmrZMMEBFsWwOLltA1mo5tLzOSexFc30Bd+9oB3nt+d+MWu1Uc/uECL92/xTCZVAPMwkb9fwN2rQIqD06fjyj+FzA03bMQ9Hf4Dv/OEutWJVJDRzEiNowb4mwy9G2WsmoNm1OzuVJSSWSwiilJPds1k2igpKKGdT9nUFUrTdMnT+jJH/81rt1GIjVVdaxfepgvVxwxzPxpgXlIRqE2xS4KUHlw+kxEXgRxoJnLWmCbXC/7i9f1m7NaiSYSuAQwKSGaQdGhrdxqPdUaLev2ZlBc0WD74a1UMH1IL6JDu7Q7vtKqWr46lEVhmbTIQ+kpZ+q9CUy7d1CbilBVoeGnTZl89sYhSgqMjfwS4DYkc3ObY7cSoPLA1CEgvAGMbvSzKCK8KWiFV3xHb85tI4o46o0xpg/pRVyE7VdgV2u0bDiQSb5aGl4dOiCWw6czjddjwwIZ2z+SgHaWBhqtnh0nL5J22dRsr/eAUAaPi6ZbVBeCuvnioZRTlF9JcX4lp/Zd5tT+nKZjCYeQvvxfrEth29i1ChB3jVNUevutEaRuCyLiXX4jvv3EwuCDgBMAKUN7Extm2y5gUXk1mw5nG7/8O6dNYPXix1n/v9388cW3qKyWfpfLBGLDAxkYFUJUsAqZzPJX9v6uNIrKq9u+sTm/Is19rMHYabQPdu8Girtm+1V5V51C5Affkd8+2I6gdlEAURQ5dr6Q3emXqdNJljp3Tb+Rdxb9GYVc6r9nX7rCE0tW8v0e09a8UiEnKkRF1y7ehKi88fPywFupQOWtbDZTCLBmdzp56kqQRu1SgZuAeMw3vi8DO4ENwFak/r7dsftsoDB+Q0Xlganvi4L8a3s/qzW0Oj1pl4pIPZdv/OrlMhn/nH8HTz98u8nkUu+oMDa99TwHT2bw5ppNbPnpILWaOjRaHdl5arLz1CZxC4LA0N7dGBvfoi1qKfUjmkgN4t5I1kYeSHX8RWw0sNNeHDId7ONd97qQ8K1Nhi4NFJZVo9XpCVZ5mf36AMqrNVwqKudiYTnZ+WqqNQ1GtLE9I1n+7AJuGDKgxWcMHxTHuleepLi0nP/tTWX7vqMcPJnB+Zw89I26jKIocigrj/jIYEtM0qqRFny6BA5RAKF9xp6tIoqw6XAWWY2+Qh+lAh9PD+Ry6SvW1Okoq9aY7df3iY5gwZ0zuG/mzXgqLVu6FeSvYu7U8cydOh6Ayuoazl3Ko6C4hGPp2fzzzQ8BUFfVWm2T6CxcwiCkLUQgt6SCvJIq8kurTDIfoEqjpUrTsol8aKA/44YNYu7U8dwyemi7GnLm8PX2YmBsT6AnoUEBRgVIv1xEeZWG7oG+hAW47shlYzqFAmw/cdGk+Dbw78fuQ6fTc+VqMUXqMrSSXT++3l5Eh3clOqIbg2JjGBTrGAOSs7klnM2VDENU3kqXMFppC1dWgADDP40z30OhoE4rnU8cmURC3+Z2c87CQyGnrl4Jy6s1JpecIpAFuKo9gA/ScmsAorqHsvy5R7m442PWLrHJkji7sHbJk1zY/jHLnl1ATKSJ7cIwGobDXQpXVYA3qLf+nTF+JKe/fpcHZk2ie4jr+2MMCw3iwd/dwvEvlzN+mNGsOxBpraHL4YoK0B+4H2DC8EQ+e+0pvDyVbQRxPbw8lWxZ8SLjhxuV4CFstJrHlriiAtwDyOUyGUuf/iNymSuKaBkKuZw3nzSmQY6UNpfCFd/uJIBRSfH0ie74FLC63PohiJpaDTW1mrZvbIW+MZGMTDR++Ld0KDI74IoKEAOQFH9dhyK5lFdI8pwFdLvhNhJnPUL2pSttB2rEktUbCBk1h9DRc3h51foOyZLUz5iWnh2KyA64mgII1K++9fEyuwjXYl5cvpZTmRcASD/3K88u/cjisL9czOG5tz+mTqtFU6fl+WVryLxgvfdWX29jWnxwMaccrqYAIpL3C3690nwVTXsoKFa3et4ahSWliKLpWH9BcanVslzMzTf8m4edp3fbi6spANQ7Q9y+/6hxwMca7p81yTjkKwgCD/zO8uo3uX8siXG9jeeJcb0ZNrCvVXJo6rTs2H/McNqytaiTcMWRwC+BmQVFalau/44/zZ1hVSQpE0ayZ83r7D9+hmED+zJ8kOW+l5UeCnZ+8DKff/8TALdNHouyBRczbfHu+m8pLDGWHl9aFYkdcUUF+BzJGib26Tc/JCn+Oq5PjLcqouT+fUju38eqsL7eXtw/a5JVYQ38fOwMzzS0PTKQHEq5FK5YBdQhDZpoamo1TJ7/DMvWbe5QdeBoNHVa3l67mSl/eMbQjdQAD2JDD5+2whVLAIDdwAPA6ppajfKvS1byn9XruWnkYBNF0HfAjt9W6PVGr958sW0PX+/cz7Z9RylsaHRqgPuw0WpeW+OqCgDwCZJx5HtAbEGRmrVbdprcUFZhUyMjqygpbfBqs/5/u5tePov05dvMtautccUqoDG7kZxD3A18DeQCxk+uSO38DTqLy0xk0CPJuAnJnHsALpz54PoKAFKbYA2Sm7YIIIh6JTiTfdHiSErKKlj6ySbOnm99QCfzwmWWfrKJ4lLLlOtMttGnvx7JhiECuBVYiwvW+U3pDArQlFIgEyA1zfL1Ev9691MWvrqKMXc/wda95lembfv5CGPu/hsLX13F4nfWWRRvasNCkrPYcWsXe+HKbYDWOADE7TlyiqqaWny82l65MyopnmWfbkZdXsmMBYsYNrAvE4Yn0jXIn4LiUnYdOsHBkxkAyGQCo5La7npWVtew96jRwPeA9clxHq7uIKIl9MAdmjotA67rSf/rotsM0K9XD+Jioth54Dg1mjpyCorYezSNrT8fYe/RNHLyrwIQoPJl5QuPMXvSmDbj3Lhjb+OG37PYcQmXvXCpiYl2oERqbAVfnxjPrg+XWBzwqrqM5Z9+w+Zd+8k4d5k6rRaFXE5cryhmjB/BI3dMJzTQ36K4xt2zkP0n0kFyNx+Og1bz2JLOqgAgOYl+CuDbFYuZOLJtNytNEUURdXkl/n6+7TYV37o3lRkLFhlOX0IqATodnVkBgpC2UvPv16sHBz59w2GmY9W1Gkbc/hcyzl8CqVEag7TEq9PRWdsAIC2x0gM3XS0ppbK6hptHDXHIg//+2qrGC0efA35wyIPtQGdWAID9SH4Eow+fziS8a3Bj6xu7sHrjVhYtW2M4/RlplxLnj0lbSWdXABFptPBOwGfr3iP0jYkkvnfbvQJr2LB1Dw8//4bBWKQQmIKTVvXais6uACDVvT8Cd+hFUfnVjn2IwNhkc95prOfttZt5ZPFbhgmoKqTMP2XThziBa0EBQOoSHkQaLvbanXqKQ6fOMiopngBVx9zqX8zNZ94/lrDi8y0Gh01qpL18beKq1dm4ai+gK/AkMJT2LanyQtpTzxNAJpPRK7I7Xfx8rBKirKKKc5fzGk/51gJZWLabmIEqJDO3/8PGLt6uVUKQ3KWI19hxGWlHMpfCFecC/kb9fjiDk4eiUrXfVZsrUV5extHUwyCl6Qnq9z1wFVxRAQYDDEpMYvuP+50ti00YP3ooJ48fA8t3RXMYrjgd7AUQEOB6nsGtpVFaOrbaxQ64ogK4cSBuBfiN41aA3zhuBfiN41aA3ziu2A100wa6h557SoQXgB3yCNkMYdEiq62P3SVAJ0SEx5Fcz02uy9V1yAjCXQJ0IjTzn00Q9PJQ0BtnuOQIo+vmL/JUFHNA2LCo3f5sXFEB2r9XS+fB6rTpHnr2D6JeWNFoYRQAosirgqhH5y/+D5jc3nhdQQHCgJuRLHvGAfax5nANhgEXkOwXdiHtC5BnSUARYXSrNwjCSGsEcqYCDEGypr2Z31ZbJBrJXdw9SJ/zVuAZ4GhrgfSC7HW5qB8gQg+kJWiGqfxyoETao6n9OEsB/gq83Pj5nip/woeMojgrndLL51sO2Ynxj4wh6Lp+5KTuRVNRBpLiT0baSWQhkodUsyhXLjpKvfdU7UPPlQEqAFGUzfBYtehHa2VyhgI8DrwGIFd6MnD2A8TNmEu3+MEIcjkb7rrxmlUAv24RpCz/ClGnI+90KhnfrOP0Fx+g09QqgP8ilQhL24pHhEuCtPWMqJBrczoik6MVIAnpy8c7MIQZy74kLHGEg0VwPoJcTljCcMIShhM39Xa+/tPvqFEXAbyC1D442Vp4USbOFXSyBQjij8K7L3VoOZqjFWAR4CHIZKSs+Irug4Y5+PGuR1jSSFKWb2T9vPGIer0SaYDn1tbCKN9dfALJjU6HcWTjKwjJkpZ+KfOckvnvr3qHvjHh9I4MNXv0jQnn/VXvOFyusMQRxE2fazidhuRd3CE4UgFGUF/i9Jsxz4GPbeCbTRu5WliAWl1i9rhaWMA3mzY6Rbb4FOM7UQDDHfVcR1YBxv59UC/rnC52lP+8+gYfvb+Kmhrzmzl6eXlzz/3t2drQdgT1NvEk395Ntq3GkQrQYBfl7xxzr75x8fx7iUvu24BXgMlmGAEt3WdrHFkF+AMoPL2QK6/l0V7rkHsoUXgaTQYtc1BgAxyuAEq/zm3mbU+UvsbdxR32khypAF3ArQCtoVQZP/xrtwTwVDksbZ0OTycogCMbge4qoA0avZtmClB5YNpiYKKIsNxvxDdrml63FncJ4EK0VAJU7Z8yHGnGcISAuErcN9tmexA6XgH83ArQEo3ejclLkunFqzR4HS3mMh3byapx3LaKyAKkKqCTL/a0J0o/Yy/ARAG8Rn2frReESSAs1oviBGHOBp2tnumoNoAM8AN3FdAajXoBKqR3ZrT/Ug3/Ziew00ywDuGoEsCQIJS+7hKgJRpVAcYPxt44SgGMKfN0VwEt0uTdOORFOUoBjIlRuquAFmnSRXbIi3JUG8CYmDMbP+bXfS37VVT/muUQgZyB+tcsflj0pxavl+eZ7GVwbSrA+d3fO+iRrkdlYR6n1q+y9HaXV4BoJE9eU5E8Zbfmcs7oVauLn0+rO4KXV1aj1dmsl+NSKORyVL4tj+Ho9HrKKqoMpy6tABORNkG0tKFinOccPXgAn7/2dIsbMf7+8Zf4ZtcBMtLPcOLEMQICHDY1bhfUajUZ6WcAmDxmKF/895kW7827Wkz0xLsNpw5RAGv8BEYjWa0aMn8HcBxo7bMNBuYYwjx6ZwqvLjS1adx7NI1HFr/V5p4+nZ24mCiWP/eo2R1JqmpqCRzxO8PpPwDLN0KwEmsUYAXwh/r/7wE+tjBcELAdGOyhUPDL9+8TFipZwZRVVtFv6oNcVZdZIU7nIzTQn/Qtq8xWB37JMw17I/4LafzfrlhTBUyp/7sDyzMfJKfKjwG767Ratu8/yt0zJgJwPD3bmPlz7ryHHj17UZB3hdycy2g0tVaI6DoolZ6ER0TStXsYF8+fY8O6jygsKeVYRjZjhgxodr/K19uwY5nLtgEi6v+a33qrdQ4Z/jHs0QPgqfQw/p88/Hpm/v52K6J2fTZt+JQN66S9hL1b2Nyii5+PQxXAmoEgQ2vfmk/TGEara1jmnNC3F34+Ujvx41Ur0HWifYItRVtXx0erVgDSVz4o1rzhr7+fr/FfR8jlEqtyvTyVPDx7KgCnTx7nvjtmcuzIoU5f/ANoNLUcO3KIe2+fSdqpEwDMnzPVpNRrjH+DY2unDpkGAx8gebd2tpNl99Gxo7A+L03szltDQHJe4GzB3Ydtj52Y6fWZ6wb2B04DdI29noAo05ZqTVkBFYUXMeyeYA0KTx/8I/ohyMwPHmprKqgqyaGupgKxk48KCnI5Hl5++ARGoPCycIZXFEGwzVYO6kunKcjcZzgdAKQ1vm6uF9DbePf0hc0UwE3nQn3pNDtfMy427k0TBTDXCGxQPcEl2ohuOoJpHjYrVszlcEPZLurNXHbTqTDNw2b1trkqINvwz+ktr9I19no7SOXGUTSq/0Ha76hNBKQWo7Nbre7DtscOzFQBLc3hf4O0c1cUYN2WW25chULgcySXMs0cI/w/kkief6iejb0AAAAASUVORK5CYII=;" vertex="1" parent="1">
          <mxGeometry x="704" y="700" width="58" height="58" as="geometry" />
        </mxCell>
        <mxCell id="WDh5IYlVzA6w8aevfNZZ-39" value="" style="endArrow=classic;html=1;rounded=0;strokeWidth=2;exitX=1;exitY=0.5;exitDx=0;exitDy=0;" edge="1" parent="1" source="WDh5IYlVzA6w8aevfNZZ-36" target="WDh5IYlVzA6w8aevfNZZ-40">
          <mxGeometry width="50" height="50" relative="1" as="geometry">
            <mxPoint x="388" y="740" as="sourcePoint" />
            <mxPoint x="518" y="690" as="targetPoint" />
          </mxGeometry>
        </mxCell>
        <mxCell id="WDh5IYlVzA6w8aevfNZZ-40" value="" style="shape=image;verticalLabelPosition=bottom;labelBackgroundColor=default;verticalAlign=top;aspect=fixed;imageAspect=0;image=data:image/png,iVBORw0KGgoAAAANSUhEUgAAAIAAAACACAYAAADDPmHLAAAACXBIWXMAAB2HAAAdhwGP5fFlAAAAGXRFWHRTb2Z0d2FyZQB3d3cuaW5rc2NhcGUub3Jnm+48GgAADbZJREFUeJztnXt0FNUdx793Z7LZPJZNdjfhXR7hqUgID5FACwqCvErr46AtUkWKj3qgrR5bsKDFnkqxipVqhVahvg6KoOCDp61WeZwjIZjKQ0AUCYFNsrsJWTKb7M7c/pHuJpudBEju7N7JzOecPSdzd/Y3dzLfub/f/O6dewETExMTExMTExPDQbQ+gM/nu4ZSOh/ARAC9AWRofUytkGUZZWVlkCQJ6enpZYqiXF1QUFCV7Hq1B80EQClN9Xq9qwgh9wKwaHWcROLz+VBRURHdttlslYSQ/noWgSYXhlKa6vf7txFC7tfqGMkgFArFbAeDQTeAEyUlJdnJqVH70eTieL3eZyml17OyRymFLMuX9aGUsjrsZSFJkluW5eN6FQFzF/B/n38IjMRVVVWF8vLyy76w2dnZyM3NZXHoODweD6qq1Fv7tLS0SkEQBgwdOtSvycE1gnkL8P+Aj4ldRVGu6OInE0mS3OFwWHfuQAsXMImVoWQ06e0hGAy69OYOtBDA91gZEgQBhGj+pMoUvbUEWgggk5Uhi8WCzp07QxAEViYTQjAYdOlFBMxvL6/Xm7A2u7y8HH7/5cVcgiAgJycHDoejzcdrLQhUw2azeUVR7M9zYNhhntEvhSzL8Hg8UBQlYcfUQ0tgGAEAjfmERMK7CAwlAEJIUuIJnkVgGAEQQpCbmwuLJTmnzKsIuA8CL1y4gMrKSlXfTSmNK3c4HMjJyYnb12KxtPuR8kqDQDV4Cwy5bgEopfB4PAiFQqp5fzVRWCwWCIIQ9+Eln8BbS8C1AMLhcEKj9kTBkwi4FkCy/HUi4EUEXP+HI8kbXppv1vAgAu6DQKChV1CtU6iiogLV1dUxZS0FexExZWa2PVPNIghUI5mBIdctQISWAjs1F6EoimrAWF9fj7KyMi57F5PZEuhCAKyglCIcDie7GqokSwSGEgDAd2CZDBHw+9/QAJfLxX3XcqJFwH0QGAgE4PV6VfMBankCh8MBp9MZt28kbmgPV9L93F7S0tIqAWg+5JzrFoBSinPnziEYDKK+vj7u01Im0Gq1xn1Y3PmJbD0kSXJTSk9q3RJwLYBQKMRVJjA1NTWhx4uMMSwuLs7S6hhcC4A3f52RkZHwpJQkSW4AJ7QSAfcCUPPnyYIQkpT6aOkOuA8CgYZgT20kj9frRU1NTUyZKIqqLYcgCHC5XEhPT29XXSilOH36NOrq6tplpy1kZGSU5efnd2dpU2RpTCtEUYQoxldVrSwcDreY7AkGg8jLy2tXLoAQgh49eqC0tDThIqitre3G2ibXLoA1iqIwyQSKoohevXrB5XIlNLHU3tZLDV20ACxhFVgSQuB2u+FyuXDx4kXU1dVpmmZOSUlp15D2ljCUALKyspg/WRBCkJmZ2a5exmTCvQAkSYLP54t7Nx+AamBot9vhcrniygkhsFqtmtRRz3AtAEopzp49e0Vj+UVRTHjCRs9wHQRGBoOaaAfXAuAtE9gR4V4AnTp1SnY1OjS6yAQGg0HVTiG/349AIBBTJoqiarAXyQTqPT5wuVxMrxnXQWAEm82mWt784gOtZwJra2uRl5fXYUcZtwWuXQBrZFlWfZw0MoYSAGAGls0xlADsdrspgGZwHwPU1dXB7/erBoFqvXEZGRmqOXNRFJGWlqZJHfUM1wKglKK0tPSKOlmsVivsdruGtepYcO0CQqEQty9ydBS4FgDPL3F0FLj+D4uiqNtuVr3AfSaQUgpJklQ7haqrq3Hx4sWYMqvVqprtE0UR2dnZSElJYVm9hGO4TCAhpMWhUJIkxQkg8tKIGoFAAH369DEzgU3g2gWwxgwq49G1ANpyJ5t3fyy6FoDdbr+iC5qenq46lNzI6Pq/YbPZ0Lt3b0iSdMmZP0RRREaGbhcs0wxdCwBA9O1fk7ahaxdg0n64bgFkWUZlZSVTm2632+wRbALXAlAUhfm0bE6n0xRAE0wXYHBMARgcUwAGxxSAwTEFYHC4FgDrhR6StWYQz3AtAIvFwmydH5a2OhJc5wGAhkkdsrI0mybP8Ji3g8ExBWBwTAEYHFMABscUgMExBWBwTAEYHE3yAPV1IdRJ6mPztUZMEZCWoT6jiEk8TMdID8f0wfk/GHikZN8xKErylmfL7eHC7AdnYNa8G5NWB61g/WYQM2PDMKM/EeRiANwMvZ394Az8fNntya4GU1gLgFkMYBGUVeDo4gPAm399H1te2pXsanANMwFQ0AmsbLHk+d+9ir3bDya7GtzC8imAq7s/giIr+MOC1Thy4ESyq8IlhngMrA+GsPTOZ3D2lCfZVeEOZgFFgTCVv1WZm9GzX1c8svpeiCnc94LHkWqzoke/rsjJcfP5FKAHAeidnG5OlJf5fnxI3vYuK5uGcAEdhYoyHwiwcUTKtNGsbJoC0B+iouApVsZMAegSOoqVJVMA+oRZZ4cpAINjCsDgmAIwOKYADI4pAIOjm5zor1bOx4D8PqrfUQr4K6px+MBx7NjwMbye1mcVGTl+KO5ZMjum7JWnN2PfzqJWf+dw2jH9zomYdPNYdO/TBemZafCUVuJY8Um8vXYbDu05fGUnxQG6SQWv/WgFRo4fesn96qR6rFj4Aras29niPo++8CBuWTAtpmzrP3fh8XtWtfibMTcOx/J1D8HVJbvFfT55bz8evfMp1AakS9azvRTL25hcuw7nAlLTrFi6ZhHG3jSyxX0Kp8R/N3bKyBbfRB5WeBVWvbOs1YsPAONnXocn1j90ZRVOMrpxAc1547ktqA82DDx1uDrh+lljkOVuWGTSYiF4YPlc7Nl+IO53/Yb0RtdeuXHlri7ZGJjfF8cOfR1TLqaI+P3Lv4bV1jgX4f7dxdi6vmGk0bhpozD1jglR8Vz/o0IUThmBvTtadye8oFsBrH3idVzwN64b+Nzil/F2yYvRu3RQQR6ycxzwV1TH/G7s1Ni7X5EVWARL9LvmAph6xwT07Nctur13RxEWzlwWHfS6fcPH+ObYGfxi+dzoPrPunqwbAXQYF1Dtq0HRf/4b3SaEILdb/DLy46Y2ptHLvvXg4GdfRrfV3MakW8bFbK9esi5uxPP6lRvxwWv/wnNL1mHO6EVY/JMVbT6PRKPbFkANZ+fYeQQCF2pjtjM6pSN/zODo9t4dRag874sGl0OvGwyH045qX010n6FN9q+qvIDjJd/EHVcOy1h615+ZnEOi0a0ABub3jV7gnG4uTL7t+zFPCZ7SSpz7rjzmN4WTR8SMBtq/uxi+8irc99gcAIBFsODaG4Zh19ufRu06nI0rkH35+VeXnJRab+hWAGt2t97M/uOPG6DIsWsNNm3iFVlB0ScluFgjoTYgIT2zYU3BwikjogLIcsWuXN48nujaKzcaPzTn/HcVkMPxy9zwhm4F0BL1wXq8uPx1bFr7YUw5IQRjJg+Pbn/5+VfRpv7QniMonDICQINICCGglMKWHrv2UOSpI8Ire5+Fq7P69DXT8+7CudPlqt/xRIcJAiMsvftprF+5Ma58UEEecpoEhft2Nr4r8PnHX0T/dnd1ov81DRnHYG3syqT2rI63gpluW4CZ/eehpiqAa28YhpVvLomW33rvdOza+Gnc/s0f/267bzpmzJkIALA1e5l03LSROF5yCpXnfTHlTR8HOwq6bQFqqgK44A/go817cPLw6Wj5qAlDUTBuSNz+TR//AMCZm4Xufbuge98ucc14JFPor6hGRZk3Wj5wWB4cTeKCuYW/xMwB8zBzwDyU7D/K5LwSjW4FEIFSitee2RxTNv/R2BdCHU47howaeNk288cMhj2r4UWnpq7CYiG4ef5N0e1zp8tx9tR5CIIFg4bltaX6SUe3LqApH77xb9z/+Bx07pkDoKHjZljhVTi09wiAhsi+abT+/qsfRb+LkD9mMGbOnQQAEEQBoycWYPemz/DOS9vxw7saXzO///E58FdUY+v6nQAhGD5uCJauWRiTKtYTHUIA4VAYG55/D4tWzIuWzVs8GwtnPgYAGNus+V+38i18c/RMTFnJvqNRAQANotm96TN8se8odrz5CabMHg+goW9g2dpF+O3qBwAA1lR9r0TK8O1g1Fx6L+3YuOYD1FQ1riI6buooXD1yACwWgusmFUTLPaWVcRcfAL4+fDpmHMG4qaOiHTzLF/wFX+yL9fHW1JSYi68oNJGzolxgZYjd/AAEZaxstYXaGgmb/74tpuyeJbdjyLWD4MxtDPJaGvRBKcXBJn0J7q5O9BvSGwAgXQxiwcTfYM3y1+Erjx9s8t2JMiycuQxnTp1jcCaXAcFZdqYYMVyY+hoFfsrKXnNyurlgtTXecee+9cR1yqSmWeHu6mwsoIC/shrZOY5oUbW3BoHq2PWGIzicdmRmNb7l7i+vjhvcIYgCBg/vh5yuThCLBWdOluHrw99CUSg693BDtDZ4VY0zga8Uy9t+xsIQuylihJtuIyBvsbJn0hrk1mL5w00sLDFzAYJc8S4IzFkYtIbguEX2bGVljpkAilAUohSPsLJnogolFA8XoSjEyiDT5TPO05PHugj90wkwlqVdkwYIwZMH5W1/Y2mTeSbwUHj0YhD8ibVdg0NB6JMHw6OXsjbMdLqRpgwTps0ihD4Fiv5aHcMQEBwnFA8flLe9p415DRmBESmKkDuLgswihI4ARU8AHa9PlS0BEJwBpQcAyxaL7NnK0uebmJiYmJiYmJiY4H/MnmOL/IBUcwAAAABJRU5ErkJggg==;" vertex="1" parent="1">
          <mxGeometry x="516.5" y="707" width="63" height="63" as="geometry" />
        </mxCell>
        <mxCell id="WDh5IYlVzA6w8aevfNZZ-41" value="" style="endArrow=classic;html=1;rounded=0;strokeWidth=2;exitX=0.52;exitY=1.041;exitDx=0;exitDy=0;exitPerimeter=0;" edge="1" parent="1" source="WDh5IYlVzA6w8aevfNZZ-33">
          <mxGeometry width="50" height="50" relative="1" as="geometry">
            <mxPoint x="375" y="750" as="sourcePoint" />
            <mxPoint x="438" y="740" as="targetPoint" />
          </mxGeometry>
        </mxCell>
        <mxCell id="WDh5IYlVzA6w8aevfNZZ-42" value="" style="endArrow=classic;html=1;rounded=0;strokeWidth=2;exitX=1;exitY=0.5;exitDx=0;exitDy=0;entryX=0.045;entryY=0.658;entryDx=0;entryDy=0;entryPerimeter=0;dashed=1;" edge="1" parent="1" source="WDh5IYlVzA6w8aevfNZZ-40" target="WDh5IYlVzA6w8aevfNZZ-38">
          <mxGeometry width="50" height="50" relative="1" as="geometry">
            <mxPoint x="607.5" y="739" as="sourcePoint" />
            <mxPoint x="759.5" y="738" as="targetPoint" />
          </mxGeometry>
        </mxCell>
        <mxCell id="WDh5IYlVzA6w8aevfNZZ-44" value="&lt;b&gt;資料來源與輸入層&lt;/b&gt;" style="text;html=1;align=center;verticalAlign=middle;resizable=0;points=[];autosize=1;strokeColor=none;fillColor=none;" vertex="1" parent="1">
          <mxGeometry x="376" y="740" width="120" height="30" as="geometry" />
        </mxCell>
        <mxCell id="WDh5IYlVzA6w8aevfNZZ-45" value="- 工業設備排放感測器（CO₂、CH₄、NOₓ）&lt;div&gt;-&amp;nbsp;&lt;span style=&quot;background-color: transparent; color: light-dark(rgb(0, 0, 0), rgb(255, 255, 255));&quot; class=&quot;_fadeIn_m1hgl_8&quot;&gt;溫度／&lt;/span&gt;&lt;span style=&quot;background-color: transparent; color: light-dark(rgb(0, 0, 0), rgb(255, 255, 255));&quot; class=&quot;_fadeIn_m1hgl_8&quot;&gt;能&lt;/span&gt;&lt;span style=&quot;background-color: transparent; color: light-dark(rgb(0, 0, 0), rgb(255, 255, 255));&quot; class=&quot;_fadeIn_m1hgl_8&quot;&gt;耗&lt;/span&gt;&lt;span style=&quot;background-color: transparent; color: light-dark(rgb(0, 0, 0), rgb(255, 255, 255));&quot; class=&quot;_fadeIn_m1hgl_8&quot;&gt;等&lt;/span&gt;&lt;span style=&quot;background-color: transparent; color: light-dark(rgb(0, 0, 0), rgb(255, 255, 255));&quot; class=&quot;_fadeIn_m1hgl_8&quot;&gt;時間&lt;/span&gt;&lt;span style=&quot;background-color: transparent; color: light-dark(rgb(0, 0, 0), rgb(255, 255, 255));&quot; class=&quot;_fadeIn_m1hgl_8&quot;&gt;序列&lt;/span&gt;&lt;span style=&quot;background-color: transparent; color: light-dark(rgb(0, 0, 0), rgb(255, 255, 255));&quot; class=&quot;_fadeIn_m1hgl_8&quot;&gt;資料&lt;/span&gt;&lt;/div&gt;" style="text;html=1;align=left;verticalAlign=middle;resizable=0;points=[];autosize=1;strokeColor=none;fillColor=none;fontStyle=0" vertex="1" parent="1">
          <mxGeometry x="480" y="620" width="250" height="40" as="geometry" />
        </mxCell>
        <mxCell id="WDh5IYlVzA6w8aevfNZZ-46" value="" style="rounded=0;whiteSpace=wrap;html=1;fillColor=#fff2cc;strokeColor=#d6b656;" vertex="1" parent="1">
          <mxGeometry x="844" y="707" width="230" height="70" as="geometry" />
        </mxCell>
        <mxCell id="WDh5IYlVzA6w8aevfNZZ-47" value="- 模擬條件設定（預算、區域、時間）&lt;br&gt;&lt;div&gt;-&amp;nbsp;技術選擇（森林碳匯、生物炭、DAC）&lt;/div&gt;&lt;div&gt;-&amp;nbsp;碳中和目標年限與總量設定&lt;/div&gt;&lt;div&gt;-&amp;nbsp;策略偏好與場景假設輸入&lt;/div&gt;" style="text;html=1;align=left;verticalAlign=middle;resizable=0;points=[];autosize=1;strokeColor=none;fillColor=none;fontStyle=0" vertex="1" parent="1">
          <mxGeometry x="854" y="707" width="240" height="70" as="geometry" />
        </mxCell>
        <mxCell id="WDh5IYlVzA6w8aevfNZZ-48" value="-&amp;nbsp;台灣《氣候變遷因應法》&lt;div&gt;- DAC技術成本分析文獻&lt;br&gt;&lt;/div&gt;&lt;div&gt;-&amp;nbsp;國際碳交易法規與稅率差異比較&lt;/div&gt;" style="text;html=1;align=left;verticalAlign=middle;resizable=0;points=[];autosize=1;strokeColor=none;fillColor=none;fontStyle=0" vertex="1" parent="1">
          <mxGeometry x="732" y="623" width="200" height="60" as="geometry" />
        </mxCell>
        <mxCell id="WDh5IYlVzA6w8aevfNZZ-53" value="" style="shape=flexArrow;endArrow=classic;html=1;rounded=0;fillColor=#FFFF66;strokeColor=#b46504;entryX=0.002;entryY=0.874;entryDx=0;entryDy=0;entryPerimeter=0;" edge="1" parent="1" target="WDh5IYlVzA6w8aevfNZZ-48">
          <mxGeometry width="50" height="50" relative="1" as="geometry">
            <mxPoint x="579.5" y="715" as="sourcePoint" />
            <mxPoint x="657.16" y="645" as="targetPoint" />
          </mxGeometry>
        </mxCell>
        <mxCell id="WDh5IYlVzA6w8aevfNZZ-54" value="" style="shape=flexArrow;endArrow=classic;html=1;rounded=0;fillColor=#FFFF66;strokeColor=#b46504;" edge="1" parent="1">
          <mxGeometry width="50" height="50" relative="1" as="geometry">
            <mxPoint x="792" y="749.66" as="sourcePoint" />
            <mxPoint x="838" y="749.66" as="targetPoint" />
          </mxGeometry>
        </mxCell>
        <mxCell id="WDh5IYlVzA6w8aevfNZZ-55" value="&lt;div&gt;火力電廠設備流程模擬&lt;/div&gt;&lt;div&gt;（鍋爐、渦輪、冷凝器等）&lt;br&gt;&lt;/div&gt;" style="text;html=1;align=center;verticalAlign=middle;resizable=0;points=[];autosize=1;strokeColor=none;fillColor=none;fontStyle=0" vertex="1" parent="1">
          <mxGeometry x="309" y="985" width="170" height="40" as="geometry" />
        </mxCell>
        <mxCell id="WDh5IYlVzA6w8aevfNZZ-56" value="&lt;div&gt;能源轉換過程中之&lt;/div&gt;&lt;div&gt;即時碳排估算&lt;br&gt;&lt;/div&gt;" style="text;html=1;align=center;verticalAlign=middle;resizable=0;points=[];autosize=1;strokeColor=none;fillColor=none;fontStyle=0" vertex="1" parent="1">
          <mxGeometry x="418.5" y="1088" width="120" height="40" as="geometry" />
        </mxCell>
        <mxCell id="WDh5IYlVzA6w8aevfNZZ-57" value="&lt;div&gt;空間導覽與視覺化場景渲染&lt;/div&gt;&lt;div&gt;（含排放動畫）&lt;br&gt;&lt;/div&gt;" style="text;html=1;align=center;verticalAlign=middle;resizable=0;points=[];autosize=1;strokeColor=none;fillColor=none;fontStyle=0" vertex="1" parent="1">
          <mxGeometry x="236" y="1088" width="170" height="40" as="geometry" />
        </mxCell>
        <mxCell id="WDh5IYlVzA6w8aevfNZZ-58" value="&lt;div&gt;與感測資料同步&lt;span style=&quot;background-color: transparent; color: light-dark(rgb(0, 0, 0), rgb(255, 255, 255));&quot;&gt;（IoT 進來的 data feed）&lt;/span&gt;&lt;/div&gt;" style="text;html=1;align=center;verticalAlign=middle;resizable=0;points=[];autosize=1;strokeColor=none;fillColor=none;fontStyle=0;rotation=-90;" vertex="1" parent="1">
          <mxGeometry x="80" y="775" width="240" height="30" as="geometry" />
        </mxCell>
        <mxCell id="WDh5IYlVzA6w8aevfNZZ-59" value="" style="shape=image;verticalLabelPosition=bottom;labelBackgroundColor=default;verticalAlign=top;aspect=fixed;imageAspect=0;image=https://cdn-icons-png.flaticon.com/128/7444/7444259.png;" vertex="1" parent="1">
          <mxGeometry x="372" y="932" width="58" height="58" as="geometry" />
        </mxCell>
        <mxCell id="WDh5IYlVzA6w8aevfNZZ-60" value="" style="shape=image;verticalLabelPosition=bottom;labelBackgroundColor=default;verticalAlign=top;aspect=fixed;imageAspect=0;image=data:image/png,iVBORw0KGgoAAAANSUhEUgAAAIAAAACACAYAAADDPmHLAAAACXBIWXMAAAOwAAADsAEnxA+tAAAAGXRFWHRTb2Z0d2FyZQB3d3cuaW5rc2NhcGUub3Jnm+48GgAAGnZJREFUeJztnXd8VMXax3/PnN00mnReqlwRVLiotCA1oYQaEIV4rxd5aTdwpQWE0GGpgnQpEqRcC/e9JiolEAgtAQIJJSoqFvB6AUWFQAQEkuzumef9I9llNyQku9ndsynfz2c+nz1zzsw8O/Ocqc+cIZRWPv22KoR5PggEkTUHoa1uaC2SFpDWAnichAQdblUdToIXglE9x/cWg5bAqKxCWFOjpvJ5mFKlALod57pKYBWAP+fzyAWScpL68vN7PSmXlpQOBdh1vpHC5sVgDCpkiEOKwhHGfs+dd6tcXkDJVoD4c+V0d+UUEE0D4OtgaBOAd8xm8xyEtbrtBum8gpKpAMyk3/Hla8S8lIFaRYuMboKxwCS/X4ewMNU1AnoPJU4B9NFftIHAGgBtXRz150wiwvxy82MujldTSowC+Ed/UUcVeBPgwXDv/9ojpBifGfbsf92Yhsco/goQezbAJ1M3jsCzAJT3UKoZBH470ydgEfo/9YeH0nQLxVoBfD86F0ok3wbwuEYiXAXxjMyBz38AItZIhiJRLBUg4N9nW7AQq8HoqLUsOZwBYUJGWItkrQVxlGKlABU+PVVVmvRzGBgDQNFanlwwMz4Uwhx5L6zNb1oLU1iKhwJEndX7V8LrBJoHoJLW4hTAPTCW38+8swTDgjO1FqYgvF4Byn30WTdIfhvA01rL4iBXQDT73l9avK+1II/CaxWgQvSZJpDKSmburbUsRYKRwEDEvVdbfqm1KHnhdQpQafuXlaUwTgVjIgAfreVxERJM21lPb9wNa5GmtTC2eI8CJCToKv1ScTiDFwLWZdqSxu8ELL2t9/eaZWevUIBK76d2AfEqEJprLYuH+J6JJ935W+s4rQXRVAGqbztdy6SnjQD6aymHhuzSm3h02jDtho1Cq4QBIG1o62ssaTsYl8FAKXO/MCMu7XLr667JTefwiiagdtTZgEw/jmRCJAB/reVxM0YCbxQm46wbIzpovo6gmQJU+TDlmfTBbb+x9XtsW/LjQohlAA3USi73wh+rhMjbQwLtVhLzygtPoZkCVH3vdAbAMToyT742pL1dNVjt/dOdJWM1Ac9pJZ9roW+Z5MT0IYHxtr6Vth+vrFN9DWCE3/zfNprUfJopQLV/nspC9jj/FhOW3PQvbz80MrCo+vjpwQS8BaCmVnIWkXQinp/mf8XemighQVftsv9wgCxDXvONoYF6LQTUTAFqbDuVxfYTPReYMOnG0EA7i9zHtn3+mB7GaQAi4Lhdn1aYiGmbziRm/jLKfr9B1a2nugii1QA/sEwmmNPKFCAbJj4kJSakD7dvE6tvS3kSoEVAoS17NYGJDylmZeK1ka2/tvWvvvlkIyjKYuQlv+YKwEw1tp0OIchWgKjgjoSYcfP6iMBllusaW1MsTUBeGAG8bfbBgvTBbe/Y3qi+JbkXEa0C0MQdchaB75kwKW1YW7vJnSofplTUmTALjAnI//+arw9va1WA6ltSpgmix9whJIOziDn12vC2sSBiqh11NkDVmXcB6OaOBB+kTP+5NjKwkeWy5pZHKoCFayCede1K260wkLT6Rp3V19SrY8E8B4BbMsoBbjF4wXWzfi1GtTJZfQ0satY9NRSERSjYMtl8bcQDBai5JeUSgAZukdYC4aC+vOwvpKIuIEY3YsCtLnf6hQtXkyS9W6vOqTP/8+6pB9Y/o1qZrg0PXEVkbAxGFDFUt8v/sFMBbCIyNr4+4oWVtoVfe0tKh1p1T50mYAsxahUmPifypmhOorv5jpivI8iX3KhnD/4U+JHXBQRuAfDRWpuTo4WqRv4yqsMVAPhteKc0AKPrbDn1jmS5GkCQ6yR+BIyjgmXE1fD2X9h61956up6U6lvM/AoVoX/lUN4UBcIQHbE2BpVOmFASAa9AKP1qb0pZBtYt/WVUq/sAcHVE4DkAwXXeTRnIxMvgrv9EuETgyKt/bxdj61076mwAhGkKVDVSAAFFTsZD5Q9GDUHM8JSz/5NOx+NPkHOIjBfqvHtyCJitb9rVv7f9uHLFik0EcwQx/+FC2e8LKeeJO/zM1ZG5Cn9zciiR8TwxG4g5QOO8cdjpPFXbPETR060Dxnt1NiWPxcYTE66Obp8MAOezJ5PW1NuSFCPNYi6AkXB+0YsBfCwVnvLryPaXbW/UjkpuIZhXs8qut0z2YJnotJoIcGG6rUF0om7UyQ91Zl3kpTHZS6s/jejwC4BR9TYmvcsk1gBo52C8qQIi4sqotkm2nnXWnapKejkH4DEgKO7IP0+WiS539eMpXJwuAXhNVcwv1X/nxHLhZ1xyKcci96fRHc6CuUP9TckDmXk5gPoFxPUrERmu/PrCZtuhZ8uos/o0Nr7OMM8Du9symT3WDxCeHDrZ4p40uByAuTLT5+v6G04+mHEj4iuj2sWo5Ps0MeYRIzOP8CZivO1rVJ66MqrdJtvCr78huVuaNH4B5tXEqOTuvBHSc2VSEpqAvHgCxNEN3jlxRLAy8b+vt/0SAHJGDYYn1h/dYha6RQBey3l+jxSI+GlU+//YRtJwQ1ITSbQSkB61TC5rAlxHFwlzasMNSVEmHzHn55Ht0gHgP2M6/wRgSIP1SduYpbgyttNh20B1N5+sohilQQL/IGadu4XMnROeLBPPjQJyq7XMw889yeoYGKPLkq8+vuH40nLVqqzKGSng8pgOCXYPG1g0rJ40mLPkcmhpmezBd9JjfQBI+4QJnmvnclxlkrTk/vXfv/zTuqSHqvQG65OCG1Y78TmY3iNGdU/KJnIVuEfTJjA84UQeU8EauSYA731i/fEhFlkarjv+msJ8hMDNtZJLq7zRkTZdAGiVrgVmVLb8FhKVPdrzKgBP5o0HO4GUYXelUefTgrDJZYHsvd3eAjEyPNUR8EgNwISPVJk1wdZP6xogd/5qLo8NZsUcrDcrawG43Tra3fMAvzLx2B/Gd/409w2ta9yH7BM0kSJvLo0J/g3AoCdXH+9LgjeAUc9daQkww01un17VNbuYR+EDcFeahXe2SNW75MnhYkTHPUIYn2fmeHel645hIBPzggu3OvU9Pyl74gUAnlpzvKXtn/PwEPAhB5tPPgpvkMcG27z6bmy3mxdrX+sD0OLsvHVtuq5uArIAvPrdxCDrW1935Un/8jC9BSl7AnjSqgCuTddhcr9zWstjh5QfN1l1dGfWbTn9kiE4E2Fh6gVgZpNVxz4n8Ha48LsJrjQIyRTgAd9NfFDlP7XieOMKMKYSeCyB7fLYk0YPeTlbAwFF1V6eXHlDgjnCvwKdaboywWpI+/3ETh8T1JeIOdNl+eCiquQ+iEO/mRi0zyJs0xWJwQJqMjGeJgYo90yg1lWut8mTlyxAM5aU8vTyo50s976d2GWvAuovGBmuSNcVNQCT5BHfTgw+ZC38ZQl/AXM8MVfJX8u1fesUGw0QUmoqSx41wAMHrirAB5stOxJmuf/1pM4HIOVIl9QAKDpLz08J/rflotmyxAEgfABAk50uJRP2YaJ/2SrB+Sld/sWM5UWNuWhNAJDwTP20WZbImr11OATAvylnirlQ1ZwXVLneJk8+zyiA+KDpssNdLM81bZA2jRiJWjUBRgJej8nZ9dpsxdF6AG0nlj6Fq+a0rXbFQ30A72kCRL7PSR/BFPPcmwmPA0BMWJiqYxFOzFlO54PTGstY+tXk4O8AIMiQoBMmNUYwqhVRyz3m7DLcgyZYhZEHj362ihT416DoaAUAvojsfJEkVjhfAwBwwqWV1/u9aZH3d385mgiBjwqTu7PhZLouc7nxJnkKfp5f+P7HquGW5/WZ9xYBuOlMus41AVJuTp7ULgMAnl98rDox5hdYxT3UBGhb5Qr5YCpQ8QJ57PJGFkJ+YEHTlfurAECqIfS+At7sqSbArFfVdyzCMpleJ0blAsN58bgbqnfJU0hrqaq+Wfp/WMIIlhuIYXa4CYDDUNKZWT1+ArLbfsreeVOGBjDwd0tfIHVa9ysATjgah+MGIYREy8/bvmoQMeoWOqT9RS8wr0b+hzi6FdtRgIDMb0HOA9DXzGqEnQ9z7m5BfjT48WKVTgASAICkTARRZ0dSd7gJUFhNtAoqOciBsPUCFx2yfuzps+ldjzzRKP15Ar9OjJuaNgHajAJugjG2olE8//nMEKtZeuu3EmoRo3ah/wc/2BIvpONzAg53AqVRbz1NUzDaOxBWrzIntlgQb53IiAkLU1NndH/HKDKfFCzfJmaz5zqB9p0SD3b4zARe62MyN/5sZrf1iYZgs7XwFx3oykZzIjHrCh0fuL0lPKu6rx2Vx9HlYPUsjlrX+AkOW6o8pZA43HrhwT1QaMKZ6d1+BICvpvf9HcCENosPrZeSVxLQx8F4i4TnvpdLR6TkiNQ53b+y9W29ML4eQSxixmtOLEtbm+BUHE1vjfZmAIXezOKoTeANGAzWV4fY6c0TfWHmkMD5BzZCmmefMvS+AwCnZ3S7AKBv6wWHuhHzGhCecTL+Anlo7O3OPgDhB4BnnJ7V3e7bAs2XxZfzyxRTwJgKwM85mwSqYf1pMEhacPAmHPiuouMmYbY4Gtbe+TAwnoXuu8D58eEwGKwv4pnZ3Q6pNSs/R+AIMN8uxiZh9yDlvPSKpmanZ4XE2OQbtZl3YJBfBn0L5rlg9nM+jVxtGTO50ySsCmx6qMS44YLO0P+AKSqQ2p0ONBzsYIk7dVQr06nZIWugE0+QxNvk4g9B2doDZE8EudQxMT5gqW90em4Pww/je2dZ0mo9/1DrNvMPJhEQTYx6Lkjrmk0NIIhRxZHwjvYB9EHzEislArcAgICfAPzJsSjypSWIj7U1HNhOOmVa8qyuVwHg9IxuNwFMaGvY/x6Rsprhmi9ycK5rF5qEJTFxxKk5PVJtPQMNcXWJ9EvA8lXXJodfLT/a+HSoTCbp0GZWh+cBTJT1PCzjTuaTADo7FMGjIQCDYTa/1M4Qv4wrVlhqmXJOMfT8DECntvPiQ4mxBkDDIiVED8pASICLvhHjKsAzkuf2sDtF9IWVJ/3pjzvjmWkmWLr8I5wEWL9gIoymP5ODXVqH5wFYJeunVgiU6OKq0+ICwJhLt//4pp0h3m5zRMrcHrG4XaEpSRiIcd/pJiDXQfBFkPU+AfOMMDZONvR8367w5xwYRHfufgtJS4hRwS15pbJ1DkEBdXI0vDNbw7oCWAQAPtAfMbHxKsB1HI2kkDwORkz72fsTCYhIWtDzHAAkr2qXAWBep5nxW80KLyXgL3CwWrXbrKpKuxqhkDARfSTMiDy2KHtq3EI7w4HnSMo1gOyU2/bQlRDwc8a1ailWD4kgR78x6MwQuHNbw77HASB7EoO3OhGHYxCCmJDafk78xo7T46xDz2OLevx0cn7PVwWLjgBSHxGDq0klwZ2S5vX4q23htzPE12g3d18USXkWQKdHhHcJkrE2dVP2F0o7GA7WdyZNZ1YDhU5iqFUIgdXESHdTU2DrFGIexTpxoeOs+Iktw89abQ6PLwg5cUKktCGmEcT4rVBNgN1aQKFluAbwyBMipU2SoZe17W0ZflbfYfa+SULlC0JSeLasbs+PWz6K7yaLDKyqo5xJ10l7AIwNMux4DACSDT3TScoFHpxKfQyQKwNqpH3VfkZcL2spGgwyaUGPrSZFNiHIt6gAMym7qk+ioDSNxLzMpMjGJ+b32mI7GdZxxv4+ATXSviLGCmKu5LF8AKYnGoJvAUDI5PhygtkpK2FndwZVlarfVADTAUDR+6+T5syBANo/OphLaaIIius4a98hSRRxYkHP8wCQM6s4Nciw/12p8mJwwecLKHh4WGiBgUNQecLxN3vbnV/QYfrexopCKxjct8j/xGHo1DElxfr2Z/rxdAJqPCpEvjF1nrnP4V5gDhmkUvPEJT1/AIAOUw/WV3TmL4AHH17wICYw1pFP5vxEw4Bbtjc6z4jvDpKrADS19WeiiGMLe64BgM4z940HsCZXnN+ARcTRxT0O2noGGXY8Jk3+cwk8BtqYvt9QVTUwaUnfHwEgaNr+Rqzw13DyNJWiWAX7Q8gPgwwJOgBIWtr9ikI8sKCq101OT+CJMPpeCJ65L3zQoGwjCQA4urjHQdL7PUfgcWBOtzYBNiZh2X2AbH8wp4N5POn9nrUt/EGDopWgmXtHw+h7UbCMIGa9p/8nmI0K5MuWwh80KFphklHE7OtsnEXdGhaIrPtzLZl0ZGHvIwQeQgzpgU5QXq46JEfdaFT+bPD0uM4WuRINwebERb3X+fmIJ4lpPTGsS7AALPYAZmJar2OfxkcX915ru0zbdcae4BuNyqWSpHeoAMtnNzqzImnokUV9jlmrgkblFwugS5HiDZ4e52wTYIGZ8Vrikt7bLR5B0+JeIcL70Pj0bwI+lkxTEpf0umTrHzRjTzNiUTXhzd5HAaDL1L2dpMLpiYv72p3z02lWfENFqsvAeNmDYueFEcyvJizp84nFI2h63EACooGiTStTl2l7i6oAAGAU4D6HlvS17g/sGrm3Owt8AsAtZxA5QCZAK3Rm5c0Dy3vcK0yAIENCecq6N52YJgHwc7N8BXEbTH89srS3deNtl2lxIQDvggtko65TXaIAAPguEQbYKkHI9NinzKqIIUIz16RRJK4CPO3w0j7bsyu/vGDqEhk3mIiWAFzbs+LlKc95CHrp8Jt9Llh8ukbu7Q7CLrjoiF3qFrnHRQoAAMgC0ZBDS/tEWzxCDbEBGffFOoCHuTCdIsApEphw5K3Q07a+IZP3BkqF14ARqJVktjDhn6r//XGJhrC7Fr/uk2MHsKDtcOH5ytTdtQoAABLE0w8u7bvM9k3rOmVvT0G8Ee4+DatwMID3pUKLAUCochZAg1HE9tRFXCESow/YVPkAU7fIuDkEngsXy0ghU1yuANkRA7t1CobuXdL3d4tfkCG6vO+9crMZPB7at63eRhYRrRcZNG/f2t7WsxK7TT1YidSsrURwy+FeFDI51i0KAABguiSIh+1fHppo6937jb0NzKQuBOhVeNIm0zuRDGzXs5gdt6LPZdsbPabs7cks3wUKvffCYaiHOxUgGwZjG6R+Svyqnum2N3pG7moipTKFwIPhynOBCTuZ+S6BXoH3fqgiC4ztAuqKfStetJtmDorY8ZivolsBwnB3C0E933C7Ali4TkyG63drbbYsYVroHrmrtk6K0cwYDqBItgVE+GTf8tCBANBjyp6OQnIMe9fp478x0RaFaF3csj6/2d4YZIj2+eOu/2gwZgOo5glhqNek3Z5SgGwYF5l45v6V/T7OPRwbNChauVvXvzdIDgOoF5zpJxBm7lvRb7HlMmTSznoKxKcAWhVZdufJItBuVcj3sspXjLedZQQAg8EgTt9uMZCzj5ltlE8cboF6T/SwAjzgWwJWSLPuw31rH1jNWgh6Pbp8OV/fvgBeZlAIgIqFipXojbiVoSvt4jIk+AXc/mMTHhwR4wluMWg/Me/2gbpv52r7RSqLXP537r5GzG9Ao8Owqc/EXVopgIXfmLFRYbEtdk3olbweCDIk6Pxv3QlUBLozoxuAlsi3dqAxe1f125DXnT6TdkeAeRkc2DnjAPcBnALouGQcvX7/1+Opm0aZ8nqw/6Sd9cyMYQC9Do2bJ+obobkCWJAADoJ5G2UosbGbQu/n92DL8Ch9Lb8azYWiBDJzS4CaAfwUgIoMjNi7uv9WAOgzaVewmbPOxa8Ks3Y++46P7QohPwJQtQiy/gHw1wzxpSB8CcJnv9z9NTW/AgeA0PDYAA6QAwAMBdAFXjL6ob4TvEYBbLlPwH4mfJrpm7Xn0NKw24UJ1GvcJ3UB/6x9a3unAUCfCbvnCfDfVMED4la9aN2PFzp2d0PW8Q4wns0VRSayP7WSDuB3BqcDlEbElyHFFRD9Vyjq5V0r+/+c/3TyAwaM+bSqSSf6AOgHUA8A5QudAx6CQsfv9EYFsMUMxhkQHQKrh83wS8mrz5AX/SbsfIsZUwDcBfHQ2DUDrKtpIZPjy/llZXzChB4AwEyz71atuCR3B80RQibHl/Mx3m8rgI4AdeHs00qVAgNqCPXzfgXITRYD5wg4Q4TTDPrCJPXf56UU/cbtWAuisTmXTIz+u9a+GGu5HxoR24Kkmm1NTFRr95r+13LHkR+h4bEB8OemgNocoOaUvYbQEu7pX7gNzc4MKgK+BLQB0AaMMQSGD4xq/3E7LwH4jlWK2L2h/w8AABL+xAwA6Qwav2tt/1jbiBTVHMg5U+vEcjCAFUD2eDzrd9/KrIrKQqhViLkBMzVgovrE3ICIn2Sof4KE4h3LB86j2cGRLkYB8ASAJxSo8yyeQkp/ADv10vSPmA1h1kmXQYZoH1OafjYY02w2Uix/ceyOOQCE6QbKC0gA0mo+TsgxywIAzr4uCWh2dKy7INZZmwKSvHDHhpe+tb3/8thdrcw35LZ8bBQKN9dQgvDcyaGeQm+ynk5mW/jh4VH6NH3NSZLlAnjv+oDHKSlNgBWRKR/qDA4Y9+mzN1X8k1g+p4VM3kxx7AQ+Eqko1l54r3FxvgFqpgFmTEYJbO5cga6kdGasEE8IDY+d7qeYWrM5cwPAbvvOUEmgxNUAYBrvJ4zjwHB8w3cppOQpQDZlZV9ISlwnsAzH8IoVqTK0o6Q2AWUUkrImoJRTNjYu5egInAF23VajMooVJh1JfI5sw4UySh/ndBI8SzAdRtnYubQhwTSFAGDw0OjuRLwacN/n2cvwJug8EUe8v/WVQ3ZvfXh4bMDdu3dct0WrDK/DZNJnxsSEZRT8ZBlllFHyKRUdv2HD/q8eqbTDkTBCNb+4efvgn90lk7dQrEyYnUWYFF8m2dKRMCadrlT0hUqFAgB4+JygAikVlWPpUQBHi7NUvP4oNQqQBWIHd2hlltUAJYqyZe+8KRUK4GvWZanEDp0oourMhdqAWkYZZZRRfCm2PR2DwSCuXXiyktZyAEDNxhdvG2yOkSlOFEsFCA+P0iu3yp0D8LTWsuTwzQ32aR4TE6YW/Kh3USw7gT53KlaXUL2l8AHgmcpqVg3YHONaXCiWCgCUDetcRbFUAHOWyaxT6Eet5bBFMBe76h8A/h/2QZ3kMmA8vAAAAABJRU5ErkJggg==;" vertex="1" parent="1">
          <mxGeometry x="291" y="1028" width="60" height="60" as="geometry" />
        </mxCell>
        <mxCell id="WDh5IYlVzA6w8aevfNZZ-61" value="" style="shape=image;verticalLabelPosition=bottom;labelBackgroundColor=default;verticalAlign=top;aspect=fixed;imageAspect=0;image=data:image/png,iVBORw0KGgoAAAANSUhEUgAAAIAAAACACAYAAADDPmHLAAAACXBIWXMAAAOwAAADsAEnxA+tAAAAGXRFWHRTb2Z0d2FyZQB3d3cuaW5rc2NhcGUub3Jnm+48GgAAEcBJREFUeJztnXt0VNW9xz+/M5PJgyREbgGhIChv4qMVrBatFa1K8XW1S1RQQO3F+gLUW+293lvHdqm1Vy0W7RUUgcjDUr1WUatcr1iFSutbSCDhKchbCCRhJsnMOb/7xwSJzEwyc+ZMZpKcz1qsRc7M/u3fmv09e++z9z6/H7i4uLi4dFIk0w60CX41Bg+nlxHiWMugxBI8HpOulkGOYZEP1AjUWMIhSzik8FXfY9n5zmgJZ9r1dNOhBHBymXap9/JdgZGK9R2Q4xH6ovQBcpI0F0L4Qiw2WYZuFIz1KB80NvDhluulPh3+Z4J2LYCBC7RYDM4XrDEgpwPDAU+aqw0BHyu6ylBjpQ/eWj1BqtNcZ9podwIY+LwOEOVyUR0LnEXyd7bThIF3BVlKmJcrJ8rmDPuTFO1CAP3nal6uj0tUdApwHtnt90eozJZ6FlfeKLWZdqY1svmHZPAiHYpYd6ByNVCcaX+SpA70+Yv6GAtuKtW7Uc4F8pK2IjQayD6vR+tyc+SQFwThLUNY+q08VoiImYqTWSmAgc/rqR5L/13hcsDItD+pcN8IdMQ/Ofc753igMFdCEhn6dqI80L2A2SISsmMvqwQwaLGeLqp+YEymfXGKF34EPocl7DGgOE9UjrTfRoVJPQtkZbK2suLuGvac9hq8yJwvqu/TgRofnG98ANOCugZtfvMOEPi/PUG9IVlbXgf9SpoRszSnrpBbTNFfgbS3MT6jhEwIm+A98tCbizJnb1D7ds+X+xO1k7EeYMhiHVlbpJ+p6Aza3wQvK6g3NeqaKv49Af1NojbavAc4Z7l6d+7gLlX9FeBr6/o7EuH48/97dh/S+p5dxN+ajTYVwLCFOmjHLi1DOKMt623GV8AOIIRyQIUw0CBKF4QSoBAoAXpmyL+ksFr4TIT7dh9SWhNBmwlgyCIdY6LPo3Rtg+q+UPjAQD4APjcttga6smXHJRJIpPDJZdql0eAEy2CAwGBFzwDOAHql1etkiR4BvoEI9+0JaF6PAvlF3O847VMsBi/SO0F/S/rW6atRXYZhvBZSlm0eL7vTUcnQxdpflbMU6yKQMUR6ixZ55YJ0eHKEbgUJNeHD8USQVgEMfF1zjYPWU6hMToP5IKoviBjzevXi3bbeuh0xS3NqizkbtSaC/AToEut7WSIAiCOCtAmg91ItKKzVl4EfOWlXYQ0iT5oeFm8aJwedtG2XIXO0SPO5CnQ6UNr8sywSACL4j35ETIsAIj+Ivgqc7aDZf4jKg5XjeQWRVka/DKEqgxfxYxG9W+GHkF0CABBlSvcu8vTXfzvtUP+5WuLL07+gjs30V1uG/OuGq2WZQ/bahCGLdIyiD71yAd9JZz3d8iXZVmxQOLdngfwNHBZA052/HBjhgLn9iPyy97HMardHs/xqrLtNU9qta42iXCEn+an1hu75DBeRkGMCGDFLc2qKdKnAhalb0wVGyJi+bpLsS91WZln3lZXW4coQKPBJZM8hidZU5ZaeXeS/HVsHqCm2HheVVBv/oCC3VY43FjjiVCfAUqhraEFjElnvD6tQ4IWCprVXEf5DVWc7IoAhC/U/VfXmVGwovCNeubZynGx3wieXJjSyYhgKK18GhC4+6FVM2IDee+sZlfJm0ODFermKJrz7FNNH1aeKa+WCKrfx04anqaUPNcLWarwW1ItyaUo9wLCF2s9UnYP9yWQYkenrxxtPpuKHS+tIsxZqNGFXLbm9izjHtgBGzNKcOtHFwDE2TTRYyJUbrpGldn1wsU9dAxIooIftIaC22Pq1wvdtFg8aKpdtGO82fiapDfItWz3AkAV6pqr+3E5ZUQIgF6+bIMvtlHdxjmCI/KR7gHOWq1cNfRJ7p4ksFZlQ6TZ+VhCykKR7gJ07uRM4xU6FikxfP17+bKdsZ2VfuJq1wY1sa9xJrVkHQJGnkL6+XgzPH0g3b6s70nFRjTd7j2xqXCXCgcrx8sbhyycs0eO8Ya0gztZnK9U9VjXec5ddZ9srdlcCTUxW1nxEebAKjXPyw0AoLRjMmYUjMaTlDtlUqA5GN3dMAQxaoBeLoUshskCjIncGCqksqtGXVLCzv/Ve715ybrtd008BOwIwMXm1+m22N+5K6Pt9fMdyccl5LYogngBiljCEAYf/L3COofpxYa3W2Gz8fabIhM7Y+HZZUfNhwo0P8GXjLlbUfWSrrpgCUKxYz/Z2jnOpqNy48RrZZqNsp2RfuJqK4Pqky1UEKqkOH0i6XGwBiFMHN7WscoK87IytzsHa4Ma4Y35LWCgV9RuTLhd7CMARAVSbYeNuB+x0Kr5s3GG77LaG5MvG6QEkZQEo8m8bJ8qeVO10NmrNQ21aNva0UVN7VUthzfoqnm79my7R2D+jY6dkvOcG+6sLEUdq8EtLL664xKHIU2C7bKEn+eWZOE8BKc8BRg1ebL04bKH2S9FOp6OPr7ftssflJl82pgDEiUmgcoUpunbwIvN+lmi6I3d1GIbnD8Sw0ZkbCEPzBtooF5uUhoBm5IP8clCI6xyy1+Hp5i2htGBw0uVOLBhKN2/y922UAPos0XycfW27QZRyB+11eM4sHEkfX+Lvofb19WJU4am26ooSQFGDY3c/wGeWyPerrpUPHLTZ4THE4OKSczmxYGiLw4GBcHLBMC4qObfVzaB4RG0Hh3MocWD+Xo/qw0V1xgMf3WQvelVnxxCDs4tO46T8QVTUb2Rbw45vbAcfl9uboXkDbXX7zYkSgIbpalNMEYRVKnLD+quNtSlYcWniGG8JZxaOgEInXraKJkoAXqGrzQ4gKCr3V3p5hHGpBS90aTuiBGAZlNjYi/ibmHJD5XVS6YhXLm1GdGdvJbUGEBSVX1RVyQ/cxs9y4tzU0XMAoWuCyxArPCo3rJ0gyW9eu7Q54TjjelQPYGC12AOIEmi663/oNn77IRiOfVtH9wBKSbxHT1GWhXLkXzaNk62OeueSNlShLiRxe4DoY+GxTwMdROXuyvE8nbXhWbKU2sbMxeNWjYSUbanBogQgSNejCrxhikzZOF62McFhDzsBDVl+FDb6MVB1u0ReJa1GZXrVBClre7c6DkKr8RwzSpQADhUbdxXWsczysGLDONmbCac6Eh4Pe8ImPTLtRyxyPLo7qxJGdEQ+3aPfbQjxl5CZXfGHczy6W1Q6VG4GFxcXFxcXFxcXFxcXFxeXlpHKr/TbKjo75dy2hh7y5RDIEQHhf53KbeuSXmTdPus1lLFOGYzktiUskQBUKee2dUmdn31W1iPH4KxcizcfOWXiN14hNprufMcImVBTj9dSBeiF8MTeIGt3B/RMJ+txSYxpFfMm+ry6Tgx9MeTlv47+3Iudbr8VTCsSlLgo9+tLh3Pb3tIjX551uj6XaKZXPNfLVPMPqvLPh68pGvX2aNpSxx7ObduMw7lt70tXnS4RppWXXWmptUY40vgAqtFJttKaOLLeVAo939xwbMptm99SMkMXe9y2bk5vw/Q8peglsT4X0SgBpDV5dCu5bf3prLtToSpTy+dNMUzvOpCYjQ+AEBVGLK09gBO5bV1aZvrauf2tirJnQM5r7bsSYwhIb/r4xHLbJpzq3KUZTXe9ZRmrgVYbH0BjDAFtnj4+BvfsCSjunCBx7vj82RPMyF0/OplysXqAbBAAuCJICL/6jf0V/X9qIo9hJ2C3SNvOAZLknr1BDR6d29Ylwu2r5w3YXyFzaEpJawdLraztAYDII+LeQ7qjeW7bzo5/+XLv/p5bb0V5ELAfQw4wPEYbTwIh6UPxKszcHdBR6XGmfXFH+bzS/T22rkSZQYqND0DIEzUEpF0AoeSjTeQKzFfVnDS4026YVl52uol8BHzPKZtGibcm6ppTxuNxqFFpNEm2Jxi4J8BP0+NR+8BCS4HcVr+YOI2/6zsuePTFtM8BUs1t21nPE+wanj+/d0WgnyI/B/JTtSdErwJCW8wBWkMjIgmFlS9rYHsNWBCmKbdtpt3LFH+ScebjpZPvM8U7TIT/SdWeQtQEELJBAE3Ey22bWa8yz5PDJ3zx+PBJP1F4PxU7IlkugFi5bRXOyZhDWYRf/YZAUSo2VLN1CIhDXQMSyNK3atuafWv73wScmKKZ9iUAiOS2zbQPmWba6kU9ReWB1C1FbwSBg08B9Sb8oymawPe6Q54DAeKDodRnv+0dNcKPYj9DezOiN4LAIQHUheCuv8POQOTv3gXwyOlQmOJSTshKIX9KB+D21WVXgDoSmEfjCMCRIWD++iOND7AjAGUOBJDTbI6tkmZurVjYTwx9xmbxqCP4sY6DgQMC2FQLb22Pvr5sO2yMWnh0SQT/8uVeD+FF2Oj6Fd70FOd3VThVRd45cl03xPp+ykPAM+sieWmPxlKYXQm/OS2VPFidk+oe2x5FbS2C1RnIlKYl30+A0dPWlF2oYnWdOXzya7EKpCSAlbtgTXX8z9dWw/u7YVRWRcfJbqatmXeHolPtlBXE/3jpxG8E8Xz8xIlvtlTG9hDQaMHcBMb5OZXQ4CaQS4jb15RdoiJRb+8kgiCrg8Hg75MtZ1sAL22GPVF7S9HsrYc/b7FbS+fh9tXzLhDRP2IvSbdliTll9sibkn7/0pYA9jXAC1sS//4LmyJCcInN1IqysWLIy9je9dOHZg6/fpWdkrYEMK8KGpLYpG2w4Dk3rnhMppbPvwzVl7D9jqa+121PP7/d+pMWQOUBeHdn8hX9dSdUtDBh7IxMrZg/DXgB+2n69nkta4J/9GjbEYmTegpQ4OlKe7FvD5d99HQwOvlzob98iW8/gT+g3JiCGVWV6x876YZtqfiSVA/w9naoirmelBgba+AdG71HR2Jaedlx1QTfBkml8QG9d+aJE5em6k/CAqg34bmYa0nJMa8KAlkeQj1dTCsvu1LRTxRSCpahwtO/L538kBM+JTwEvL4N9jekXuGBRnhzO1zeifKK377+2e40emYqelXKxoRXdw3Lv9kBt4AkeoAttU5VCV8kYcuv/qw+s9ASUz6clTO1Yv40afRUCaTe+LDKF5Kr/yTjHDsom/CPW9rNqSqhNInsxPsrjv/4tvL5P3au9rZhakXZ2Lz83E+bXupwIh/zCvV5Ljw6yFOqyLqvrIQm9ZZGtniXbY/s/9uhMAfG9IFrB0Y/CZgK1cHox4MltYcTluh7Kjw8c9ik17M1b5Ff/cb+tcdfhnIv4FiuV4G3c8JyqdOND0kIIN20LoDDaIWoMcPKNf44c9C1WbHhfPPnC4/xecPXWMotAqXOWpc3PMV5V8R6qcMR6+1PAF8TAF4UMZ4LBgLv2FkHTwV/+RJftdaPxtBJqlxOGqKtoTzTTfJv9ZeOa3TcdhPtWQBfI8hBC33DgFdNj6x8YujEzenw8bZ1c3qL6R0jyFjQ84HidNQDhBW9a2bp5KR395IlewRgQXW9PQHEYBfwd0FWWRZVHsPcZPpyNiU6ZNy9bk5RvZXTTy2OF4OTUT0NGAl8244zSbJfhatmDp/0VhvUlT0CaAjHTrJoUwDx2AtSC1oNGgBpWtnQXJAC0HyQXjhyCtcWKyyPTExXDxaLrAkQES+3rcN0B+0e+W/z+oToa21KCHhw5/D8Xzv5jJ8IGRdAa7ltOwFrDKzrZpRe/2kmKvdme27bDkwd8Kj6Dj40Y9BUBxbZ7eHN9ty2HRAL5dlGU+596pSJezLtjDfbc9t2IBThNQPjvhml132caWcO483m3LampGXxq62xEF63TLn/iZMmfphpZ47Gm5fDmAayM7ft5sZtP1NhrCjXAIWZ9ilJDoA+bxryuyeHTarKtDPxaBeHs+7YtiTfqqm/WNEpROLiZqvflsD7ipb5wsbCdGzeOE22/pBxmb52bn9LjctEuVThB0Cmw8k1IPwVeF1UXjr6zZxsp90JoDnTP5lboj7P+ag1SkXOAE7F/gnbRAkB5aCrQN7wheWt9nCnx6NdC+BoJm+em1dc5z0Vj3Ua6CBROUFhANCf5IXRAGyN/NMtgnxqifVhbT6fzjv++g7zmkuHEkA8/Oo39n0+sLf6QseI0gWMQsPSrojkgzSoaFihFpGQR6UW2Dlj2LW7svXgiYuLi4uLiwP8P/tis6VCEPOzAAAAAElFTkSuQmCC;" vertex="1" parent="1">
          <mxGeometry x="458.5" y="1030.75" width="54.5" height="54.5" as="geometry" />
        </mxCell>
        <mxCell id="WDh5IYlVzA6w8aevfNZZ-63" value="&lt;b&gt;數位雙生模擬模組（Unity-based）&lt;/b&gt;" style="text;html=1;align=center;verticalAlign=middle;resizable=0;points=[];autosize=1;strokeColor=none;fillColor=none;" vertex="1" parent="1">
          <mxGeometry x="291" y="891" width="210" height="30" as="geometry" />
        </mxCell>
        <mxCell id="WDh5IYlVzA6w8aevfNZZ-65" value="&lt;div&gt;森林碳匯模組&lt;/div&gt;&lt;div&gt;（面積、氣候、成長週期）&lt;br&gt;&lt;/div&gt;" style="text;html=1;align=center;verticalAlign=middle;resizable=0;points=[];autosize=1;strokeColor=none;fillColor=none;fontStyle=0" vertex="1" parent="1">
          <mxGeometry x="548.5" y="989" width="170" height="40" as="geometry" />
        </mxCell>
        <mxCell id="WDh5IYlVzA6w8aevfNZZ-66" value="&lt;div&gt;生物炭模組&lt;/div&gt;&lt;div&gt;（原料類型、碳固定效期）&lt;br&gt;&lt;/div&gt;" style="text;html=1;align=center;verticalAlign=middle;resizable=0;points=[];autosize=1;strokeColor=none;fillColor=none;fontStyle=0" vertex="1" parent="1">
          <mxGeometry x="702" y="989" width="170" height="40" as="geometry" />
        </mxCell>
        <mxCell id="WDh5IYlVzA6w8aevfNZZ-67" value="&lt;div&gt;DAC 模組&lt;/div&gt;&lt;div&gt;（捕碳效率、能源消耗、成本模擬）&lt;br&gt;&lt;/div&gt;" style="text;html=1;align=center;verticalAlign=middle;resizable=0;points=[];autosize=1;strokeColor=none;fillColor=none;fontStyle=0" vertex="1" parent="1">
          <mxGeometry x="608" y="1087" width="220" height="40" as="geometry" />
        </mxCell>
        <mxCell id="WDh5IYlVzA6w8aevfNZZ-69" value="&lt;div&gt;&amp;nbsp;輸出：總封存量、單位成本、技術效益比較&lt;br&gt;&lt;/div&gt;" style="text;html=1;align=center;verticalAlign=middle;resizable=0;points=[];autosize=1;strokeColor=#d6b656;fillColor=#fff2cc;fontStyle=0" vertex="1" parent="1">
          <mxGeometry x="591" y="1161" width="250" height="30" as="geometry" />
        </mxCell>
        <mxCell id="WDh5IYlVzA6w8aevfNZZ-70" value="&lt;b&gt;支援「組合模擬」與「多情境參數」操作&lt;/b&gt;" style="text;html=1;align=center;verticalAlign=middle;resizable=0;points=[];autosize=1;strokeColor=none;fillColor=none;" vertex="1" parent="1">
          <mxGeometry x="579.5" y="891" width="240" height="30" as="geometry" />
        </mxCell>
        <mxCell id="WDh5IYlVzA6w8aevfNZZ-72" value="" style="shape=image;verticalLabelPosition=bottom;labelBackgroundColor=default;verticalAlign=top;aspect=fixed;imageAspect=0;image=data:image/png,iVBORw0KGgoAAAANSUhEUgAAAIAAAACACAYAAADDPmHLAAAACXBIWXMAAAvPAAALzwFI68pfAAAAGXRFWHRTb2Z0d2FyZQB3d3cuaW5rc2NhcGUub3Jnm+48GgAAIABJREFUeJztnXlYU8f6x79zThYCCYQdAYm4gQug4AYICWBt1dbWqq3a7XbR1lZrt9v2tna7be3trt23a/fl1rZ2cW0rsiiiCChSdxFEdmTfk3Pm9wfJIUAgIQmi/eXzPHmenJM575mTec/MvO+8MwM4cODAgQMHDhw4cODAgQMHDhw4cODAgQMHDv7OkKHOgLU4x8UNY4hU2dRcexrZ2dqhzs/lymWnAG7xs4N56D4FgVp/qoIQ8khDyq6v7Hkfl6QkX0ZLRwHUC4AXBdPMEtQQlp6sS04usue9hpLLSgF8Z892aWnX5QIY0+MnCkLmN6bs2mKLfLeEhCiOJ7cRIBHAePT9/1ygwE5CyKbGxrqtl3MNdFkpgDw+8RlC8GwfPxc2OktDsX17+0DlusUnzuYJfQogM63IViEFXmki/MdISdFZcf2Qwg51BixFHhfnTRj2WwBSAHAPUu6JviO6rjCz0Aediqx00uqq2osK91sqU6HReElVIz+kBK8CJMhEEh3DMFXOUmkpgGZKqQiApEcaJQHmSUCuFgerDmgLC8utfMQh4bKpAeTqpA0E9H79Yet1r19bJ/dyGfbr41v2NZQ1ROvPV4vbpKNq9m9vMCfPJX5WGEP4bQACjc/LpNJT18TFldx57dW+0ydMDGEYwhj/fqKoqOjH5JTijb/85lJZVxsBwPj3NkrI7U0pu76z4VEvKpeFAig1mhEcZY5D//YHTg5I0Tyg1gBAQ1lD4a+Pb/GH/s0koP9uSN39TH/y5AkJasKTXwC4Gc7JnKQnX159X+1tc+dOI4RY9L/knjx5+qa1z9Scr6ycZnSaEoL7G1KS3xnQQw4Rl0UTIBoR/A4BmQwAIKTuyrVX+IkkIicAkCqkyrIjZXtbaltUnalJlDhY9am2sLDJlCyFRhNKKLMLXYVP1ZGRaZkb/xsWFRqqsrTwAWCYp6fHfYsXBUjF4r2puYc80KmEBMBVTiOCT7UXnc239pkvFpd8DeCSkBDB8CQH+qp2TMLo1On/mKY2TtNS21L945qfnQmBMwCA4rXGtOR/9pTlPmuWm07LHwAwVn+Kf27F8n0PLlsSa2s+M/Lyjs194GFfnuc9OrOAFlBmSlPan8cAABqNk7NW7EFY6kko5TiWa2hNSSnpTDp0iAZTuFKjGcFTJo4nTHFTyp+psOJhGZ6sg77wCUtKp9wUOa1nGmd3Zy9VVEDKuZwSDQCAYKQpWZyOexEghsKnj992a8aDy5ZY0/PvRUx4+LgdG948Pnv1GhkAGQGcQfj/KdRJ+wAaC4pxEHGMPn8QUQZydWILAQ4Rgt0coZuad+8+bI+8DIRBawJc45Nu4kF2AVhEQP8hHRE8rSNY9T8UFvKWypAnJKgJJS8ajsOvCzs8bMKwUabSBkQG+pYcLtlPdXy5jtM90FFYWGX8u0v8rDACfAy9Mk0dH7rnk7VPxFn3dKYJ9PXxEotEB1Jzcg0WhS+AKAAGS6UbBBADGA4gnlByj3RE8Dxp8MiqjsKzx+2Zr/4YlCbARaPxYyhzCoC8x+0ebkzd9YalchTqxAwA0QDAitiCGz+6IYhhiblaiyeUj3oveMWhbrLik34AoQsBQMSyJUW//eymcHaWmxZhG6MXLMyprK2LtEHEbkL4FQ0pKaftlqk+YMwnGTgsZZ5Gr8IHALrWbeZMd0tkyBMSFkJf+AAw7dYp1eYKn9NybQ0VjSXn88pXKzUapeG8QqPxAqHXGI5X33BDwWAVPgBsf2u9F8MwFQA4D1fXw7fMnZO6+dWXj+R982VJ5e/b2wp/2Vyb9vEHpz/416NZMRHhaSIRW9pDRAKlTI5ck7RosPJowO41gKtGM5pS5ig6qzcoA5V7687XTYXgQKHrGlN3P9mvkMWLWUXlhSMAxgGAWCb568b3F06AiQ56R2tHQ/aXObnncoq9tK3anu7bEgL8ylNwhGAVABCC2vLt26QyJ6mzzQ/bDzqO0+k4TuckkThZkv6bnTuzHnxjg7K1vd3Yzc0T4IGG1OS3Bymbg1EDkBegL3wCUnPlk1eE+4T47DP6/UGZRhPYx8UAAEVl9Z3QFz4AzLw3mjNV+Hmb8/ZsuudH3Zm9BWptq3YCeit0AAVWGgofAMLHjMkf7MIHABHLiiwtfABYduWVU8u2bx11z/XXpQIwjC0wFNigUCfePji5tLMCuCQkRFBKFhuOxyaNPSJ2FiviVsVOBKGN+tMyEcjaPoVER8sA8pQg09P5QEB4QHi3NJTSnet2peX9nD+TgnoMJI/zYmMGpdmzBwxDmFfuX63+bt0LxxnC1OpPEwAfuMYl9rJ+7HJPewpjebxmkMmw7PnIZZNnAIDMVeapmqrKFhJScpc8ftY4UzIUUtkadLlnufg16l4FnPbOntSqExXxRqfao8Mmpm36z7q8wl8211b9saM96/ONRfctXpgmFokKjdLRRYmJpnz+lxRzY6LDtr/1RjmAVv0pCWXwNTQai2sUS7GbGeimTrqCAoILdtKiiCO+oT7BhmP/MH/vo1v/qgfgAoBhCPVpLzq7qZuMmTPdKWH/B0AGAO5ByoyIBeGTjNMU55Ycyvspbzr01b2TRFKw95OPmh9ctjRidGCgr8xJKhOxrMhLqVTOmjZV9cDSJbIThUV7CkpLmbkx0YeWL7g2wl7PPJgM9/X1dnVRHNyVlRWIzmf1kIDRdhSdTbXnfezVCSQKdWIWOm1esBL21JIPbxxFmO41zMGvs1OP/37C4MWjhPAxDSkpmYbfFfGJr4LgEf1h24LXrq1x8XbxFwRQSv+38odj+s4eRCxbcvT7byV+np7ednqOS46oW2/bd+rceYM1VC8SM6raP/+st5d8uzQB8vikG6AvfACYcfu0+p6FDwCRN06OYURMsf6QUMoI7lpZYmIAJbjXcOw/wW9/t8IHUHmiSih8APjwicfL/86FDwDfvfjCcAAd+kM3TsvdZk/5titAVJSYEPq84VAqdzocHBM8xeTNRIx40qKIYqNTgl0v4vA8gd6XD9IQe29MWM/rj/9xotLwXSaVnlqclBjVM83fjTHDhwdOGBV8wHBMQW62p3ybFUAud7sLXSFaNO6+mH77FePnjIsZNyc0zXecb+qMFdM/BABFQkIIgFsMaUbOHJEjlTv16vzVnquRGr7HhIf1dJ78bVl5/fXGQShRiqQkT3vJtmkwSB+j97ThWOEj3+833m+GueuilkQaevDsH8A2cMzLIFQEAIQhFdNvm2bS5Glv0greuzHD+3UlWMTug9n5X+7YUX2+vJLRcjoCAHKZMz91fCiz/LprQ4Z5efmYk9HQ1Nz4+dZtR9IO5Wqr6+o7LSACDPP05q5Vx8mv06gjxCKR2JZ8Lp6VFHbfq6+36GtIhvD8DABbbZFpwCYFaG7XPkRA/PSHXNyqON8BipgZ99aafx768ci1hhMT5ow/yUpYk4M0DEM4w/fW9gGH/gkcO1tYeOXqBxrrmhp7NTMAkJqTg9e++qZtbkx0ylfPPzdTxLIm/6fn//tp+mtffj2Bgsb0/vU4fk1Pxz3/eaXwi+eeqZsXGzOpdxrLkEmlMrmT08nmtraxAEA5JhR2UgCrmwCFRuNFQAw9dngFe2Z4qNyD+7vGFMd3nlwmZEZECsOvD4vuK61E6dRs+H7w+AmrlPfQqVOnZ9xxl7KvwjfCaVvGPk3kzbdl8zztNYJ567PPpbz65Vdx5hxRWp1uxNInn5rw2datFscqmsJV7mIU5kb9+k45MKxWAMozTwJw1R+2xq6aaXKYtj/OpBUcaGtqF96MqKVRZYyI6bNg/cf7CzXA0YKC8S1tbc19pTWFjuN0s++7n6GUCgNFUrGkYHxw8N6ocaHpUeNC0wN8vLMIiPBnF5aVTX9kw4Z0Yzm/pqXn/pySZhyU0uGjdM+NDA1JjxoXmh4xdswehbPLX0a/i9e89uaE0qqqioHk1xgPN9c2w3dC4GKtnJ5Y9RYpExNVHIeVhuOAcP/9Ci8XzUBkUB78gS+zhIIQy8RHQ5LG9Nt/mDAvdNzx34/pAIgohftdL6xL+eaFf1t83/d/+OlAW0eHUF0vu2p2yvuPPaomhHQLICmrrq6ccusdxY0tzRMAYONvW8NeXr1Ka2jL17z+BoHehyJimPI/33unMTI0ZHLP+325bceB+155dRIACaVUvurVN7J/euWlgTaTAIC2tg6hc00pBqT4/WFVDcDzuB36AE0QUhd7d/SAvWv5vx3J4Do4Q3QOYu6KboeZeDyZUubtHqQUHEdb9uyN+3DzL5n9XWPMF9u2C999PNxzPnj8MY2pGMBhXl4+ye+/LYc+gonneY/kg9nHgM5O34X6BqH5eGn1qsLI0JCeE1UAALfMvWraldHThYGwPYcODbc0rz2pbWzsGsAitMZaOT2xsgkgQqBC6BWheRK51KIxfgOclmvL+yVfeOuclE4Hh08J7PUGmSLh4YSxhEG1/pD954a3pi55Ym1KY0uLySBQYyou1CgM36+cMaOxv7QhKpVKLBIJPoujBWcbAaCgrLQCRi70G2clmhzTMHDznKsMzSTaOjr8+0vbFzxP+drGhq5aijDHrJFjCqsUoCFl11eTbpj8pvr++NwpN02ON39Fd3K+y91POWr4M3j1qniLgzOclTKf+PvjS9A1UMJuy9inCZw7n4+69faMD37avK+va7U6ndDk+bgrzT77lHGhhfqvXOykcC8AaG1r6zYNTKlQuPW8zhgfd3fjARyrBnP2/5V/glIIyssyNNcaOaaw2gycOHe8Cwi16K3tyem0M8Kb4Orvmuk9xsuEGdU3wycHRmgeUh9OfTPVn1J4AwAFdT117lzMo2+9AxHLZt517Xyz/ghzbF3/RsxnW7ZmRowd4zF13LgQW+VZywsbP6tEV3zEUXtOTh3UqOC+4HVUeOObKpuGf7fi+25VGititOELwppDrgjp0yQMjAiIWLh+YXXKhpT06oILM6APQgGA8uoau0zWFLGsyB6KZAv1TU0Ne3IPC30OQrCpv/QDZUiCI5SBrmcM33kdP1zXrhtn/Glv7gjP+jo7nPKU60+Ok1LqNevxWZGEoE44J5WcefjmpSbHIi5Hlr/4nxwjX4NWp2U/sqf8IVGApH8mjhdLxSf6S8OwbCVhiNl4hawvDx40NAMAtFvefF0nk0pldsnoEKPV6bQ7MzONlZllRfxLssTEAHvdY0iaACdXJ4/FHyxyO3+wOKemuLYZHMW5nPNsQ1mD0BeYdENEGYD+PYuU4mzGWSHNhFHB+6eNH2+XiR4XiwNHj554b9NPZWXVVUyoagR9aNnSMSp/P3+gswliWaZKp+MMTSYD0FtFHOa5apJubkjZtcPW+w9ZfBzDEDZoWlDkpIURceELI6Kbq5sE96ZYJv5r/Oy+238DlScrj/EcL4R4vffYo3ZzkQJA1rFjJ0dfvyjnytUPpOk4zq5z/3Ucp0u69770WfeuHvvT7t2afUfy4z/dskUdtuwmz3+9+14aABBCyMHPP+VjIyJSGYapNLrck1L6q0KduMDWfFwSAZI532ZncFpesHNn3jtTZ84pBABF+4uFP0UsEp2bPHbsaEvvyVswP2npE2ubKmtqI/cdORL/2ZatBwGA9AhPppT2O92tx8/CwY1PrN2bdfR4HHpHZUnf3fRjvMHBNTIgIHD7hjfUZdu3KBbNSkwBYFBEMYCvXeJnmRvT6JchVwBda0fTiT9PCs4UhY88MyB8mEWexYoTlUITNn5ksFnTyEUmNfgOkF9wpl8VoJTSqrr6XuMb3u7u3ULKT58/X9wzjTHZJ04aontBQGoBoKKmtvqP/QeEGk7Eis6PCQrKIIQIoV5PvPtet9pMJpXKNq59UvP5c8/kATCMC8gI4T8HnrW6HIdcAdLfy+jWiVOvibc4xKutsU1wrIwKCOzXYgCAsNGjBe/f7qyDIXWNjX3G1r35zbcZlFLByaOOnOwPAKphfv6EQCjUh95862xfMnie8q9/+bUwcOOtVBYBwK/paadhWM+AoPHUT987Z3/xaczPr74sKJNWpxtRWFpa0lPmAnV85LPL7xQirAkwWR6fvrhnOksZUgVoqm4uO59XKgR/+IT4ZCgDlRaPKnLtnKAAw7w8zD7Lk3fcPgwADwA6nvcbt3hJ+da9GYda29uFmqGksqrioTfXpz7z8X8FJ5eHqyJvzPDhQUBnxyw6PPyI4bfUnJz4eQ8+nHqiqKjI0BzoOE534OjRExOWLM2uaWgQarN7F1/f0jNP3u7upzzd3DwAYGxQUDflb2huaeuZHgAeumlZrI/SXfAGEkLvNvfsfTEkVoCBlDdSCgjQOTefoCn+3pnjzVzSDUZEhI5ZRW2t2VZ9yrjQsTMmTkzLzM+PB4DmtraQpU8+1TOZLwBfo4a5/dsXn+8W0fPFs09PCFl0QwXH8b4ASHruIfXU2+4wTiIC0M1zqFTI8x5YujQaAP4xb17UD3/uTjtTUuLy3YvPCy7eZWufPqm/PyjQMlYV1Ke59++Vy3X3vPSK4TDeKzZWUb13b7/jG6YYshqg6kz1ibqSeqEdHBU78qCT0mlAEb5SF6nwRp0rK7foWbaufz16VEBAn+MFxlCgZf1DDx6KDgvrNuDj4+7uuX3D+lqWZSwa35c7y45mff6Zv2G9IbFIJN759vr40z9tipoyLnRsu1bbPnP5Pem5J08KkVBXRU/P6m9q2QKNZiIAQ1gU2yaRWDUbecgUIHV9arPh/oRhyqbdNmX6QGW4q9yFuLD8MwVm4/eAzj8/56vPZzy3YvleFycnk84oCrSMGR6YceDT/1beMf9qk/maMXFC6IkfvhfFRkSkEhCTw7MiEVt8y9w5qQU//zTS18Pdy1Sa0qqqitELFp3MO3VKKHwniaTgs6ef6tebKZNKZWKRqEsBKTOsv/R9MSRNwJk9Zw+0NbQLbf+kheEFrEQ04GVaxiSO9i46cA4A0NLWFlJYWloywt/frJeMEEIeXLYk9sFlS1BdV1dTWFZerdVpOQBwk8udRgUG+kvFYrMDVJ01wRtqjue5orKy8xU1NY1Ap6k43NfXPcDHezg6F4Awyc7M/Xk3PrHWl+d5wZSTisVnc7/6wsVFJjMb9cOyjFarbwQZSq0KPL3oCkB5yh347IAQRyeWik6MnzverNPHFH6hvuMJSyooR30BkMffee/Ud+teGJCb1Eup9PBSKgc0wbQnLMOwIwMCAkcGWH5rfbRQBAyBNQDEInHRJ089UVd6oVrr5a5USsViaT8i0N6uFZpMjqFWhclfdAXI/fHQXk7LCTEE0SuiW03NIrIIQsiw8cOOlx4p9QWArRn7ppVUVlUE+HhbFXZ1sSgqLS9d9eprE2BU+ACg1WlVtzz9nAronPhSvOVXlUQs6rkwJYBOLyUFFSKqxJSeMZXOHBe1D6Bt1TUf23Y81HDs4ul8IGjKcKvDpQEg9u7oCOgdKARwTrz3vmKO5836BIaS7Zn7iiil/Vbxre3tYwpKSvp8q5//ZGOZ0eGxupSUQmvyclEVYN9H+7IoTw2dNU59f7zNM1ykCqlyVEywsB5QWfWFKfMf/uceW+UOJktnXzHB09XtMPpeNU0XMiJob4gqSGXqx9PF54tTsnOEzikh+N7avFy0JqCppqXiXE7xVMOx92ivvR4jPAYcTmaK6XdNn1maX5rbWt82GQDScw+pY+9csSf5g3enmmtHhwI3udz17K8/9efuFsHgH+lBc2trc9zyu1vRFV5WQ3QdG6zNy0WrAVLfTDkF6OPZCZrjVseF9n+F5TAMYa9eNy+YEZFCw7kjZ87MHDF/wdkte/Ye6ufSy4rTxeeLRy9YVGKYIQQAlODJ+j17avu7rj8uigJUF1w4WXuuTujpj5ihynJWyiyy2y1FKpcqr3l5vkQkFQlr7DW3toYuW/v0pJHXLcx97uNP0m2ZmDGUZB07dvLafz6aGnnLbd7GhQ+QjU0pyR/YItvqBSJWnv3vhyB0hSVpf1izObutrjUKAAhDypd8eIMrK2EHZaEmXTvXvO2pbXkNFY19mZbNUrG4UsSKTPrZLyU4nhO3a7XexoNSXZCNjdUeK/HXpo7ev1nOoPcBCjMLD7bVtQperfDrJp5mJeygRe2IpKzL/FeuiS7MLMrdvzFTrm3nek7acGnXaoPbtZftJh81lODJppRdNr35BgZVASgPLnPjfiECmJWwJydeEzagEHBrGTFDNVk1TcUXpJ85cPzPEx115+rHD3RFsUuMY4Tge6Lr2GBLm9+TQVWAvM15Gbp2TvBxx94V3WS108cKCANmlHrUtFHqUaA85WqK607XFtVcaK1t1XLtOpMmmFbHN57YeeyXi5XH/iAUbRyLEhEnLqhP+73PuANbGDQF0HXoWvO3/iWM7TsrZQeDpgcNWbg2YQjrqXIf7alyNxs2Nn3p5I/eDV5+SSjBYDNob2Pmxv3G07+4+Afi+51CdSlx8PtDKxTqxHKFOnEzJiw26Yr9uzAoNQDlwRdlnhNGuDyDPTK8gj3tujT7YHL89xNh6AzMuE7uWX11E/CTzUI1GpEbx4TzDFSg1B1ANaGkXN7ikl+a/VuvSKGLxaAogK5N20wpFdy8bQ0dkh3P7Uzv75r+CJjkT8KuDbOr5dBY1nBu/9cHz+qatb1qQcrzQgAIYbqvHTBQ5JpZGobyd1OKa3jG4AjrtL4pARrlza0KdeIflNLPm9J2b8ZF3kFkUBRA7CxWMCJSyOvoCABovtA0vfmC2dnbfVJdcAGuAW65qilBVk1GNcXWZ3e06Np0anPpKCXZ5tKYQr+Ixnug/FwzJSoDMJ8QMl8Rn7ifYfhV9SkpB625pzUMWh8gdkXMBXSFL19yEGqRE+zLptRdKQOV7aKZNYvjkA1gbrd7ElBPT7Zi1FjJSS8vUTkrIt2dEQTTecqku6oTb8FFYtCsANV0VZRrgNvZIz8eKWqpa2EBoKNNyzaUdk3/YiWi0+6BbmV9SwEAioBJgUQ1JciuTUD4wvCa7G9yjO6CXAKSpf/eBoL0ppRdP2KAVbI8PjGRUP5X6Nc7BoCRo8Wnbl/pWRGkEocSpjPoVH/T5vIKXfZ3G+tkOQdbDYNDThT4QqFOdGpMTf7Ytqc0z0VxBRtI2ZCact6wsRPAXfXMlWe8RnqO7e+aQYNSfH/fj0c6mjvCAIAC55o6WkOxb1+ruUv7QhY/e7iI6A4B8AAAVkS0Dz3umREWKYuDmdq2okKX+fTDFRNbW3iD46yDUlzRlJacZm1+LOGiOWWaqhrLzueUCGPYXqM9M4as8AGAECSsiZNAP0+AAEFyidMjZq7qFxHRfQhD4YtJxyvv+OWERcrUsOB/9vUVzXh7o3+5XMEYprpLCMEniIqyaZFJc1y0eIDk11POAtBX/6RBc3+83YaDrcU7xDfEPUi5p/Zc3UwAICCPyRITN7YmJ/eakWPAVaMZTUEeASVXAfCjQAWAPQDdC2COId1Dj3llePuINAPJj0RCRr+0YVj2/XeWRNLOPsoYuYtyRRPwrlUPaAEXpQYoO1Ke31DWNTo3JmFUrpOb7JJY5TvhwYQQEGHZNRcRR9b1ldZVnbiUUiYflNwNQAVASoAgAiwjIEIhqYIlZ8IinawKdnFTMlFXXq0QVj4jhN5jjRxLGXQFoDz41HfSWej7GwzLFE29ecqQLrtijLOHzHvEjOCsrjP0Fld10tSe6eTqpAQKfIEegZymuGOleyls+G8XLnMzXnVtoqtGY/Gs54Ey6AqQ/9tfe3VtWsGxMu22qRWMiLmkwrRm3DFtBsMQQ7VPKOh69OggE9C3oG8ypVLS/MC/vFPe+zzg8Atv+O7x8e3a9o0Q0BGjpDb1baRSEuJrJJNSZtC8qIOqANpWXXPez3nCn+HkKs0drR41KJsf2YJIwjpNWhJ5zuhUjFyTdKPhwEWjmQRgouH4lXeGHY2c6qSRK5iIoBGSmS+/M4x3UzJlADA91iWbENorLL2jg55+dHVZ8aOry4o7tNTchpBk9DinLgUgsNuSMD0ZVAXY99HeLMoLfwaneVBjtzVu7c342WOjJc5SYdYvKH25cwczgKWMUIN5eLAV7p5styaCZUngW5/4s29/FpBz70MeJoM903Y1l5aX6IaXl+iGp/7R1Gcn04CXt6hrOXQegzbPYdAUoLG6ubQop0R4271Hee0dUrPPHIQg4SG1GCbMQr5rVQ5wPDW5cBVhiI+bKxMJo+XqjGlv40nXd2r2f6+v4wU5hBCrfRPmGDQF2P1acqHxFjDxl4DZZw7vMV6h7kHKDMMxAXnMOfYKfxBeWMewvo73qqrkbFr63RIKTrULk0kJoef6S2sLg6IAZfllvcw+mdLJrlHAg0VPs5AV8S81paTkA0QYoHnm0YqxlKMXBisPOg6l5wo7hFFIykM1WA4huysA5cGnvr3nkjX7zNFpFqqMzcKbFfEJ8wEqmGZNDZx7ezvtNoZRXa07sH5d9eG87NZU2Dik29bMV3U7QfCIQu52WN65JoBdsbsC5P+Wn2Fs9k259dIz+8wx444ZxmYhA0J+ASCEtyVepch0cma6LRrxzCMVo3MOtka89mK1eteO5jTYoARyV2b8FfMU+wjpJmMcoUymmzrpCmvlmsKuCtBp9h0RwrCdXKW5YzWXntlnDhNmocCCG1z3/GOFcgp67LqqCpYIZtvnH9XYqgTiW+5URn/y3fCzV8yRG++H4MKB/mzPfYTtqgCXk9lnjl5mIQDNLPn+BUvcYmFiDOXhp7y9/APFhYZjOygBxGKMvGW5+4x16/32SsSkHeicAU0Z+p3H9Dmu5q63BLspQFNVY9k549G+kUM82mcrhECpUgpLv7i6MjW3r3QPRh9D6CwDv3Xr/VyGq8TCeoWff1Sj3v5rQzJs7BMEBoljX9zgd4gwBjkkWCtt/5ctMg3YTQH0o32GIIgG9Rr1kK2vbw8oD77qRKVgut5+r2ceIejXkmEYeP/7dT+pcU266YCdAAAFc0lEQVTw7Wf1SX9sa0zrfz1R8/j6iabfcLNSiKukBPe7z5plc6S1XRSgp9k3Wn35mH19UZpflm9ozggLPiLKyaLajGXg9+J6PydjJfjykzr1b5sbbFoIAwDmzFdMlEo6nUIEcNbpeKsXiDRgswKYMvum3Tr1sjH7+qL0UIkw/UqlkhSIWFi8348pJWhtpop+LrEIhoFH0jxF1wKRFDZbBDYrwN/B7DNFfXnXKrIBKvGA5+KZUgJ7MCNGJix/QwGr1gY0xiYF+LuYfabgOrp8915erFX71A6GEnh4s8Y1ic2DRDYpQG+zT33Zmn09kcjEwtKz1dWc1TWaQQn8AkT9ripuKSKWMS4zm0P6rFaA6rNVTb3NPq/L1+zrgVuQm/DfnD3ZYVOHlmXgF5/gUmhzpgA0NuqMdw01E1JvHqsV4Pd1fwRAMPtIg2aNpt8NFC83hkcECIVeWqJV6XQoGMr8GPgrr9u26TZvH2eVAnhMn+PKa+lCw/Fo9chcJ6XU5Fq4lyveY7xDCEsE927arka7VOE2wu/4rdFoOX36h60CrWpDWl3aFSKu69qz+wr9CzOL7Lad6VDirJTVzX5i9hgnpdQrKDLwZFFWsT8AfLOxfoY6UV7MionV+//aSvE5bUZ5iU6YIUUp+7OtMq1TgOTkUoU6MR/6ODmuo9c6PJctDRWN2PPR3m2zHk30nXrTVBRlFdcDcOvQUum6Zyqbn1rn2wwMfPv2pmbepg63jkPpq89VG3tXtzSl/WnzS2dtpmj08pjfCEMqzSe9/Cg/Wr7p/RF3Tfl08qoEgD5qOH/qeEfo269cOElp10aVlpB/uD11+8+NwpzIjLSWQJ63vANHKal48cnKprpanWEuBUcZ+vhA8tAXNs0N1LW1LyvYV5TfUt08KEtu5e84Ngr6VUZWTZbvnTdSanZXkDk/XhBCqAnBi5QOLJyKZ3CmeffuXUaniKsm4VtKiRAl7B8gLvrXv72r3NzZfpe84XmUfftZXeHOLb2XrPPyEpWvXedT7OHF9pqDYEx9LXfwuccqA6urdV2bSFHySGPartctf6q+uaiTQwfKdyu+P6Zr140DgO0LPdMneUvMxscP+6DrxWIYOqV+926r5vd3Q6NxUlCyGSBXGZ8Om+x05Jrr3WqCR4uHSSTEiyFw1ulo+YULfEXy7426XdubJ7e38f2uhxgR5XT42kVu9UEjxQFiEXwJCOnQ0fLiQm3JL5vqlYcOtoX3uOSTxtTk5TY/k54h3TPosiElpa0xKmq+q1y5noKuhP7FOZLbFnYkt9cSCCP0H4s4nN0WcTi7l4xRMIpA0sNTiqeb0pL7nLpmDdYrAMOnw7Z+jVl4jlq1kcSgkJ2tbQDuc4tP/IUneBVAzzezL5ooxX8IQQgA/cIPJBOgLgAs3fQxi1I8MhhTxa1WgPdVy78C8JUd89ILhTrxoi2VYin1acm/A/jDNSFhNuWZZRRUQ4CgHsmaCGgmD2wWi9mva//8s16hTvrQKC4krzE1fqVrQuocUNxCKRMP0J57/pSD0K2Ekh8bUpN3YJDWDnI0AdZBG3bv3glgJwC4zZzpzovFPjzHSihtr27x86vEpk1mNq14lm/Yja0AtgKAPC7OG5B4ExHPKRrkxRdr5TCHAtgB/dKtNi3f2pSeXgWgCgAGvPmfDQz51rEOhhaHAvw/x6EA/8+xwhH0LCNXp31FgMVw9CEuFXQU+L4pNflmDNBaGLACKGYmjQVLTW656mBoIZQd25D2x6mBXDPgJqBRISkCcMRsQgcXm7yGC8oBB4hYNxYwYbHExad6nMjRBFwS6ABdc6XXMVv3D3LgwIEDBw4cOHDgwIEDBw4cOHDgwIEDBw4c/P34PwjMeLynDc0rAAAAAElFTkSuQmCC;" vertex="1" parent="1">
          <mxGeometry x="600" y="929" width="67" height="67" as="geometry" />
        </mxCell>
        <mxCell id="WDh5IYlVzA6w8aevfNZZ-73" value="" style="shape=image;verticalLabelPosition=bottom;labelBackgroundColor=default;verticalAlign=top;aspect=fixed;imageAspect=0;image=data:image/png,iVBORw0KGgoAAAANSUhEUgAAAIAAAACACAYAAADDPmHLAAAABHNCSVQICAgIfAhkiAAAAAlwSFlzAAADsQAAA7EB9YPtSQAAABl0RVh0U29mdHdhcmUAd3d3Lmlua3NjYXBlLm9yZ5vuPBoAAA+CSURBVHic7Z1plBXFFYC/mWFgHAgMElSigYgLICJRlAARoiKIcU1E0KiEGKPEuCUe43FPjEc9RyMx0WjURM3igoaAexCjBg1uIBGNAhIQRBHBGJBlYGbIjzsdHv1udVd3V7/XM9PfOfXnve5bVV23q29V3boFOTk5OTk5OTk5bY6KchcgRfYBRgOHAXsANc1pJTAPeAZ4EvhPuQqYkw77AVOAJmBrSGoAXgAuBvYuR2Fz3FGBNKRNw5vSW8D1wMG07t6x1bED0p3HbXgtLQNuAUYB1aWrSk4c7sZt4/vTZ8CjwASgrkR1yrHkHMwN9yxwEvBFoCvQE/gG8CvgvYD7glI9YmPsW4rK5QSzE7CW4kbaCJxicf8BwE+A1xUZYWkzcJazmuTE4kp0y/6oGLJ6AecCM4EtilwtNQEnJqpBTiLeprhRbnUgtyvSg0xB72EK08dAJwd55kSkB8WN0Yi8yR61wBBgLPClmPl0AMYAtyGTSJoSnBFTdquiF/IgbgdeBVY1p/nAvcB3gS4O8zuU4oaYDwwAfgb8E/kceP9tAcYnzLMWeFzJ908J5bZY9geuAuZi981cC9wEdHaQ9wmK/MaQ/Jc4yPdYRe5zDuS2CKqBkcAvgaXEH1cvB0YkLMvYGPmuTpgn6MPOJx3IzSydgXFIN/cJ8RvdnzYCxyUo1yEx8rw2QX6dgUnI4pFf7g0J5GaSXZHKPgVswl2j+9MGYFCM8vUB3rHMYxkwFZnFizq//zngW8A0RGFNeXwlRh0yyShk9izugso8xAA7ElmC7Y18Mm4G1hnuWYws09oyGP0tLEyvAechI4WodESMxT8jChpW50di5JE5KoCfE73BtyDr6ucTPszqCcw2yPmxZTkPAj4NKVMTcLKlPI9axKZ4CFgfIr8wLQA+HzGvTHI59pVehzyoU4EdI+ZTi7ydfpkrgKqQe3sCH1qWcQuilEFd/g7AN4EHkMWeqMo/lVbS+Hsg89pBlf0AGd8fiUyMJGEf9KnWkQH3VCNzC1rZ1gSU+w3gR82yBwHDgbOB+wif4dPSSmSmMY7dklmuw9y9XYsYOJUxZQ9FnDTOQBTNY6qS31UBcn5qKON8YBfgfsP/LtIqRPkPI7yXapG8QHGlbyF+o3uMo3hiZhFwBXC1kudDBjl7IUuw/uuXs83IqwWeUK6Jm1YDdyJGcats9EIWUfwADnAg90VFblB6xiDnL8q1mxGDsJD2yGgj7gjmE+B3yLx/m/IAmkfxwzjNgdy/K3KD0kxFxj7oDXp1QL7DkaGsTZ6fIusURyEK1Ca5l+IHsxZZa++dQO4Ywo3LwvR7RcbtynXvIxZ8GP2By5BJnLeR+YYFwN+AG3Fj0LYKxhDcMK8CFxFvOXVvZGLoFcIXatYAwwrubY9u4f8gRjlyQphJ+BvaBLwEXIiMyaOyK3ANYmCZ8liPvJmgK+Y6ZHo2xzE7Af/CvrtuAv4BXADsFiGfvsBHIbLXI9O92vC0za67l4KuiBVc6ERhkxqBWcjc+xcMsiuQYWHQ21+YPkI2afh/n+CuujmgT5X2QvzhxgEDI8prQr73c5DVuo7IWP0I5O3XqMfeGOvXLDenRPRBJm7eIFqvYJuWIjOEL1tcWw+0S7W2OYH0Q6Zrta45TloE7N4suzuybh90/cqU65cTgX2RyRhbpwx/epjilbRhBA8VF6VZoZz4DESGdwsJHzk8i+zZN3FrwP35tz8FXG+B7oP46vVBjL8NyGTOW8hcw4qQ+7sjnrsdlf8WYDYkc1oRk8l7gJKRxSAIA5BRh5+s9gB1yGLSIPSey08jsp7xV2S4nKOg2RNZ6wGqkMWmOJ5FXnoOWfHM8XEb2VaAGiRghIvh8FqCDeM2ySSyqwAdgMdw0/iFk1xHl7ISWedwsqkANci322Xje2kjMmVeUrI6tZrF2H01wHT07roJWUjzXN6D6IxEFtlTkT8NOB5RsjZNP7LVAwS9+XG2nXdBfCsy0xNkjSwpQNA3vwG7WEQanTHvlGrzNkFWFCCtxvcouxKUciKoK/B1xFmzW8i1dYg/QiGfIjF7PBqRTRsvIWsM9W6K+X+8b7LWHTcgW+MedJBPF+Tzou0w3kQrsAnaITt74uy/s03LkHiArqhBtsabvvku84JWbBN0Ap4mvYb3p+sclLnUje/R6pSgFvHBL1Xje2lygjJ3wDzD5+KbH0aQTbCJFmQYlqvxkyhBuRvfo6RKkIYR2AkJpaYFgWoEfouEZm1KmE8HxKgcY/h/MrI13IYwg+80JI5AqQgzDI8DZpSwPNZ0Ap5H1956JMSaa0zb27ciIenCSPubX4lsLb8UiUs8HrvIomE2QeYWkDpS+sb3uNaQ71Yk9I2JtBt/b/QYih8hw7swWowSlLPxPaIqQdqNvx8SR9hUpkYkemoYmVeCSuT7Wc7G9whSgpvYFvSiI+VtfNdKMCpuQV0Ygacjhp2fzUgodRdh1LogS8S9CZ9FnIA5PNxcxA1rFPpuZxcG336IA2x3y+ubkChpkwk2jIMMw3WIW/2b9sUUXCjAQiSMSyGuGr8Psr38eNKP2tGITO+m1fhLgHcxv61vIuF6/hsgvwtwJnr4nsWIP+VG28K6oC96t+Sfx4/DBdgf3JA0NZC82++PrE1o8hcjW+qr0QNkuUoXJaxDZI5WCjE7ocwK4NeK3LTSZ0i8wKTMMcj3Gt+jGj3ukYu0ihIHtTpFKcT9CeRVAL9RZKaRmpCZPxdeuR3QYxn5G9+jHRKJLY16RYrCHtUlrD/iznQwElRC+y5vjSjTowKJCXSm4f8VSIMtjSnfYz0yDp+Fuw2n9cgBFV8u+G0JcqjFMuX6BiTs/GPIHkt/xLMkjEACdFlhqwDtESt1EsnjB2p4b/73DP/fhPjgb0ohb1ecDNyFKMFzyLN6P+Sep5rT7sjRNrsQLVrZgUiM40J2jXC/FR2xD7u2FQnDGoUK4I4AeZcmrkHrZTzFz8sUcDMWQTN8rhTgigBZeeMHM47iZ/ZwFAFB3XlHJPxq0qNdwjjb8PtlJDvhI8cCkwIENf5m4IfIt+YSB2XYoPyWN34ZibKwow0Do34CTmJbRNEG7A+PyHHwCfCPAsLefFdz+4U8gMzRD0YmU952LD8ngEIFqEXG2abGH0965+MsbE45JcZTgBrk7Luob/465Tfn49Cc9PCMwDuI1+0vV347iO1PB8nJOMOxM/g0qtBXwF7F7TnBOTpOjEBt+tXW4GtEtkVf7Pv9QMR54QiC17fTph2i4Eci0611ZSxLGBuQdYOZyGYabXicCu9RrEWTItzfFTlVTOtFXqJ8PcHJyGpcmiuKaaXViEt7mBNM4h4A9FM9osbkH4L5aNVSK0EH9FNQWmJ6nmDXMicKoGUcZ8VvNOVXgkrSc7YoV3oD8wt5gnL99KgPzZUCQPmV4DJD3i09mfwURyjXfojdxhNAlmK3Kr9XEW/r1lBkfbuz4f+XSc8w7IEElNaCNT6B7OX/IIV8XVGHuNidgu6nMRxxGi2kCzIK8/sQPIIY8ZttMnbVAwxFGjZMm9PqCa5S8mqk5Z0yMgz9OU41XP+Qcq33KbByLnGhALaNn6YSaFuwbnCcR6nQFtk+Qz8ury/mY+6tlCCpAgQ1/sKAwi0Bvo34Gfb2JdPZQyYqKXYhb6LlTktXIv6K/mc2wHD9eMxnLYQqQRIFGIS58ecjQ5jRmJUgKM1Dzi+yYSfl/o8t780qMyiuU1CUkInEVIIkCmA60n0+0igecZXANghTL+VebZ2iJTGd4jqF7SieSAwlSKIAWqRsf+N7HI5E+oraC9iQK8A2JhJRCZIowBTsGt+jL/px9aZ0vWU5cgXYnomYlaBoI28SBahDtnHNRUK872h530jkfKBZiKG42JfmI41ve55grgDFfAezEpxXeGESBcgKuQLoTERXgnqaT4ZvaQ2dE417kK18ftoDV0KuAG2Bu4BfKL+fCvTI6nkBLujG9rGFWxoHOpR1OeIfsXPBb1U0xxzUhmb+iB9ZR7MBWmOKagMUcrUib1ol+pGstyM7VXOyxdYE9z6h/LZnJboDwWHIuvIKZLPGzcD+CTJPG6tlz1ZAEj/BxcpvPUB8+tYQ3v00Ia5W2opUualBj9DR2tLgBM+oSpPpRQk7CukJbOLLpOnUkYRVFPvPXUC2nUCC+APFE2F9iL+DqgrZe2nkWOzn6l8me37/r1NczmPKWqL47IbeA1u7eimoPUDhPMAjiPV/PduObjUxGFmuzJISvKX8Zlo/zzpauZchTiEloxqJpnk+ZkfPLPUEF1Jcvqhb1bPCxRTX5fGEMtUewPbmoPX8rCjBoRSX7d9lLVF8NNf2pAEzEikAZF8J6tBHAr3LWagYVCEnp/rrETsgdDPdFZlrogrJuhJojqGmGERZ5asU12ETyYffWlTX+VHXAmYg05HTlAJ5huFoyjdEnEHxhNWJiM9CFIYhh1cmCbvagASPnBPxPn/cP4AXSR4EWnsRXokrLKs9wTClPA2Yw8dr3KPISJJujJB3JeLH4Jfx/QgyNE43lC3RWQ6jyJ4SVKDvdr7c8v6Byr1JUxMyrrdB66a3EOxmF0R7ZLtcgyJ3EVCdZDn4aeT0qunon4PXgD+yLbyr1yU+Q7D12Qt5kxcg3/QgdgMOQeIbeSynOEDzWcj8RuBMGNF3RdtQgXmrnJ9zlN8+IPoqYC1yXtExmJXvEkS5EhPUE2jp7gBZRyAK410bFCl0CLpXsinZnPvXHtmN67IHmIWd480ASreecYeXqatzA0eh9wQm9kJOz/AzG2lYj3rkU6IdDP0o0Q5RfBcJDR+m9XXAuc3XJjUC5yHOr+strp+G9Khp8yhiaDpfQR2J/f7A/gYZ83zXNaLv9gUJpRJV8zX/uCwwhPTf/gZkMilVN8C+bPvGm9JMzD3Pmb5r7wzIayzRH9rHxDeo0qId5tNGXKRNSNQQ9WCMNI6OBfmeHY509V432oh8X+9G79I9xiAOKQubr20MuHYE0m1qq2Q1yAlg/jpOQTZTZoVL0Kd5HyP+Uvam5nvfRYz1tTHltHjuQX8rsqIAA9ne6PXSHKKf5pKj0A05Hsb/gDfg1us2Dt3Qo5g1ILuucxwxAb0XWEr57IFqzBHZbQ68dkZaNkDWuA/xi/ezBDlrbzalOXCxHWIfXYME1vAzFzmQq6SHP7YFapCFjzSHWUnTaiSaaU5K9ES3B7KQNgNfS6/qOR5DgU8of4P7G/+0NCudsz39kG9+uRt+KzIKGJludYNpK0agnwpkL8RYZMi1M6Ubd68E3kHm/h8keFIsJycnJycnJycnxz3/A30ypxvoAHNGAAAAAElFTkSuQmCC;" vertex="1" parent="1">
          <mxGeometry x="759" y="933" width="56" height="56" as="geometry" />
        </mxCell>
        <mxCell id="WDh5IYlVzA6w8aevfNZZ-74" value="" style="shape=image;verticalLabelPosition=bottom;labelBackgroundColor=default;verticalAlign=top;aspect=fixed;imageAspect=0;image=data:image/png,iVBORw0KGgoAAAANSUhEUgAAAIAAAACACAYAAADDPmHLAAAACXBIWXMAAAOwAAADsAEnxA+tAAAAGXRFWHRTb2Z0d2FyZQB3d3cuaW5rc2NhcGUub3Jnm+48GgAAHkhJREFUeJztnXl8W9WVx3/navEWW0+2Q0JiS3ISkhAtCYSwNFOSYWAKaaENELZCSwstW6ctpUwgDNAphSkwTIEB2jJT2gItlNCyD1tDw76UQGLZCSFOIttJSOJFkh2v0rtn/pCX92xZ0tNiBdD3k3w+fvfd7emd9+5955x7LlCgQIHPL5TvDhxsKK5FChBdRBCHAlCk5AohOCwlOom4LWqxNhxo+rAt3/3MFgeNAFTPm1c+2FMyHRRRiIRNECxg2QUpugYtvL9nZ8O+3LS83GxzdCwH6Awi/mcAs1Io1ATgHRD+HKqyPocNGyK56VvuyZsAKHWHO4ktK5jlPwG0CLEfPlF/OgD4AXzAjOfD5fI1NDYOptt+9bx55ZF+yyUEuhLAjHTrAdAG4GEzore3N2/5JIN68sKkCkDlnDkVarTkXAIuAmNJhtV1AXhGEN3TGah/x0A5YXf5LmHmmwHYM+yDlgMgusPSo/5nW1vjgSzWm1MmRQDssxbbWEauBPMPAdiy3gDh7wBuDgX8TyXKVj5r4VyzKh9k4JgE2VoAfECErVIiCCAoBCrBXAkiJzOOBeBIUH6nlPLsrtbGvxu/kMkn1wJAist7IRi3A6hKknc3gG1EaAMjBAIzowzEFWCaBWAuAEuSOl4hwVcGdzbUjz1hd3i+wkQPI74A7iDQb6ICf+7eWb812UVV1SycqZrlWWBcCMAXJ8sgmP411FJ/V7K68k3OBKC69ogZURF9CMAJE2QJAXiCGc/LqPVv3Xs2tCescPFii9Ie9RCpJ0umUyn2FIs4OaMEujHYXP9zABIA7C7Ppcx0b5z8Owi4Pthc9RiwPmroAoewOXz/RMS3Azhi7Dki3BoM+K9Jp97JIicCoLg8y8H0KIBpcVr0Q/LtU2T547t2vd2XbhsVNYsOE+boFWC6EPGf6nURwV+3MlYy033QX6vKTLeVy7KbMumDhuF5xR0ASrQniHBbMOBfnYU2ckLWBcDu8p3DzL8HYNWdYLSy4KvDgYa1GHoys0H5zPlVJrPlJwAuBWAec3o3gEOhf/I7JYnzugKbXsxWH4ax13l8rOJxEB2mTSfQFcHm+vuy3V42yKoA2Jyeiwh0P8a/au81Fw9e2751a3c229Nir/V52MR/BMObINs+E/gfO5obtuSqH1Nd7umDLF4h4HBN8gAzloZb/Bty1W66ZE0AlFrfaRD8FwAmTfIBZr4o3NLwWLbaSURNzXElPeLAL5hwSZzTHSbwF3N584cpq/NMs0h6E8BsTfL2EHV7EFgSqXR+dLQKXkpMbhBqASggSJLcyYRWEG1mlV8PtzZ8gCy+LeORFQFQ6twLIcVbAEo1yR1SiBVdOze9l402jGB3ea9hxi0YvT6VBa8I72x4abL6YHP6jgT4TQKKRxIZrzPhMAKmp1jNfhA/YmL8OleCa0qeJTFTp7qnsFm8jNhYO0yIVCwPt9R/mGn96dAf2v9GkTJ9NwEnAgABV4YCDY9MZh8Gwvs+KbFNPwDCySOJBCcBUwxUUwbQsQy6rMQ2fUGx/dD3+0N7Q9nsZ8ZvALvTez8D39EkDYL4S6FAw/pM686UadN8ZZHyXlNnU1NXfnqw3Kw4OraAMCdLFfaA+dpQS8N/Z6m+zASg0uU7VjK/Ce2kj+jKUKD+zkw79lnBXus7lwX/cUxyI4OfEoy3BWH7YKSojUsiwhpRqyXRfAKOZdAKAO54dRLTn4Ll6jcysYWM1JVJYcXlfU+r02fghXCzf0XszwLDKA7vQwBWksAuqPSdYGv966mUs9V6jiJBqwGcgfH36slQtfWsTC2RaQtApct3smR+XpM0oJqEr3vHpo8z6VCB8dhrfV9kkr8Zp18grA0Gqs5LV4sJxFelpoRk1qk4CXx34ebnhmBr/evC2n8UMeuUV8xYpTg7rs2k7rTeABU17jnCJD4eLs9AvwXRWZ9Ge/inCrfbajsgniBghSZ1kFQcFdzl96dTZVpvAGEWF0AjPMR4tHDzJ4HGxsGyiHUVgA80qVY24QFgVVqf9OkNAUyn6Y5JPphWPQUMs2fPhl4S/C0A2i+Ao5TarV9Opz7DAlA+Y3E1wFobeEeoufHVdBovkB5D/g63atOI+Ip06jIsACbr4D9oyxFhHXKsry4wHmb8AkDvyDHhpPI63zyj9RgfAhge/SGM+OMVyBLhFn8QDK2RjYSUpxqtJ505wHztgYTYnEYdBbIAkU4AIIiONlpHOgKg8/JhgZ1p1FEgC6iqfBcarStzQmfXuKQjAHrnzoGBjjTqKJAFunY1dgLYrklyxFY2pY5hAWCtfRuAjey9E+UtMBlQq/aI1Wgy72sdY33oJkRxLXIRRy9nvZcLeqyDVgDZcKwskAYM7tOqc03ERUbKJxUAxbVIIY6uYVa/z6BxlbNU7QDCRhotkD0IVKI1vqpMA0bKJxQAxeVeBJZPMsgZ7zyD+8OBjS1GGiyQZVjWgEbfAZbSyH4jxSecAygu79fA4g2Ax918BrWB8VqRwDEoKIHyxrRpvjIQ1WmS1Gh/0Y0VdQtT/hyMaw201/q+yIL/irG+/aA3idXVwZbGN9PpcIHsUun0fEGCJroXm4l5dbCl4dlEdYwTAJvTV0eQ7wFUrUkeZMa/hFv892fS4QLZpcrlna8yNiOxWf85kOn8UGBjXGfSOALg/T8CTtEk9ZCkU1J1YxqH222t7KdpaoSSLewsoMFC0b72Zs9+YK2aKJ/d5buMmb8HYA7GvbFjELBVSv5yuLVhe5xzmsqc3hUMPKdJYiY+Nxxo+JOh3rtcxYqsuASQ54Foydh2CqTMIDHWS8EPhAMNjyGhr+Vys+Jq8xDEOcz4LsbHPtihRqzHjF2EO1YA3tGunWemX4Vb6i8z0uMKl+8YwfhTvMljgfQh4F0y86rO7Q2tyfKWz5xfZbKY/wtM39CdYLwWapl/gvatMiIAtlrPbBK0TZMWViPWOUmXbWuwObwngvAMjdEWFsganzBoabi5PiX7i93luZaZbtGmMeMS7VxuRADsTt8aBt+sOfE/wWb/d1PtmVJ3uBPS/CHGv3o6QWgEw5CC4vMOA2UELMKY5eYg+ENl8qhU1wTYnJ57CXS5JmmfuXjwsOGFuiOKIAbrYvZIJmPjvjT/DPqb38eEK8OBqt9k4rb8eaZ63rxytb/oBgZfheGHleFVekyXh4CUFt+ELf0/UiIlX8KoCn9adMB6BoDfAXpF0FxtQZZqyuv6ymfOrwJwjrY4AWeGA/5fF25++rRv3dodbK6/GsCNuhNswP2rqWkAhJ/py9MZw39qBcCl+btzyNSYEmaL9SRo1crEzwab/f+XcicLJCRUbf05YsGrhplTUbPosInyj0WY+/4CjA7BDD4RQ/deKwCaJ5UNqnelVh0Jgnh+opwF0mDDhgjA+qXtZk4loCUAoLOpqYuAjcPHBBRPdbkPAfTGoC4AFUNZyg11kPUTPyk5xS+HVSa74+PjWMg5kCQZ3HgwRtHIImSr9SwmEgsgWJCU24ItjW8jBXsKs2gjGlUDmMCVRhpmoBWaT/xBlWoA7NUIALUDXDN0UKTUHe4M7dzSbKQRI8RiCX10KwMOMABiEADF6W1kph+EW+rX5artfGBzeE4iojsBLAA49o8EFKevmZmvDrf41yasgCTr1DbMBpVrJHR6JCEkoBsCWLvaBKxaMo3kOSGKw3MjMz+C+AEX3UT8ouLyXpir9icbxen5NhE9D2DB+LPsJMJjdqfvulz2gcG6cLgWadoLaASACfpQLiTPQA6wOz1fBtFPkmQzgfFre403UcCnTwWKy70IoF8hSTQWBt9U4Vr4pVz0YcaMxaWkD2g52N46Zx+gW+ARfQGARkVIp1fXHpFJEOW4MOin2uOpRVZcMetQfMc1HeVm3W9kZRPrP38+jbC4AZoIp5bSKZi74uuY/9ULUWTTue+RgLwpF13otQ6eBH38pteG1cEjAhDauaUZDK3t2BoRkTuy2ZHK2Z5aAEcOH9ssJjx9zHz8eM5MrJlbg0eWzINZaIc2WoHFiz+9VkS32wqMxggSJjOWX/8r+L7+fXjOugwn/uy3sJSWjeZnLKmqWTgzy70gZugDVTI/PdInXTrR3bqSoHPsLp9WwZMRHDHpDETHV9kwvXjUgukuL4W3okybpaRyb2R8tNEsMHWqe4q91vdFu8t3juLyfbPCtfBLQwKaNSr7aRo0qlz77AWwOUY/30sqp2H6wi/oykgRdWWzDzan59sEHKdJ6rEIHplw6nwCw831r9ic3kcIOHc4jZl/X+FaGMxGZE0JqfNgDUf0pm6VgbYBvYo7SmpW3c5jYWzFVYPgEwlcPDwxFmDIKEFxej8g4IFgtfX+TMOvRPqjvSbz6AusP9gOlhIkRp+7ga6growkU9Y8rO0O91IJukebxuA72wKNe4ePx/kEqhbzDxDbBGEYq2D5tOLy/RAZ2vWtfXIrNBqpNzq78OL+2A/QLyVu2tqCXX06AdhuRCOZiIoad6Xi8D4Jpr8B/JUEFssjGbhHaRtorHD5DK+00dK9+6MOYHTlVE/bHtT/4S6okQGwlNjxyhPYv1mn9ugr7kfSaOWpYHf5zmESL4+5zhZhKrpdm2+cV/CBpg/bKl2+0yTzyxiNaWcF8y8Uh3clMf1but5BbW2NB+wO35NMfDYASGZcunE7phZZEY5EMSj1+hAi/G867YzFVuuZTYTnQUhZfQqiw4h5vc3ludCwQ4y2GtD/aq2s2154FNvXPQFhtiDaN2ZfCeK1+/b5e9JtCwBVOr3HMvONzDz2i6KPQStDOzboXPjjuoV3BurfsTl9XyXws9CaIwnHM/FritPbwEzPEMn3GSLAxIekGhdMsryOiE6GJsL32Nf+EB+WRafcFYx3xgCKa5HCrD4LjLv5AwysA6OewP0QmAWmUwBMHc5AQDGYHlLqvJ+EdvpfS6f9kojlzl7L4NnQfIbJyABkZJx1fL+IiJR1AcQ4yebw1hJhCmK/ZS2AoyUwQ+smDsRC+BD4/HCz/4Nx9SRqxF7j9UoTHqMxK4KTInFVqNX/XxOdVlzeZWD8BUB8dSbze2a2rGxv/XCPoXbjYHN6/6id08Sgh8yIrB4X1sbttirdpstA/B/Q2+H3CUvf3HQDTg7tnfAUgKPiZmC0MtHXws31427Q6HV4/pNAVxltm4G9JqKVE22rk3BtYHCX32/tlUvAuJOB/pQbFZRQixgK+F81I+oB8AttOoH7GXxxqKV6aTZufkXdwqNJb6YGgf4t1Fz/jbgxjRobB0Mt9XdJIZYD0L6fp6mR4rRj/re3frgn1Fx1HDO+S2Dd70jEa4S1z5Po5gMAGDUJz48nwuBfqmZamGhPpZQndZUzfTXSgqvBvAr6uMDjYfw01OJPSYmjOL3awSMQavbXTZjZIIrT+xCA84ePY3H1/GelUtbu9J7HwB80ScFQtXVapl8GitO7ExrTe6jZn9I9UByeu0H0LylkbWDwU6yaf9+1a+O2ZJlTXhzaubt+F4AfALiywuVbIpiXgsgJsAvMCwAaiYfLQEOq9eaMxYstaB/UBk6SUiLl7VuCzf5HFKf3xxjdCsZuaxtYHgZezmo/U4QJ3ToVGehRkHyVQf0kuV2S2KOasevA9npDS8NSFgANsitQ/y6Ad4cT7E7PbQxcnUZdY6lRnN5xvutp0TFogcZFTTA+6Gzx7zBQAxPxWmYa2QuIiB5VnN5Mo3UbfZVPAD8TDDSMjUFsmHQEIJeYkdrOnckZ81UiBRlew8iqqRRCV6wSE01cP6WkHSo2i+RoS1g9xEi4wiYewiRzvfB1Uq49EXkXAGb6HgBD41Y6SJLj9hJMhioorW//FNk/dO15Je9DQLil/nEAj2e7XsXl/SoYTw4fk4HP2JEyzJExCQ+GAg3fzEL3Dhry/gYokF8KAvA5J+9DANxuq62HVgrQCQDskOiUwLrwVOuTmSpdDjZsDu8sIfhsZnIzIAhoIkmPBVvr86Y3yasA2B3upXxAPASgbuSrjQACLlHaB5tkrfu8dHfhZuJq0jjOMtNhNod3lbFKdJs/gidYf5+cVSa766NbmHElcyxOwnDPWPB1itP32xB1fQ+BgOF5SqbkTQDsDvdSJrEOwERhzeYIIdZX1LqXGxECu8N3KhPfAKk3vBCwAqTbaCE5Y3QJxDhLcfqsgtXrO1saUw6Rq7i2PMBjl2qPIgC+yC7La4NY/uXJXkqXnznAnDlFTOJhTHzzhykVQjycml/gKpPN6bmXiZ/GRFa3jCEB8OkqiQ12h+f85PkBm8O7atw6/Tgw4Z8VV0cquv6skpc3gD1Scgbr1yL2gelaBr9BxMsBuhmjwjFXaR/8FTu8CfcjItpyMkDLc9PjMW0BxUz0e8XhPZGBhDt6Evhirc2NgHcl8/UkaJAkX8tEo44bjKsQW/U7abuu5UUAGHSC7hqZV4da/MObIW6wOX2CwLdpinybktrM9BkqzCYsm2qDKiWqrBZMMae3SWpr3wAau/rAAFr7+qGOdluA8M3kpjxdjiCT6eRw81DAJrf7beUAbcbo0u2ZVS7vvI6A/6O0OpsG+ZkDMFfrfhcT6zRuLNX1WsdJoyy0leGBIw5DpTW7l7cp3INvbPgYXVHDWuUYDH+oWROtq7FxEE7v29CE35UqTQUwaQKQnzkAkX7xqErH604L0/J0qxYA7vbNyvrNB2KCdc28DIx5BK8umnds3YDWZRvCxG1ji+WSvLwBCPwKAxeNJtCtisMnRucAPHaFzG+Z43vLElAKwg3Dx/PLS+EoMRQv2RCnHGLHmkbNmlnGJwzcNVF+Al8MGvGVsBOrL9gcntgcoJuvZdIF397dEfBnxSs4VfIiAEFL35+VSMnNGJ0IloD4ztioMG5U/ThUbb1kIqWQ4lrkAqsjAlCR5lifKjbLmJ+M0B9u9t8aPzdgc3h3EEZ39mDgGCJ6KbY6eMy1Eu7AJG+7m58hoKlpgFieDyQNHNUnhbjg06wRDLf414I46bZ6xHgpFKjK2q7gqZI3W0CwpfFNAT4BmGDLGeZtUsplXTs3vRf3/KeIUODwbxPhVgDxBFkC9JsyOeVr+YinlFdVcGdzw1uYM+dwe7R0JcD/yMxVxNQeswUUfYZsAWvVYADX2Go9/yOEOJvBC4jJzIK3kkprg631DZn6maVL/o1BTU0DQeBRxP6P8hnchWAoVu8tSTNOIvkXgDwhpk1HyZlnwVRXB+7pReTtN9H/0gtAzr3ADi4OCgGoqlk4Myrk9HTKkpQzGDC0bNVU68CU1WtA1iHjXoUNptPPhGn2HPTc998ApzAR55E2i2wO72Kj/TZLsbdj16bdRstlm7wLgN3luVZleTOlufKY0/hqKj3/m6M3X4Nl4SJYjjwKkQ0pGB9HezuDCO8b7YNqkmx3ea4LBhr+w2jZbJJ3jyBmWoNshZNPQRaopASmuokXH1nc7oTld/ZkLeQxDV17Xsm7AGB0CXrmpCJGUiZ8xbOaWM9fXZTVl2b2rj1N8j4EjKGHCMZCzDLKGKk7evDAAKJbNsO8IP6THtmYOETymEBWIKAHBvrMjBUAypJmnCQONgFoS3Xx5jBDqmBD+xf3/uFBlK6+DuaKCl364GuvItpozD2Pgf0hA30eWhxaEIB8Itva0Lj6arx37HIcsdCDru5ubHppHb617/O3D3b+fAJjW9ONsfqxw+b03Gcl/qk2kFEuiHZ14V9vHJ2AL6u24VtHph5BxijVzsMPjbDlBkA6tJMVxeldK1j8pLNlU2POGk9AXiaBNpf3Ehb8NwDL9GdIEOiyCIuN6XxbG8E6xuGkSGTnQyQeFbXuJVGYNxLxpTG/Qh1nqiTftzk8hoa+bDHpAmB3uJcS414kDp06DYRnp8z2HZKsPmHSu+eoKeoFakqKsLQqFhTdRMCqGdVJSsQYGK8pTKg6nOpyTxdCPAtgwmshoJiIHrQ5fUdOlCdXTPoQwGS6CeCRm28qKsHU+Ysw0BVEcOeoJxQB082qXAPgh4nq61QPtCkoH9HLBXoHNUq6iSEAvztiLv4e6sahxVa4SlPb56ohPC5sYcKI6hEWazDm5nsrSmEVApu6ehCVIwJbJFjeAk1k0clgUgWgfMbiamBw5LVvshbhxJseQPnMWEiAwKvP4P37NbubMJ0H4EdI9JQFAv1wejcDcAOxiGNrd7fjrJnJn2izIBxXWZE03zCSGXftGBe6KNE2ugLgc7XieIenDqfPiMUI3hjuwTl/3zryVmGiEytq3JXZio2YCpM6BFiskTnaNqcv/MLIzQcA17JTUVGriw8xtazOMxVJINAj2uPrNzfjlzv3onMwO+Z1BrCluxcXb9yONzp0gcJU1SQenqhcbFeO0S14508pGbn5ALDIVobjq3QCaILZlLuZaBzy+hnIcSxvQui7VMpMySInmooH7o72Wy8HMAOIbXR827ZduG3brmx1NS4Mvr97x6YJ1yswS9I+Y6bkvu2TzqS+ASKDliZoQtLv3fQWOrf5R863vvNXhJp1v2dHW6AxafCI9q1bu6UQKwFkEmXTKG+F6cCPEmWI7f2LkViXjd29eGH/aOjL94MHsL5dF7hTRVRNGtkrm0zqG6B7z4Z2u8Pz1+HVMDIawfqbLsUhniVQIxG0bdFvF8Tgx5DCfjoA0LVz03tKnXspS/EIQb+oM8swgN+VRqzfC+1JtphzrUrkXTu0ly8A4PKN23FsZQUsAnirsxtRjV2CgRcnc/wH8vEVIPgaZlo2HMRYqlHs3fR2vKwdFmn5WbwTExHa2bgJWOW1u7auYuYzABwO8DSAMnUV7gHzHhC9AZIPhQKN8fdijwNF6CY285kYCi7FAN7uHB9wlIF+oaYexi5bTLoAhAKNG20O3wVM/FCCiN2dJCnNULFr1WAgjotZnujcXb/LXuv7Ggt+CuO31QUwEsv368FdDf5453NJXjSB4Zb6x4WKowF6FnpP2T4AD0NEj0w3IvnBSLC1/nWQ6UjEIo9q9wOIgPC0kLQk1Nzwl3z0LW9fAcFdfj+AU+2zFtuY+10UNaklqmXHnj0bsrpBxMFCKLAxAOD8adN8ZYNW1MEsBZn6A+kGoM4WebcGBmPx6zcBmunyZ5h9++p7cDCE0h3iYPAIKpBHCgLwOScnQ4AgHGJzeLMT87fAEBz3CyJTUtZNVtQtPFpIeR/iBHMmoIQn/qSbPFIxA3526AEQb6+dHVKIy1NdU5nyz6U4ve8DyKmTRoGssSHU7E8pUJaROUBWN1UskFPmppoxvTkAEayleXdpH0ekv1fn12+rKAdlwQLX09OLSHTUtGwpKQWJ3AaiMEqkr0drXZ0CrDIN7w+ciLQEwGQtwmn3/zWdojll3fUXIrhjNGrbhvXPoapSSVAiNc7/7g/x3EuvjBwvu/7XUJwpP2STwkvXnIuu1pENUUhxbSsPBZDUZGFkCBiZcHA0mtoCygKThsmsX+sYNVNKm24bEYCR3S2kGsXAgbxqMAuMoT/coT2MHGj6sGOivFoMDAH0iXb1Zc/+3SgqtyXIP/kUVeg/lV985VV84ejMPlx6enuxeaveR6NYSc2DeLJQB/owENa4ETD2IkU/ipQFgIgbmfGV4eO9m95C5ewFBrqZeypnu7F341sjx1f8+Pqst1E2dQaKbQfXvlF7/e9Caia/TKnbGlIeAoj5ae1x61svxfXpyyezT1qF4oqcKMxGOHzlt3Jafzq0vPGC7liQ/l4lImUB6GxueIeBkeVa3Z80I/DaM6kWnxSKym049gc/R7E9+69oEgLzTr0ArmWnZb3uTOjcvhm731+vTZIiakr5xhj6SLY5fVdrgzgXldtwwk2/Q9nUGUaqyTkD3WHseudldDQ1YCCU0lxoQshigeI4DDMWLzvohrxofy/+9u8XI9yi22vzD6Fmf0qh7AGjmnOXq1iR5R+DRrWCNsdsHL/mlwfdhPCzjhodxLt3r8GeDTrHqQGQaf6Q80lKGFNnhULR4orp20E4G0PCMxAOYve763DIgsUotlUlqaBANugPtePN23+E/Q36WEYEujHUvMnQuGxYn9nftW9riTJdBXDCcFqktxuB9U+hL9iOiprZsJaVG622QAoMdofx8XMP4917bkDPPv2iFyI8Fmz2J1xHGY90FeWkuHx3gvn78U4qrrmomrsQpfZqWKZkror9PBPt70Ffx36EAh+j/eONcb+8iPnFkmjR6en4U2ZkKbE5vN8hwj1IezetAplChPuDgaor0o0znLGpzF7n8UlJPyfglEzrKmCID5ixOtziz8gqlzX/GaXOezwkXwDQqQCmZaveAjq6ifCCZPpTuLn+CaSo7k1ELhyohFLn9pJqckjBMyBRmARkAIF7QdglSHzSae79EE1NWYtUWaBAgc87/w9hWC8IG1fN5gAAAABJRU5ErkJggg==;" vertex="1" parent="1">
          <mxGeometry x="691" y="1038" width="50" height="50" as="geometry" />
        </mxCell>
        <mxCell id="WDh5IYlVzA6w8aevfNZZ-76" value="" style="shape=flexArrow;endArrow=classic;html=1;rounded=0;fillColor=#FFFF66;strokeColor=#b46504;" edge="1" parent="1">
          <mxGeometry width="50" height="50" relative="1" as="geometry">
            <mxPoint x="717.66" y="1127" as="sourcePoint" />
            <mxPoint x="717.66" y="1168" as="targetPoint" />
          </mxGeometry>
        </mxCell>
        <mxCell id="WDh5IYlVzA6w8aevfNZZ-77" value="&lt;div&gt;策略搜尋與回答&lt;/div&gt;" style="text;html=1;align=center;verticalAlign=middle;resizable=0;points=[];autosize=1;strokeColor=none;fillColor=none;fontStyle=0" vertex="1" parent="1">
          <mxGeometry x="903" y="1097" width="110" height="30" as="geometry" />
        </mxCell>
        <mxCell id="WDh5IYlVzA6w8aevfNZZ-78" value="&lt;div&gt;自然語言輸入解析模組&lt;/div&gt;&lt;div&gt;（LLM → intent parsing）&lt;br&gt;&lt;/div&gt;" style="text;html=1;align=center;verticalAlign=middle;resizable=0;points=[];autosize=1;strokeColor=none;fillColor=none;fontStyle=0" vertex="1" parent="1">
          <mxGeometry x="878" y="997" width="160" height="40" as="geometry" />
        </mxCell>
        <mxCell id="WDh5IYlVzA6w8aevfNZZ-79" value="&lt;div&gt;AI 輔助推演與推薦&lt;/div&gt;&lt;div&gt;（如情境模擬路徑、風險預警&lt;br&gt;&lt;/div&gt;" style="text;html=1;align=center;verticalAlign=middle;resizable=0;points=[];autosize=1;strokeColor=none;fillColor=none;fontStyle=0" vertex="1" parent="1">
          <mxGeometry x="872" y="1186" width="180" height="40" as="geometry" />
        </mxCell>
        <mxCell id="WDh5IYlVzA6w8aevfNZZ-80" value="&lt;div&gt;&lt;br&gt;&lt;/div&gt;" style="text;html=1;align=center;verticalAlign=middle;resizable=0;points=[];autosize=1;strokeColor=none;fillColor=none;fontStyle=0" vertex="1" parent="1">
          <mxGeometry x="1018" y="1073" width="20" height="30" as="geometry" />
        </mxCell>
        <mxCell id="WDh5IYlVzA6w8aevfNZZ-81" value="輸出：策略建議、風險提示、對應數據與文獻說明&lt;br&gt;" style="text;align=center;verticalAlign=middle;resizable=0;points=[];autosize=1;strokeColor=#36393d;fillColor=#ffff88;fontStyle=0;horizontal=1;html=1;flipV=0;flipH=1;" vertex="1" parent="1">
          <mxGeometry x="817" y="1231" width="290" height="30" as="geometry" />
        </mxCell>
        <mxCell id="WDh5IYlVzA6w8aevfNZZ-82" value="" style="shape=image;verticalLabelPosition=bottom;labelBackgroundColor=default;verticalAlign=top;aspect=fixed;imageAspect=0;image=data:image/png,iVBORw0KGgoAAAANSUhEUgAAAIAAAACACAYAAADDPmHLAAAACXBIWXMAAB2HAAAdhwGP5fFlAAAAGXRFWHRTb2Z0d2FyZQB3d3cuaW5rc2NhcGUub3Jnm+48GgAAEStJREFUeJztnXl4FkWawH8hCWe4QiCoXCJHQK6EGxFlUETAQViXkVGYwQNHzcy6O4sysIuMuozH6PgM6Ay6iozjeswIKpGoQ0LkEAiQcIQrIAwEMIGEEBIggSTf/lH5SHd1d77u726+/j1PnidVXV91ddXbdbz11tvg4ODgYAdigceBTUA54AqzvwogG/h3oGmA6iBiSURUbqgb2exfHtA1IDURgcQAWwl9o3ojBM0CUB8RxyOEvjG9/ZsbgPrwK1GhLoAJ1gG3uwNDxkzkyWeXkZDYKXQl0qG46ARLF81hx4Z0ZfRuYGCIimQKOwhAEdDBHVieURB2je+muLCA2Xd0UUZdQUwIa0NTIs80CnUBTNBBGQjXxgdI6NhZjoolzFcEdhAAhwDiCECE4whAhOMIQITjCECE4whAhOMIQITjCECE4whAhBMT6gIEinv6qbXcq/Ncfr1+reD0ABGOIwARjiMAEY4dtoNVg2+4j8Xy3AFoAVwMQVFM4fQAEY4jABGOIwARjiMAEY4jABGOIwARjiMAEY4jABGOIwARjh0EoFwZKC46EapyeKS4sECOugJUhqAoprGDAOxTBpYumqNX0SGnuLCApYvmyNH7CONTQWCPvYBUYImvmcR3uJ7UZ5cx9LbJDabbuu4L3nzuF5w984OvtwRxOPT3/sgoUNhBABoDW4BkXzNq3bY9yzMKiG3cRPf6lctVzB7XmbLSM77eCsTx8GHAJX9kFijsMARcBiYDub5mVFZ6huys1YbXs7NW+6vxdwOTCPPGB3sIAMApYARiONiMcMfiFRmfr/DqmgkuIBxZ/BvizT/uS2bBwg5DgK8kAznuQHR0DMszCmib0FGV6FxJEbPHdaa6+ooyejTCJ9E1i116AF/IBXa5AzU11WSlfaBJtG71+3LjHwK+C3jpQkwkCACAqm9f+9lyTYLML97X+014mx/5gUgRgA8QShkAjh/ey+F9O65ePLR3O//M361MXwtoJOJaJFIE4DSwRhmRqZjwZWonfxnYZBLnYJ6pKDx4tWwd71qZU+lalVvlatU2Qfbu9dMQljOoXLMng3RIA84A7QHKy86y7ds0XC4X50uLlenOA5+FoHwhITrUBQgitcANCH0CAJerLnHkwE5OHctXplsBrApy2RyCxCAUXX10dIwrOjpG7v5HhbB8DkEgF2PPnvlEhnLsKpGyClDSkL53ORGw9o902gFVaN/+GkDj6dHh2mQVWgH4KqQlcggq96IVgBkhLZFDUIkFfqC+8UtwfPtHHHcDBQhbg3tDXBYHBwcHBwcHBwcHBwcHBwcHBwcHBwcHB4eAEAnmTy0QZ/xSgN5AEsIyuG3dNRAHO0sR5wcO1v3tADYSxn5+HYxJBJ4CNiCOl3v79e8qYD3ixK/qE7YO4cmtwBeIY2D+/hT8ZeBzRG/iEGbcjnhT/d3oRn9ZwJggPFfAsfscoCPCB88DDSXq3b0Nt4+4jkF929HrxjZ0vSGO+DZNiGsRC0DFhSucPVfFsZMVHDxyjl37S1i3+RT5R8saytYF/BXhB6jIP48TfOwsAP8C/C/QRu/iwD7tmDWtJ9Mn30Snji30knik4IcKPkk7wl9W5rP7wFmjZKXAw9j0NJEdBaAx8CrCXYyKqCiYOLYL859IZtTgRL/edNP2Qha/uZP0rOO4tCcHXMAfgacRcwXbYDcBaAmsBO6QLwzp3543nr+FYQMDO1nfknuaJxduJCevWO/yN4ieyWsfRsHGTgKQAKQDQ5SRTZtE89K84Tw582aio4PzODU1LpasyGPeS9lUXa6RL28DJgK6EhJu2EUAWgKZSI3fs1trPl46juSbE0JSqJy8YqanruX7Y+flS9uAH2GDnsAOAtAY+BKp2x+ZkkjaOxOIb6Pv9DFYlJRWMumhr9i687R86WvgHhSuacIRf/gHCLQQvQ7cr4wYf2sn1iy/m1YtGwf41p5p3iyGGT/uwbbdZzhyXNUT9ED0XF8H8PY+172vGTyH0Ks/7mtBDLgP+JsyYvigDmR8MJkWzcPLucnFS9WMn7WGTdsLldEuxKQwUEvE1xGrjqe9zcCXHmAxsAAxLlchNk78SUfE29PUHdGzW2vWfXgPrcPgzZeJjW3ElDu78vf0o5SWVbmjo4A7gfcQG07+ZB6i/m9BuPpZ500m3grAw8ArivA44DCwx8v89FgGDHUHmjSOJv29u+nepZUfb+FfmjeLYfSQjqz4NJ+amqvKgmaIjSR/+h16AHiD+h58DHAM2Gk1I28cRIyou7mSEmCvF3kZcTvSad2XfzOclH6hme1bYXD/BBbPHSpHz8K/m0h7AVk1+WeEj2JLWJ0DNEVIWW9FXDliF26X7i+8Y31dnoCo1K2rpgZtne8rNTUuhk5ZRe5elSpgHWJp6C+SEfUUp4g7UBdv+islVnuAhagbvxaYiX8b/1YUjR8VBW8+P9o2jQ8QHR3F0t/eIkePRYzX/iIX+BlqlzZJwH9ZycSKAHQG/kOKW4LYI9djkJWCKJirDEwc2yXg6t1AMGpwIhNu03icmauX1gQDDeJXoh2Of41wh2cKKwIwH1BqXY4iZqF6/AThon2+hfxBWPLcrbrpEz5/KCRkLEjVlH0idY4qLTAXUZdGHkzmo3Zr2xQL9W5WANoBs6W4hegvbW4E3kLML/4HsUtm9j4/ReG9dFDfdn7f1Qsmo4d0pH/veGVULJJSqwGigEXAy4j6exvoqZOuHNEWSh5GtJlHzGpTHkT99h8EPjRI+yqgXKs9jhCIPBP3maYMzJyq97yeScs8zmPz13OqSG3P2fm6ON5+cQx3jelk+Nu3PtzPY/M3eLzHo/cn8dbvPBsFzZzWk6d/t1UZNQ1zH8HqjfpNboFYeut5M/krojd2V1gTxMvk8T5m38yfSeE/I9yqyfQDpkhxCzDX+C2QljHTJ99ksnj11Na6eOSZbzWND8LA47H56y3n6QvTJ2meYSTm/BEdAH4jxU1BoRtRUIPQmyiZZaZ8ZgQgEfWE7gpC4vR4TspzK2qFUUOMRmz8AMKMyxtLnn2HSykqNv5W07GTFRwtKDe87m+63hBHj64q5VUTzK8GXkP71RKjWf77QLUinIKJ+YYZARiHWl+wFf297laIr3spWYR5z5uDlYGxI683+TM1m3M0u3I6aYJrwvejUZpJ+RC9dDq4gN9KcZOAeJ20p4FsRbgRou0axIwAyIVda5BuPGKS42Y/1pwvKvULDOyj94yekRt34a9SePGZYQ2mUTJnRh9cR+fgOjqHZYtvVV179P6kq9fMjP9uBiRpnqWX6R8LKyPlEBqN2F/QQ24bveFChRkB6CuFjb7fN0EKr9FNZYyqUnrdqGvr6RG5cUemJDIyRb2S2Jwb3B6g902aZ+mtl64B5LqU69qNvBeQ5CljMwLQQwofMEjXRwr/w0TeSlTfcevepaXFn8O585dVptxRUTBsYAeGDmhP49j6R9217ywXLlbrZREQunfWPMt1FrOQ69JIObJfCntcRpkRAFl8C3VTSQ2IUBRZQTVTahVnfct3c04RtbX1U44+PdoS36YJzZrGMCCpfllcXVPLjjy/fCHUFDqGK1al+59SuKtBOrltPHajZgRAWVgXxvvassbGaj8bpwq0iDVKZ4he96/3v17aQNJS+yxWBUD+knUr9DfyylFPuj3unQfyewFB373RCEBy/R7CyJQOUlrPq4UwImDtZEYTWE69WjEKobDRmMEiuh+l1qMjcM5CWSpQLG8qLlyxZPBZW+ti2251t/7IvPU8Mk9f8RPMHqD8gsYu1KoiQu5dz6O/vJZ7hgbPtoE5ySqVwvJY70Yef7qZyFuJSqjKyq0dsNl7qNTSb06XXAqaQqjsvKZcVm98oxQ+ZpBOFhS/CMD3UthoaSHPQDWndzygEiCrjePNGx2sXuDoCc2zyGO6J+S6NFqKyyuxQ54yNiMA+6RwikE6Wekz0UTeSlTfbss/amX0CG8BOPi95lkOWsxikhQ2UrDJy0P5pdRgZg6wXQqPQ6h4Zf6B2CdwT3n7IPb2003cAyT9ws59JSZ/JpAndVkf3cNtw9XL7TXrjjPpofq601MINbQb+PZHB3j7I1FMs7uBALv2a57FigDcBdysCNdgrGORewq57TSY6QEyUE84hqO/yXAeWC3FLcL8aiBHGcjaYr6XLC2rUvUY0dFRDO6vNSAdkZxIlKI0wVIIZW4+JUd5bJg6ooBnpbgv0RqEghj/larfWkTbNYgZAShCrWKMRdgH6PFs3Y3dDMP8oQW3Px8ADh45R8EP5o7Wbc4pUh3ZHpDUjrjmWj1CfJsmKhVzMBRCx05WyGcHK9Hu8Bnxa8T2sRsX8IJB2gdR9+g7EJ/KbRCz68u/SOHH0D9TkIfW/v0FhJ2AJy4idhqv8knaEVOFk7t/ec2vZESyrA8I7Dzg4zR5Ds1mwHi/up4kxOEbJZ8jDp7KxCDaRIncZrqY7Z4TgBOorYJmIfagZToBuxFu2EBYpTyFumcw4ingD+5Av17x7Pn6PpNFDE8GTPg7ew6qeuxUtIaceri7f/cQUIGY5B3WSftzxEcv3VQiDEMN3Zq4MdsDFEs3AGH8EaeT9gRCGmsR1kC/wlzjA/wfitO0efln5bN2tmLDtkK58S8DH5v8uQsxh3oaUX+Pot/4LRFtoeRdTDQ+WFMxLkacAXTTDW0X5eZvCAMPo+tGnEZaNSx+0/Jpp7DhhSU5ctQarDuOeAWx9P7I4PqLqL94WomFerciAAUIEyUlqcBUg/TetpzKhCw96zhbcm2ltwdg4/ZCvtlwQo42ax4nY3Tw5j60J7N/D5w0m7E/joZVIA4nGmmnvOFbFH74UvolkP2ZvY6GDfnxSlmXkYF17WhDpCCOhikNJ/cj5glVur/QweouUyXCQlh5gziEYsLbk0B6/DcK3UNOXjFLVpgxLA4P/vDuHrnxXWht930hGWEqpmx8vbbxiDfbjFuBJ6S4eNTaKl9ZD3ygjJj3UjY79oS/36Vtu8+w4JVsOfo9zK/9zdAXrWHoL9BfIjaIt/4BchEKIXc3PR/4k5d5GfEd4oRLMxDdasZ3J3lgSg+aNwsv7yBuzpyt5K5ZaygpVb2EJYjDHP70Or4H8aa7h5TnEd5CLOOLh5DMut/vR3uAwR9cQJyDn0HdXKW0rIp1m08xY0oPGsf6w72R/7h4qZqJs9PlZZ8L4cxBsxzwAxsRupYNWD+DeRV/zKqiMG/77w2vI9y1X+XO0Z1YtWx82PgJqrh4halzvmHtJs3k+1XgPwN4a5/r3g7T6saITabxysjhgzrw5bsTaNe2qf6vgsSZs5VMfugrsndplqrpiKNcYe0mzg4CAGKlkYl00KF7l1Z8svQO3Z2/YLBt9xl+krpWz3glG+ENxN+OofxOeA2kxlxGuFobi8L5QWlZFSs+zad5sxiGDexAo0bBkefq6lpee2cPDz6VKU/4QDT+REyYY4UDdukB3MQBnyINByB8Cbzx3OiA+xPYuL2Q1IWb9Iw8QHT7/4oN3nw3dhMAEMvPlxETQ035J9zWmQWpyYweYmS76h0bthXywpIcPfUuiInYa4jVUFiP+TJ2FAA39wLvoH9Slv6945k5rSfTJ91E1xv0Ni09c+xkBR+nfc/7Kw+Rl2+4uVaC8J4iW0PZAjsLAAgHjC8jbBMMn6VH11aMHXk9g/om0Kt7a7p1akl8a/UnY0rOVXLsZAX5R8rI3VtM1pZTHNZ6AVfiQmj4nsGE5Y1DYBmN8MMXrI9GZQCjgvJkDpa4BbFa8OVbgUZ/VXV5Ow1vA9oDv0T0CpV43+iXEPqHVIRZ3DWH3ecAZmiG6BmGIJxQJCFMqNtQb9JWjli3FyLOJ+QjrGo3Yc6A08HBwcGG/D91UK6WGXT6CwAAAABJRU5ErkJggg==;" vertex="1" parent="1">
          <mxGeometry x="932.5" y="1127" width="59" height="59" as="geometry" />
        </mxCell>
        <mxCell id="WDh5IYlVzA6w8aevfNZZ-83" value="" style="shape=image;verticalLabelPosition=bottom;labelBackgroundColor=default;verticalAlign=top;aspect=fixed;imageAspect=0;image=data:image/png,iVBORw0KGgoAAAANSUhEUgAAAIAAAACACAYAAADDPmHLAAAACXBIWXMAAA7DAAAOwwHHb6hkAAAAGXRFWHRTb2Z0d2FyZQB3d3cuaW5rc2NhcGUub3Jnm+48GgAAG4tJREFUeJztnXmUXNV17n/73qrqeZB60Iwk0IQGhoAYBBLIMrzYgSQCCwgLEwwiKNh+JnnJix1PsrOCHS+vxCROnhcmnrAdAsbGPBtCBJaEzDKThQENSCAkJKFWd6sH9VzDPfv9UVXd1VW3qmu4VdXN49M6q1pVdU+dc/Z39t5nnwnex/t4H///QspdgEKgqvLDXq4Q5WqFtQrzBZoAG6EX5Q3gRUv4xc2N7BIRzS5fhIFN64wj1whchLAMaCDaXj3Am6q8YKFP0LBih8hWU7xaFhdTkgAPq9pDPdwhyl8CS7N87A1VvnKkiR9uFXEVmOpWi959H1XRTwPLssz3sIh8lvqHHxIhK4JNJkw5Any3W1eJ8u/A6jyzeB6bW25rlEOJb+rpTYvU8CPgorxyFZ6XiHW7NP/n/jzLVRZMKQJ8p1OvQfgPoLbArE6rsvGOFtkOoL0f2aBGfgrUF5hvjwgbZdojOwvMp2SYMgT4Xrd+NmL4MmB5lGVQ4cOb2SQKv0So8CZbCYktX5LGh+/1Jr/iYkoQ4Ftt+pGIzcOqiC3g86jUgvbfITcYog5e4VAFE81YLK6T5kcf8yTfImLSE+Cf39SKwRrtdpTq+Hs+gXqfYHlQ+j9jU+GZqELQib7G37Jk2LJam2X2/UOF/0Dx4Ct3ASZCTyXf7Q+NCX/0/bAyu0IIFGoQshsZpoej0B8i2f8XqCLQfj9wS2E/UFxMag3wsKq9420dDit+t899AotrhIoCSPDnfCT/hyMG6QmCSUMiSyIsv6hKZGsk/x8pLsqiAe47qStt4WoVVqMsA5qJBnAEOA10AK+/2UakO4LfydBJB/uV8+vEM78gaxhFOoYhkiEGJOIzx3/3Haf9eltgFUgraANgAwPAUeCgKL9BeEZmPPpaaQqfUMRS/dDWvRpobOGPRPkrchhrjxjY26+cDKZnwewK4fyG/KrySb0+r+fk5BAMhNN/odaHtlSBnYt60n0CD2D5vi2tjwzkVbAcUXQCqKp84yR3I3wBaM03nz39yusD6UmwbrowpyL36nwqHwL0h5F3BtN+rDMqoaUy93zH0CUif8eMrn8V2VFU81FUAvxTmy5Q4d+BD3iR355+5bkedxJM88OmmRaSY43uMdfl9oACe/qiqskN86ug1aOQAuwWx7pJ5j36plcZJsOroEoKvt6uVznwulE+YDTqJxWaltcKcyuhN6Ip6fCw8sag5pxnzugMQY+BYVJTrd9L4QP8ntrmt9p23R94mWkiikKAr7Xph43hcQO1hmhsxKu0vinay09HUtOvezTn/NAc0+EQDJGasGBxTe75TZzq1OhjeuK6mwsQSVp4Pgq4t00/bFR/BgS8zhuiQ7/L64VftKV233cjitHU9zMix+9rexjcrPLSAGJpSjzAI/hU9Xt67I96Zd7Pn/AyY081wD8c17mi+gOFgPcdYSyd2yjMMEJ1cHxqVck5r9wLYLn2fplbUbwKR5Nfkf/Ud/8w2+nvrOAZAbaqWhFLf2CUJq9sfrpkARtmCdUhoSoYTdVBYV2r5O4D5JqWV6LDOpZGgHOqou50cQkASq061o9UN9leyc0zE+B7l3uMsN6r/CbCwunwx0vgUIeAwKJWpbUhZtdzQY4mQBb44epaOBAL/y4LILN9OedTAC7gaPhu4F+8yMyTYeBXD2lDsELfBqZ7kV8p8fnIxnIXIR90SXVggRfBIk9MwFAFmw1M99rjL0WaomhiMLzZi4y8MQGqd5ZMAXqN0qluT6HoZuAbheZTsAb4/HE918DScvfkvDVA8R23YqUV+ua1K7ISUgYUrAEihqsm9ZzyRJiaCiAKSz4I7C0ki4IJYEQvLnRNRVkxRU0AgIFLgfsKyaNgAqhh6dRtQqa0BhCk4KBQ4QSAuYXmUV5MYQagBbd94SZAC16jX15MZflDXaEZFE6AKT2cLnxNaJlRcOm90AC9wIxC8ykbprATCPQWmkHeBNiqanUd5jpFU5ZsT1ZISJGwQUYM1ohBQoZjwTMJBEJUVA4TCATxVwTx+zOs9ZtcqNE3rvkISy/8ab47lPMawn/iiH4Io18DVubzfDFhBZVAR5hAZxjfqQi+zjD+9jB2VxgcgxpFNZaIvqIJ76kiVoTG6V00t3TQ1NJJU0snzS2dzJjVTkVlsNxVdMMeVP9aVjzxX7k+mBMB/uKYVgXD5qsgn8z12WJBIkpVW5jqYyGqDoWoOhJMFbQh4e+JCZD8+SgxxDBz9gnOWnyI+We+w8KzDlNRGSp3EyTiQRi6W1bsyHqSKGshbnlLW1X0KYHz8iubd7BCSuP+ERr3B6k6HkJCJrOgPSJAYgLF9oU5Y8FRzrvgdVadv4/KSaEddDcBfl8WP9mZzbezIsDmN3WuZek2sj80wXso1J4I07QvSOO+Eaygpgq1xARI/L/tC3P2yoNcsPo1lq04hGWVdXC0H5/vg7Ls8RMTfXFCAtx2WCv9jv4auMCTouUIy0DrayPM3D2C/7STWahlJEBiapx2mnUfeJ7L1u7G9jnlaDaA39Ffu0bWPDKc6UsTEuD2N53viMjHvCtX9qjsM5z9fwep7IpkJ9RJQoD4szNndnL7XY/Q3FLwaC1ffEfOefKOTF/ISIDbD+oHVXSbt2XKDlV9hnMe7cc/6KLqpwgBVJWaqkHu+csHaZ7VXY5mBPRDcu5TaUcHadcDXLldfQ76jWIv8HRdqOnA2U8O4R+e0kEaAAaGqrn//1xPeMAuz7oB+Ed9+QLX3dWQgQBzZ3OzgRXlWKQxa2+Qmu6y2U7P0X6qiZ3/tRozIqUngJGzsVtvSFe2DCuCdHNMO5Y2GZj3+pSJxGWNnS9ewPCJSkywNOvHk1iQdv2gKwFueUsXGbi8HL1/2okIlQNTen7JFaf7azl0ZB7BExWYEavUHLhCX/rgmW7lciWAE2aDUaQc9n/WwUl7mEbB2L3nbHCkHCQQxHbdoe1OAMyacvR+K6TMOPLeJcDrb51JMOgHB4InAjGfwCvbOVEya9zK5EoARc4th/2fdTiCnek8mCmOUNjPawcXRf9jhGBbCTUBlmsI35UABm02KKVOs95+7zl/yXj1wJIxoTilJIE2u5XHdT2A0dJv8bIcaOp47zl/yTh8fBbhiI3fFzN1BoInK6iYOYJVUdT6uxIgjQZAS23/p3cYrPfO0D8two6Pd07MHN87HQi2VRZbE7i2bjoN0AnM96LC2aKlzVvpW7Zw2Y2NrFhbgyrs3TnAzh934+R1LgzYPmHDrbM4b8N0VOGVp7vY9r3jRMK553fo+FwWzTs2/s24JphRNE3Q4fZmGidQO0rhlySm1pPeVvrymxq44EN1VNZaVNVZXHhNPetunpZ3fhtuncXaTTOom+6nvsnPFTfO5Krb5uSV15vvzHVvBAeCJysxwaJoguwJYFT2lnLs7wsp07q80wD+SmHV+tTV6uddVU+gKr/tkOdtSCXP713lalYnxLGOGYyEAulJ0FYMEojrFrJ0GmB7Ke1/Xa/xdHn24tXV+F3ODPRXCEsurskrz7rpqfMpbu9lA2Ms2rsy+NmG6Ogg6GGcwJjtbj/l3h0c+1cmOnNaEg1Qd9pD6QPL1qRfqLxi3eTYx9LRPS1zjzXipTlQLN3hVg5XAjx5rhwHecZTDZQh1fd5R4DaaTZzl6U/q++MlVXUN5f/kPRTPY0Tf8kIwfZKTKjgI9G3yZpfvev2SdqcHcx9JdMAfd45gEvXVCMZ2ksEzr68/Fqgo2dadqrbiY4OCjIHOGl3EKdtqrUr7ScM7CmFD9DgoQZYdmnVhN9ZeWXBW+oKRmfPBCYgMTkFmYPXuWz7k+nKkZYAW0UMam02Gh06F1UDDHqjAVrm+2maO7Fj1jw3wIyFnh7pmjO6Tud4P1XcHORGAgP655mus8toXLafKy848M2izgA60ZW/XmDZmol7fxwrriivFgg7PiKRHHu0kzMJ7pN125/LVI4JvQtRKoo5A+jLI5LmWk4Lllyc/TbFlevqsOzybm4KpYsFeEUCZEI1l5EAl74SudmBLcXUAF4RYN7yCqobUqsz6gclobrBZsE52WuMYmAk5M/HpoMjhDtiJMjUuI7erU9vuClTGdISYM2r2qrIPxfb/tsezQCnG/sf2zfCsX0jrp+tvKLQeyILQ14aQKMjGVVDpMeHhiZYaIr+iz6xtiVdGdISIKLmSwaaij0C8EID+CuEhee539Cxb9cg+3a53+6x5KLavEPDXmA4mPuB6tELMRzEim6ADffZaDgjCZoJ+L6YLj/X2p+/W+cbwx2liAF4YQDOurDSNfQbCSlvvTTEwRcGCbvcOeSvEJZeUsaYQK49H4gLH1HEjn7gDArqZHjWyJ361NXz3IrgSgALs0XBn495yjUFPbjua+ml7ur/rZeHCI0YwiPKoZfd729cVUYzUBUI5aT2EQexY8K3oh+IxEgwBBpJ+3wADW9xK4Ob12QZ5dZSRQGDBUZlaxpt5ixxV6X7fz2m+vfuct8yP39VddlCwwFfdgRIVPswXvhxAgiKhsyYWk1OyK2qqVsBUwhw/itcbGB2KSKABhgpUAMsuaTSNfQ71OdwdO+Y8/fO68MM9qZOOYvA8rXl0QKVWRxFk5Xw41OpCiak6Ugwl6c+sDo5/xTqO2rWuw2bioWRAsfiSy52H8pV19t86vtnZJXHOesb+M1PuwoqRz4Y1QBpMKr2rQS1L+7Cj9+VIoCJRFdEpfR3lSuBFxPfSuk7RmV1KWx/PIVtcPJ0xJvn+WiaU7j6bp4XYOaZBd3zlzP8dgTbSjjvQF12H+OARNdMj74m/i0GjXp50VcBE537RyMOamJH5Ywmc3FyOVwIoItLZf/jqbc6PwYsucS7QM7KK0trBqbX9U3g7ZuY2jcZ1X48zB+NDUQ1QHz3IXEyjeW9KLkcKS3vwJxS2f946qrL3QyIBYsv8q7XrryioaSh4daG7gzevol5+yYLtZ8kfAUViZLACJLsByQhhQCq1JRaA3TV5q4B5i0PUF3vXRCnpsFm4bn5LRfLBy0NPSnvRR2+pJ6fi/CJCV9BNUoCzLggUUrQI9UEQLjUGqAzDw2w5GLvbfaq9Q2e55kOLfW92at9xogAmdS+i/Ah8XdSGjrFg9Lo8uEFntZ2ApyqyZ0As5e6j/23PdDDvl2DGY+IWXllLR/+eOo91vNXlu7Q05b67tERgFjE1H0amz9KAhfhS5LwJUH4o87AKFIOK3LRANpZag3Q1mCNkjVbuH09ElIOvZzxUCwADjzvHhrOdPF0f1fqmL3vVH6HRFpimBnzAcapfcng8AmITtDzY68uPZ/YYCHlEmqXUYB1tNQ+wLAttDXmdhfigedTZ/he3TZIaCRVsMkIDRteeep06vPPpL4Xx+9+lWqzdz+dX+xgXlM7Ff5Q7jZf0gifLISvoJJKABcToM+qcH1eNSsAb7VYzM6hPV98PKrml1xShQjsf26IFx7rz/r5HT/sQlVZtb4eVXh1Wy87f5z+cM1nftCGqnLehuh6/lee7uLp77sutJ0Qi2YeG7P5YkBjwtcEmx/7Oyr3DD2fBJuvrmp/FJam3i+UovTOeDG4wnHsPXnVrAAs6jTc/uuRcbZaVSHJfk+1Y+JSnlPlrqse4ayZR1OHetb4aF+0x8derWhoSIgRQST6SpLwM0CMs1xuenZ/4nspJuDo6sA+hXddNEhR0+Emi0j5puZLBr8d4YzmE/kN9dSl50+g9hPSwWThg9tsoIiqkW+V2g8ICRxpeu8zYOGM4wT8IcZ5+2QhfAoSPmr0YbfyuLa4Lda/GRgs9WjgFQ/i+pMd581/A9ehXqLw3bx9zV/4KINWOOB62bQrAY6vkW6F75ZaC/xutk24zCt1i4mAL8w5C/anBnkm8vYLEz6KfFNu/e/st4cDRAL25xSOF2LXc03DfuG12bkNB6cSVp1xgMqKION6vluED++Ej9Juqfl6ujKlJUDPhXLawJZSa4EX5713zcDqRa+RovZHhV4U4auobpabd5xKV6aMXlfPZb5fKvxrKf2AA802PWVcqVssNFT3c2brO1GHDwVNEH5syjY6gxfz9nVM6GoEMYATm9jJsjHV8E25ZccvMpVrwpbuvcz+n6o8VCoN4AC/Ouu9pwXWL/8NtmVSbX6m8C5593xQfmoN9/2vico1cVcTMX3T7T81yhOl0gK7FgZo83Cqt9yY1djBpUt+m2rzk4WvCcLXQoQvj8lI301y128nXHSYXSuvkNDgSfsP1eiXVDHF3CuoCmGB+y+uYtA/9UcENRVD3LbuYXx2dM12is3PJHzI2ear8o8SPH1DNsKPliNHVO2KbFTlASj+YZKzepW7fjNE8+DUvDJmRn07f7r2IZrqut3DuwIp4V1iJBAYndLNDl2C3ia3Z7b5ycivi23X2oBlPg76WTy4wDgTqkPC/9gT4pLjw9SMTI1Lo+oqTrNu2XNcsuilaM8f3chRFOEPKTxg+f1/n26snwmF6dhndI7PF7kTuBGkaFfKBcLC3E6LxV0hVp4cZkF3EJzJRQDBYVHLW1y48CWWzjoQdfjiNt/SscUcicKPT97lJ/wDKjxsWfpv8rEdJ/NtW++M7LPBcyxjPwqpK0+9QEVYmNNlYRuoChsWdwY5q3OEWb0h7Eh5Lo70WWHmNhzh7Jn7WDFrL9VVA9HZvcStW54LXw9alnWD3LH9VS/a1VMvy94e+RZwl5d5JiIQGSNBHKLQMhBmXneQOZ1BZvcEkWJdHYuhteYEC6YdYuH0Q5wx7Qh+XyhaCEtHp3bHefuJwrdiDl8hPV+5z96y4x6v2tTTAbcFz2sRCRD2KSeaDLMTSKACHXV+Our8/HZ+LYGIMm0gzLT+MA2DYeoHwjT2hakbDCNZ3kVgi0N91SmaqjporOykqeoU06s6aanpIGAHY4KNr+SJCR8zPrafztuHsbV7miB8J/NijjhUZVceTZcWnhIgHLQf9wecIFC0E5jCttI23TCre7wmiCPkE9obA7Q3pi4atY3ijxj84ViKGB5o+xsCVoiAPUKFPYzPCuOz0o+gomP4+Bq+NMJPjO1rQs8noefnIXwgaFu6M4tmyhrehtx+X7rlmcgTwEZP801C2FZOTjPM7HEnQTo4luAEbEYCYxNOc/oPZ/38OOETVfNgUufzlTESJEf4JCHCl5vwAR6Su9LH9fOB5+E2dcy9omg8nl2sFLaV9kaDKbQGWUbXhHhPn0D4uEzsaNLEjokFeZzcInyWwzcLrG0KPCdA+OrAyxbW40LqPysEgW5DRZfBN4jLN3L7F/ZROAlyEb6bzU+e1VMX4TOB8Cv60Po2tO4k6htxL4PyE/nkjpcLqKkrijPrIvJxy+haEqKF1oji63ZGVZ017GBFLJwCY/4RGzoaDa29lmfnDSYiRe1ncvg07vUnqH0ZU/dqUtW+1p6CmoR7hSv7oGcOhBK2qSmnxNif8L52RdAAAMMb5F1LdUvcFFgRxdczJvzRHx8wiCncHEQs6GzIUxPk0vMT1b6b8HHp+Zqh56NQnbrfQBtOgkRi5VCjIlvknmfa86jdhCjalNvA1b5HLPi0KFh9JjrNl4TYaMoTnyBiwan6PEjgpc1PntjJJHwFiFU+GZaD1p0iVoS/8n1y+6M51iprFHXOtf9q+2sSMl+10t0C7o+qRK8cw4gFXXUmt21m2QpfE3q+xl9jPd/EBO6kWcyhQMRlMUfERkJpRsyV/eAb/jv7np3/lENtckbRJ937r/V/Ruq4Fyt1oGPqrdHhkVcpYkNXfQ4kyLbnp7P5kBrkIWk+P4O3r70zQJMKa2yjQw1b7Y+/8IUsa5E3SrLqouf6is/6quUiDTA2aVFjIT4pyhDRsaA7W02QKPxRYedp85OFH1/GlfQ7434zWAkDY9vSJVh9wh6YfqH/Y/u+VEibZwtP5wKyQeOjkY9KUL+idTKHIi8B9zkwbcDCSmOBAHa/cS2QIHw7Jnw7oecnnsnnNrED44M8JG3Rngj+EDqt/TjBmr/w3fnaTwqqdI4oOQHimPZLZwAo+pEcPgONGUiwe/+142P7omNDPSvB4YvP52cjfIVs9uoloN/+6x1lOauubAvvRGkvhvpPMQcCp2vSm4OsbL5ogn8wgdpX8lnAmfd8fqEo2/JbS+UAomeW4reMBX01hoZBy2XUlaXNj3v9brF9dVH7GcxOMgQOFlzJPFG+pbci/y0qlCoZEfqqNcXhzjrIkyj8dD0/x9j+6EhA9aliN3c6lI0AfuFnAuFSmIF4MgL9VUkkUBfhq44J3cTVf2ycH3MT4l7+6KYNt3F+dilsRfSxkjV8EspGgLY/kHdw9EelJECcBAOVCSRwE74k9HxiwjcJal+96flRwsj35HPPJt0kXTqUdfeFz7a+KNDjdTBoomQsGBwlQZLajzt8yeN8GCd0T4Sv2m1F9MtetmmuKCsBTlwrR8XInVKC9QNummCwUlNtvpLe2/dU+KjCZtm643gJmzwFZd9/1bZRHkVliyim1CRQwGclkoAEEhRX+KCf8n1u589K2NSuKDsBANo2yv2icpMoPaUmQXzMH5WJGV3ybWJOIBrdtIrq6Ks6URlm3BmUPnWryib78ztdT+woNSYFAQDevU4esWxZKaoPihJyFZZRwkGH4IiDEzbeECD2OjoaZGxgEO3x4zWAa8+v7YeZ7dDUA3YkXa8PofJ9W2WF74vFm97NFWULBWfCvJ/rbCvCnyi6TpUNjmNqIo4SDhtivhkAgYBNZUVhHH77tfVj/xEwmIQgT5wQsSBPchABYOapqODjMAKn66G/BglWDGrYflqQZ62Q+Q+5d1dbQYUtAiYlARLR8mDk22HH2Zzu87pqH5aVfzUOvbo+9U0x2QnfH4GlR+K2JBXd9d/2bXnjz/IuXAkwaUxAOnQO2Xfblrhf/Aeji2oKMQGpSRAjY4s5xh+5Ppb84fTCHwkM2iffuNvDpigKJj0BuEvCtshGtxuwRcC2LPIND9tKP8ppl+BMlASZhK/AUAWua9CMpXZf7UbZSqRo7eIRJj8BgI6P+rcFbOtvE5WwADUBH1bs7zzSCMgfq7IRJZhKAjILX4muPDk6g3HUVNCuuk/LJ/ZsK0pjeIxJ7wMkYsYPwp8Jqfn7gGVJlc/Gzt/29ypsevtGeRog/LdXrBflZ0B+N0ZUhGB2N9QPqnTXfca+e/8/5FuwUmNKEQBg4YO61PbzfSDlBqysoOw0Nre+fYMcHff2py8/08H+IXBpfiXT5+xq5y75wnMpJ3JPZkw5AgCgKosf4k+AzwFnZ/nUHhW+/NaN/GR0tic5WxDnf19xiwqfkSzzVdgnyFfsqh0/lq1ui98nN6YmARKw6Md6qSVco8oaiR5O0RT7qAs4iPA8wmMHb5KXss1TQSJ/c+VlGL1WhNXAcqLmwULoBPar8pIa6+f+r29/UUh1UN/H+3gf72Py4/8Bg0jmoFOSNKkAAAAASUVORK5CYII=;" vertex="1" parent="1">
          <mxGeometry x="929" y="936" width="58" height="58" as="geometry" />
        </mxCell>
        <mxCell id="WDh5IYlVzA6w8aevfNZZ-84" value="" style="shape=image;verticalLabelPosition=bottom;labelBackgroundColor=default;verticalAlign=top;aspect=fixed;imageAspect=0;image=data:image/png,iVBORw0KGgoAAAANSUhEUgAAAIAAAACACAYAAADDPmHLAAAABHNCSVQICAgIfAhkiAAAAAlwSFlzAAADdgAAA3YBfdWCzAAAABl0RVh0U29mdHdhcmUAd3d3Lmlua3NjYXBlLm9yZ5vuPBoAABjVSURBVHic7Z13cBzXfcc/b3ev7jUcOggQbIBIiqQokSIFSmJR1CJZVok9iazIQpwydpw4ZeI0h1FiOpOMnWQmdhInk4xNt4w9tmzTks3EoiXaKpRYJJISKUoUCwgQvV/Dtd38cTzU67gGAp8ZDondd28f7/vFa/t77wld11mM/NW3Xvxv1WH5mCxJotRlAdCBgH+iW5zVm59+elekWM+VivWgcsOimp8qF/EBBGC1mhsCq8K/V8znLloDyJKQS12GRAghaov5PKWYDysnBofGgghhLnU5ZhMJh68U83liIfQB2tr3WYDNQAs51lrBcKhiIuS/Mf7ztlu3PSlJkjFPRcwblzouHerr7esAUGRlQDXb3p1HdoPA8SP79/YmS1C2NUBb+z4J+CPgo8CNwPyqbF3DP+Gf/FHTNCSp/FpAj9dzd7ycZqMFNQ91VFv7vm7gReBPj+zf2z39Xvl9A0Bb+74W4CXgH4FNzFf8bNB1xnwDXO45Td/wBULhibQfiUZDRLL4o+taEf4jM2gAngDebmvf9+vTb5RdDdDWvm8D8DpgLcXzR7y9XB2I1brewDCj3n5al9+GYO6AIRjy0dn/DhMhb1bPkCSFatdyql3L81LmLKgAvtHWvq/1yP69fw1lVgO0te9TgK9RIvEBRsZ7ZvwcjgTx+IYSph0av5q1+ACaFmFg5DKaVrTh/mz+sq193zYovxrgM8AtiW4Ew0Ei0dy/sEgknFE6g2KC4MxrRsWUPG2OyLIBIaVu2SLRCL4JX87PEEJgNpqRxJzfcxnY39a+75ZyM8CcSZBQOMiod5SoFi1KAdzORjz+YTQ99jybxY3ZZE+YttLRiK7reAPDsam8DDEoRiqdTQmblelEomHGfWOZZ5yAcSGwmlUcVsfsW+uAXyobA7S172sGqmZf9wQ8RRMfQDU7uaG5jTFvP2ajitXsTJpWkmRqKlZQU7GiaOXLFl3X8QW8qCYVWZ5T42wtGwMAW2ZfiEYjhMKhGdesFhMO1ZJ15ooio5qnhv2phoCypOB2NGT9jHywrMZNpc0AQCgSJTARSvOJuYQjUYZGPTOu+YN+7NY5NdmWcjLA+tkXtFnDpQd33czvP3k/RkP2xfZ4/Vy6MjUf8pNjvUSi5TcJdv8dG6mviA3+nQ6V5sbcZoZPnLnEn37hm8Tn+WZ/l9dYX06jgLSqfui+7TmJvxjZcuNKWlekrcWUcjJAWsymspu5LWssJkPaNAvKAPnEbinPmsRuLm65yvNbKAKbVzm50OsnFC7eCCMVQgjq3GZs04wpROHDFRaNAaxmE0IS6FqsV2S3Gti8KvkQrxywWgv/tnrRNAGyIuOy20pdjIyRJAm3s/DlXTQ1AEBDrRuTycDQyDjhcMnm4VMiBLgcNirdzqK8rl5UBpAVmZoqFzVVLrQyDYSRIOaCIrGoDDAdqYhfcjmzaPoASyRmyQCLnCUDLHKWDLDIWTLAImfJAIucRTkMVEYGcD7/P5gunS11UWYQrqxj/J6PEGy+oWjPXJQGqPz2P6Mee77UxZiDGbC8e4LOf/ghulwcaRZlE6AMdqdPVCLk8RFEMP1ilHyxKA0w8sjvEKmsL3Ux5qBZbAw/9gk0a/FeWi3KJsC/8XaufP4A8vhwqYsyA83qQDcUN+ppURoAACERdc6JQk+MrmG6eAYpkn2EbsRZRbiuOevPFYvFa4AMkccGWfa5dpShpCus0+K79W76PvEPeSxV/liUfYBssL32f/MSH0A9dgjDQFeeSpRflgyQhuDqjfPOI+qsIuKuy0Np8s9SE5CGiTWb6PmTf0c9fggRzr4PEHVV4bnzkaKN67OlPEtVZgTWbyOwflupi1EQlpqARc51UQMEJoIEQxEikQjhcIRwJDr5t65pyAYFgyxhUBQURcagKJjNRqwWczHD78qSBWsAfyDI6LiX0TEvkUjqxR3hSJREk6uyLGFTLTjsKnabFUVefBXigjJAJBKlp3+YsXEfoVBmO36kIhrVGBv3MTbuQwiB1Wqmyu3AaVfzUNqFwYIywOjoOFEt8Q5bmqbj9Qfx+kOxv31BPIEQ0UgUm2rGZjVis5qwWY3YrSYMhpmbJei6js8XwOcLoFpM1NW4UXPYh2ChUdYG0LTUsfv+iTAXrwxy/soQl7qGCadpCuIIAfXVDlqaq2hprqbSNXNPKl8gyIWOHhx2K3XVbszm63dVctkaIBgKMuodmXM9qumcOtfNuYt9dPWNkcv6Dl2H7v5xuvvH+fmxi6hWA3XVKiuXO7EkWJ1rt1lxOdW0e/rkG7fTztrmpoI+oywN4At4GfePz7n+1ns9/Pz4Rca9+X1f7vOHudAxyoWOEXSDH13xoovyWDl0U8sq/uKpxwuWf1kZQEdn1DvKRDAw47rJYMJhdfDs4UKHcAlEWEWELWhGHyh+9Gy2/yoAp85fZHjcg9uReKey+VI2BghHQs4x7xjh6FTvXgiBU3VhMRW7MyYhhezoYSu6aRik0u0hsKymumDiQxkZwBfw3jxdfEmScdsrMCil64AJXcYYrmHNahtOx8ztVpwOG0ZjYb++SqednZvn/zIqFWVjgOkYFAMVdjdymp00i0E0qvPeeQ93bW9h64bGyeuyLNGyqnHBb1pVdqU3Gky47e6ctkcJOlQ8y+sI2S2EVQsh1YIuSxh8Exh8AYzeANa+YWy9g1nt7Knr8LPXzjPiCXBPWwsQm0S6dKWXlpUNZbntfKaUlQEUWcFtq8hK/IDbwfC6FQy3LsdX587oM0aPn4rzXdR3dGM+l/kBHW+c6aLCbpmsCYLBEFe6+lmxvDzf9WdC2RhAkoRSYXUjMvxtCjlUOnduZmDDqqw3VAjZrWjb1vKrD96GJxDk2LOv4Hn5dEaffeH181S6rKxsjJlt3Ount3+YuprMzFdulEXdtWfP3yqqxX6jkkHQhC5LdO66mZO/8wgDG1fntJtGtSLxx9UuKmSJ5TYLv/L43ezY99sYm9LvyqnrcOCFMwyPTZ0+MjA4SjCYfbBIOVAWBphoFp+XJcWVLl1YNXP28Xu5umMjmiG3DuJ08afT6rbz0Kcfx962IW0ewVCEZ55/m+i1qWod6OmfO2u5ECi5Ae74zc/dAOL306Xz1bl5u/1BPE01OT8rmfhx7LLEI0/cQ9WH70qb1/CojxNnpgI9xz0+/IFgik+UJyU3QDSq/z1p+iIBt4OzH7mPoCP317TpxI8zrum8vnY5Q+tXpM3zyMkOgqGp3cZ6+8troUkmlLQTuONjf7cDeDRVmojZyLsfvotoBvveJiNT8UeiGv88MMpARGPogdsxD3lQ+xIfFwMwEQxz5GQHsiXAqQsXCIbDSJKU9ygjm9XKfdu38ODt2/ObMSU2gK5pn0+ZQAjef3gnE+45p11kTC7iA2gGmXc/tIeNX30Ogz/5y6fjb3cSMvWDKNx0sX8iyDf/92fcsraF+sr8jjZK1gRc++2/PVWa/k1rGF2V+8ENuYofJ+Swoj95f8rPRjUdES7OGVdyAQIYS1YDaNHoI6kmfDRFoWvnTTnnP1/xAXaoZp5srOKZbevwHn0naR6q4sBgh9C1g6lkScrrRs/xJqDGXZG3POOUzABCiIdT3e/Zto6QLbffrLyJX2FDAOseaONYCgMEJqI88YG7JiOLKlx2mhqqcyp7sSlJE7DjN/52LdCa7L4uCXq235jsdkryLT7A+moXxtWNc9JN53zHwOS/PR5/ipTlRUlqAF2THyZFxM14cx2RHOLw8iH+7aqZX58mPoAA1jy2i7Nf+FbSPH9x4l1+8c5rU58RgmQRZLKssG39DXzsg/djNsRGN+e7uvnGT57nUnfPnPR2i4V727byyM6UXaacKEkNIISecqZlpCX7OLhCiR9nwJG6OdI1hWhUJ6JpRDSNcDQaW6CS4M9EMMgv3jzNKyffmvz8Nw8+z3tXuhKmH/Z4+fZPD9M9mHxImislMYAOKevTbA1QaPGfG/fzrD9IxJLqpFBBtmdcK8pUBZzuPYgQAqUAr51L1QlMukFPxGzMasavGOI/Nx5r0wNuB/arAwlSxTAbzEiG2MygEAI5iWCKLLNt/Vp2bJw6Ke+jv3wP3z70Ahevzt2L4LoaBTzwqS+ZiJ1inZBwFj3/fIh/h2rmiQzEB5hIY4D7brmV9WtisQEOu8qKDN4uxmmur+HPnvy1jNPni6I3AWP+8ZTREyF7ZgGgxRYfSDsj6Q1MxTRGI+V5Islsim4ALaSlNkAGNUApxAeYcKeOzvX6pqaMw9HES9jKjeIbwJBwoe4kUprlXaUSH0CkWaomK1OdwJK/Zs2QopdTCWtzB7rTMKaYRCml+AAGbyDpPQC7ZWruYroZypmiG+DV1QwCSRvIZAYotfixsvlS3repU8NEwwIJFy+6AfSnn9aA/mT3jV7/nKq2HMQHMHpS1wA265QBlAVSA5TKpj1Awve8Iqph6x7A0xgL/SoX8dHB0dmXMsmbF89zpjP2FNVixpJy4ihz7FYLd968kWpX/k86LY0BhHgfXd+S7HbF+114GmvyIv6dNjMfcc1TfMDWPZiyD6ALnVMX3ks6/z9fnn35Nb78538w+e4gX5RmKljTn0t1v+J8V1mJHytTmgUkUqhg4gMEgkEud89vx9JElMQAhojhx6ToCFoGR3lSNZeN+ELTqUyzgkhXUvcP5suK+lpal6d+JZ0LJWkCXvrWn4+0te97CdiTLM07h9+k9aHkrz9Ti2/hIy41L+IDVJ9+H/PI3A0r4kiS4LE929GJlcXlUHHl8eBnm8XCDc1NBTlOvmRjFV0XB4TQkxpg5H9f5/KeW1hhmzs1XEzxpUiEppdOpkzTWOukpXGqT7t65TLUPHUAC03pYgJl8X1Z078AJO3VHH/m5yx/6v4Z7VQxxQdoOHIm7QQQSpDnT7wBxGqDNy9dSJ1ckdi2fi0tTcsmr4UjUY68fZZLCd4GFnIUIPQSnqK9o/2z/6ojPpkqzfKPfYC7tsSix4otvqOjl3XfPoRIsjUdAFKUqHmQrNabX+NvfutJ1q5YDsB//+gnHDr6ZtK0FpOJL//ZpzAbM4+U+uO//zonz3UAYDWrONU5Buoo6ZS10PTPAt5Uaa585Tne6h1OKf7OAohvGvXS+oOfpxYf0BUPuYgP8E5H5+S/z1zoSJk2EAzS0ZN0/ixnSmqAV77+dL+AL6RL9+Y/fYf/PHUhqfiP51l8ZSLIDd97ESXNWj9diqApua0HdKhW7tg0Ffj6wI7tKTeaaGlsoHX5sqT3c6XkE9Y+zfJPVinwCSDpa2LNH6D2qz9m4u6t9G5ZO3m9EOJbBse44Xsvpuz1x9l960pqqmKriYUQNDVUI2ew37Aiy9ywvGnGdPE9229hy/pWOnvnzjbarBZWL8t9gUzKshQk1yw49fU/8d321Gc/LgQ/TDWTIjSNFT89irVvhEv3bedOp5p38V0XrtJy4BfIwfT7EG9qree2jWsmf66trqC2en4hW267Dbe9eEfGQZm8tn7ta399IBINX84kbc2p89z8nZ+xFS1v4hvH/az+8aus/e4LGYm/rMbBvbdPLWtQZJnqyvz30ItByWsAgH87fNj2oQc2NBw/3UNXjydtemNHD69+5r84uXE1rR+8g431bmQhshbf4Jug/vUz1J04lzYQJY5DNfHoPRunqnohaG6qXbAbRZXcAP92+LAtMjz8vqZrxs031uALhBkZzWwrWP9bFzj51gXONtVivvMmjgfDWNx2ghUOtCRtsWnMi/u9Tire68DeNZA2ymc6BkXmsXs3oU4L/Gioq0S1mjPOo9woqQG+e/as0ez3v9w/EayF2CTKts31HD3Zk7EJAEKdfYT+56dTa82EIOhUCbgdRE3GyS3iDL5ARlV8IkwGmUfu3kBt5VQb7a5wUFWR+9L1cqBkBvju2bNGw/DwM5UOx02hcIRRXyzaxmSUuX3rMk6e6c+oOUiIrmMa9WIaTTnFkDFup5VfuXcjbudUwKrVamZZXYYnj5YxJWm4vnv2rNE4MvJ94AMA9ZVu7NapL1eSBJvX1+Cb8JLrJEu+WNno5qMPb5khvtGgsKKp9ro4b6joNcDBgwdNRofjGV3XH5x+vbGqkp4hwajPhxbV+er3XyES0QiFQzhUV9JVNoVCliVu3dDEzq2rZghtUy00N9ZmNN5fCBTVAAcPHjQFbbbvo+sPJLpfX+lmYMTH1w/ExAeYCE0QDPehmlWqXO4ZmzIVAiFg7apadm5dhcs+s3NX5XZSX5t8G1vZM4r53LGsOpaZEHVUEFi7Nac9EdNRNANMii9EQvEBTr57hW/86OXJ/ffi6LqON+Bl78c/wEsnLnLyXDfRAiy8aG6oYM/21dRWzlwAIgQsq6/G7Uq+MET2jLD80w8hQvk9zCKOZ9ejDDz1mbznm3cDdA52NjRVNfUBkwPrrxw4YDdZ1YOqEEkjPM5f6R/4xo9erp4SX2CQlRnnB1jNBu5ua+G2m5o53zHI+Y4BrvSMzssMNW5b7OygFVVzhAewmI0sq6/Gmub9vvnciYKJD2A99VJB8s2bAS4P9azVhP5FJPnui8PdXbrQ/251xbL//MqBA3ZPJPr+wNBgTVN1NVbT3C9Sh+997Qev1EQ1/dq+KgKn6sCgGBgcG5yT3mY1cvO6Bm5e10AwFOFS1zAXrgwx7Ang9QXxBUJzTCEEWM3G2KlhqpnmhgpaVlThtCUewxuNBmqrXLhc9oxC/dK9NZw3eW5W4uTFANfEf5GpFzpNQhf/cX6wq84TjnzSHwpVA3QODDDbBDp8ryISeTyqaYdiV2LiW80q4cjM/XclWZpzbJzJqLB2VQ1rV03tIKrrEAiG8fqDRKM6qtWIzWJEktJLKSsytVUuKiuc10UvPx3z7somEH8SWZL+prmxbnK3JE3T6RwYwB+MvUKNi7979+5rPbsp8RPhrnDSsqqRmioXRmPy8OjYb7uBGreN+mo7DtWUUnwhCew2K8vqqli3pokq9+IQH+ZZA6QSP86m1pUAvHMxFlUbN8GyqupDjYo8Kb4u0FOJH8diNmIxu6mrcU8eHzs+7iMciWR1hJwiyzjsVhx2KzbVsmDn8udLzgbIRPw4s01gMhi7/QH/w7sfemhyTOewOI/Jsrw7mzJYLSasFhMNtZXoQCQSIRI/ODoc+1tDxyDLKIbYodEGRUZWlEV5TnAicjJANuLHiZvg8tW+7mVadM2HH3psRqSlLMvz2ltNwDWBFSzmhRGRWw5kbYBcxI+zqXUlG9Y0/8eaqsbCrqJYImOyqgd/euLo7ihaTuJPPlCSPntpuOe3c/18uRJxVRY0/2iB8s+4BvjhkZcfuHi199lhr0+6dUPrvFap6OifAb7CtMmihc5E6y2M/dKvop5+GfI8JxB1uBl+7HfzmmecjAwQFz8YCkvxhQvzNEFT52BnbVNVU3euGZQdQjD0xKcZeuLTpS5JVqRtAi4P9awd8/mfCYbCk2kvXe3l2NvvkfuiEnHwuhJ/AZPSAPEOX9tN68xVFTODHi9d7eXo2+/mYoIuTY78QbYfWqIwJDXAD4+8/MCIz/sSUKfIMru2bmS2CS5f7ePoW1mZoEuPanvWOJtSL55bomgkNEC8zT989HTVuC82PFdkmV1bNlDlmhkDd7k7YxN06VFtz+rqxvfzUfAl8sMcA0zv8E2EQrz4+ikmTaAosZogexMsiV+mzDDAdPHj15KZoDJzEyyJX8ZMCp1I/DiTJvDGIncVRWF3ZiZYEr/MkSC1+HEmQiFeOHp6hgmSNQevx0ywJP4CQHrmlVe3pBM/TnCWCQyKws4EJugbGomee//qry2JX/5I/qD/i5mIHyeZCSqdsXg6s8kYXVFXfd+D27e9UpgiL5FPJK8/kP647FnETHCKMc+UCXbduomG6srAirrq+x69fefP8l5SoKtv4Z3NWyp0Xad7YDRtOsVlt/5kdNyb9VEVwVCYF4+dYs+tN+G0qxgUpeuOzevn0+aPpUvwr9/6P5784B1UpgjPXgIikSjPv/oW/UNpv9IxxazLn3A77PcNj3uy3t0gboJdWzf1uVTrfDt8b8y+oMgGhBCTo4qOqwN87ss/mMcjFi8GJWEM5RvSo7t3jzbY6lvdDvtILhkLIaJXrvY+kYcO3xvMWggohMBiKs65vNczkpCwGBMexXNcAnho95bBXEwQ7/Dlo80/sn+vBzg9+7rdYsdmsSNLC2P79XJCIDAbLVQ4ki5ne3UyHuCh3VsGnz18ohV4L5PmIJ/iT+MPgReYtlmQJEnYrXbsVjuavjDO4SkXBCJVzMZXj+zf++acjSKfPXyiqtvbk9IEBRIfgLb2ff8CfCrf+S4xg05g45H9e8fmjP/TNQeFFP8afwE8X6C8l4A+4PEj+/eOQYqtYhPVBEUQf5K29n0fJ7aJZHH3Tbu++Q7wySP7904eQpxyr+AfHD7sCgrtSyMe3wftFstJm1X95CNtbW8Xo6QAbe37moHHgK3X/rRQ0GMZrjuGgOPACeDFI/v3Hpqd4P8BLmdgrj46TB4AAAAASUVORK5CYII=;" vertex="1" parent="1">
          <mxGeometry x="923" y="1039" width="58" height="58" as="geometry" />
        </mxCell>
        <mxCell id="WDh5IYlVzA6w8aevfNZZ-86" value="&lt;div&gt;&lt;b&gt;決策引擎（LLM + RAG）&lt;/b&gt;&lt;/div&gt;" style="text;html=1;align=center;verticalAlign=middle;resizable=0;points=[];autosize=1;strokeColor=none;fillColor=none;" vertex="1" parent="1">
          <mxGeometry x="882" y="891" width="160" height="30" as="geometry" />
        </mxCell>
        <mxCell id="WDh5IYlVzA6w8aevfNZZ-87" value="&lt;div&gt;整合模擬結果、使用者設定與感測資訊&lt;br&gt;&lt;/div&gt;" style="text;html=1;align=center;verticalAlign=middle;resizable=0;points=[];autosize=1;strokeColor=#36393d;fillColor=#f9f7ed;fontStyle=0;strokeWidth=2;" vertex="1" parent="1">
          <mxGeometry x="256" y="850" width="230" height="30" as="geometry" />
        </mxCell>
        <mxCell id="WDh5IYlVzA6w8aevfNZZ-88" value="&lt;div&gt;作為儀表板與回饋模組的資料來源&lt;br&gt;&lt;/div&gt;" style="text;html=1;align=center;verticalAlign=middle;resizable=0;points=[];autosize=1;fontStyle=0;strokeWidth=2;fillColor=#f9f7ed;strokeColor=#36393d;" vertex="1" parent="1">
          <mxGeometry x="565" y="850" width="200" height="30" as="geometry" />
        </mxCell>
        <mxCell id="WDh5IYlVzA6w8aevfNZZ-89" value="&lt;div&gt;可記錄互動歷程供報告模組使用&lt;br&gt;&lt;/div&gt;" style="text;html=1;align=center;verticalAlign=middle;resizable=0;points=[];autosize=1;strokeColor=#36393d;fillColor=#f9f7ed;fontStyle=0;strokeWidth=2;" vertex="1" parent="1">
          <mxGeometry x="844" y="850" width="190" height="30" as="geometry" />
        </mxCell>
        <mxCell id="WDh5IYlVzA6w8aevfNZZ-91" value="&lt;b&gt;中央資料交換區（模組資料總線）&lt;/b&gt;" style="text;html=1;align=center;verticalAlign=middle;resizable=0;points=[];autosize=1;strokeColor=none;fillColor=none;" vertex="1" parent="1">
          <mxGeometry x="560" y="810" width="200" height="30" as="geometry" />
        </mxCell>
        <mxCell id="WDh5IYlVzA6w8aevfNZZ-92" value="" style="shape=flexArrow;endArrow=classic;html=1;rounded=0;fillColor=#ffcc99;strokeColor=#36393d;" edge="1" parent="1">
          <mxGeometry width="50" height="50" relative="1" as="geometry">
            <mxPoint x="239.99999999999994" y="805" as="sourcePoint" />
            <mxPoint x="240" y="920" as="targetPoint" />
          </mxGeometry>
        </mxCell>
      </root>
    </mxGraphModel>
  </diagram>
</mxfile>
